<mxfile host="app.diagrams.net" agent="Mozilla/5.0 (Windows NT 10.0; Win64; x64) AppleWebKit/537.36 (KHTML, like Gecko) Chrome/139.0.0.0 Safari/537.36" version="28.2.1">
  <diagram id="w9pdZTd9Eaaxa6l5IPz6" name="Page-1">
    <mxGraphModel dx="1426" dy="811" grid="1" gridSize="10" guides="1" tooltips="1" connect="1" arrows="1" fold="1" page="1" pageScale="1" pageWidth="850" pageHeight="1100" math="0" shadow="0">
      <root>
        <mxCell id="0" />
        <mxCell id="1" parent="0" />
        <mxCell id="c-cJ_QU96Qvupv7S0T-8-156" value="" style="group" vertex="1" connectable="0" parent="1">
          <mxGeometry x="320" y="206" width="860" height="688" as="geometry" />
        </mxCell>
        <mxCell id="c-cJ_QU96Qvupv7S0T-8-157" value="Stage 1: Retrieval and Construction of the Memento Dataset" style="swimlane;startSize=20;horizontal=1;containerType=tree;newEdgeStyle={&quot;edgeStyle&quot;:&quot;elbowEdgeStyle&quot;,&quot;startArrow&quot;:&quot;none&quot;,&quot;endArrow&quot;:&quot;none&quot;};" vertex="1" parent="c-cJ_QU96Qvupv7S0T-8-156">
          <mxGeometry width="860" height="278" as="geometry">
            <mxRectangle x="1020" y="640" width="90" height="30" as="alternateBounds" />
          </mxGeometry>
        </mxCell>
        <mxCell id="c-cJ_QU96Qvupv7S0T-8-158" value="" style="group" vertex="1" connectable="0" parent="c-cJ_QU96Qvupv7S0T-8-157">
          <mxGeometry x="9.998681318681317" y="150" width="94.50549450549453" height="62" as="geometry" />
        </mxCell>
        <mxCell id="c-cJ_QU96Qvupv7S0T-8-159" value="" style="shape=document;whiteSpace=wrap;html=1;boundedLbl=1;strokeWidth=2;" vertex="1" parent="c-cJ_QU96Qvupv7S0T-8-158">
          <mxGeometry x="13.388278388278389" width="79.54212454212454" height="46.5" as="geometry" />
        </mxCell>
        <mxCell id="c-cJ_QU96Qvupv7S0T-8-160" value="" style="shape=document;whiteSpace=wrap;html=1;boundedLbl=1;fillColor=default;strokeWidth=2;" vertex="1" parent="c-cJ_QU96Qvupv7S0T-8-158">
          <mxGeometry x="7.087912087912089" y="7.75" width="79.54212454212454" height="46.5" as="geometry" />
        </mxCell>
        <mxCell id="c-cJ_QU96Qvupv7S0T-8-161" value="&lt;font style=&quot;font-size: 10px;&quot; face=&quot;Times New Roman&quot;&gt;List of URLs&lt;/font&gt;" style="shape=document;whiteSpace=wrap;html=1;boundedLbl=1;fillColor=default;strokeWidth=2;" vertex="1" parent="c-cJ_QU96Qvupv7S0T-8-158">
          <mxGeometry y="15.5" width="79.54212454212454" height="46.5" as="geometry" />
        </mxCell>
        <mxCell id="c-cJ_QU96Qvupv7S0T-8-162" style="edgeStyle=orthogonalEdgeStyle;rounded=0;orthogonalLoop=1;jettySize=auto;html=1;exitX=1;exitY=0.5;exitDx=0;exitDy=0;entryX=0;entryY=0.5;entryDx=0;entryDy=0;" edge="1" parent="c-cJ_QU96Qvupv7S0T-8-157" source="c-cJ_QU96Qvupv7S0T-8-163" target="c-cJ_QU96Qvupv7S0T-8-169">
          <mxGeometry relative="1" as="geometry" />
        </mxCell>
        <mxCell id="c-cJ_QU96Qvupv7S0T-8-163" value="Retrieve CDX Data&#xa;(Only 200 status code)" style="shape=image;verticalLabelPosition=bottom;labelBackgroundColor=default;verticalAlign=top;aspect=fixed;imageAspect=0;image=data:image/png,iVBORw0KGgoAAAANSUhEUgAAAXUAAACHCAIAAABmsl45AAAQAElEQVR4AeydCVyWxfbHUUAU3BCkNMUthUyxFDW3ynJJzUxzwcq8t3L7p2ku161udcutsqumlVtd19zSTM00Tb1qLqmlaWmGC5kLgsgqCOj/C6PPfXw23g14geFzmmbOnDlz5jwzv+fMzPu+Fr8p/6QHpAekB3LHA8U9sv8SExJidX8wsysNkkMHD0Inbv/R1EDIwwMNiJEa1gpmRkbGbTU5/F/I61Oa0QupBZlZKLSdOnXKTAPmCZkcU70SsybYibBZreBjD4SkBVk7liFbtFWqEBM95kaqHkKOQzYzAFPVeigKcqHlKNz07bfQlu++oy8HTGWe0Iq2kH4g1GItZP3INA2R1xBdoEojpikigw2MSJB1jwgjptFgWEQnhLAF6fu6hS8//PDD6+PGBar+KMI07Almamrqtm3bQm//hdWtC1NPv/zyS6PwcFJ9lcKJiooSah5q1Oixhx+GRJGUPFSfXDbprRdKkpOSdu/eTfNsqayEPA0FZZVDQ//94YdC2Cw9duxYRM+eQlikNCfj7e39cMuWK5Yvz/G5ohklf+/bl1aCfti9G6aG0PNw8+bvT5mi4WuKV65cWb16tdAjUuwRxOgEx9qxDFmIaVrRXHBE7Qfvv6/p2oVF5sm0Dz8UHdWqVcvsCVr3yPNVTza0iSEwW4sVKzZk8GBDP1vrFLU8i6kffIASdEZ07z7t3/9+LiKCGYup/qVL26iWuXF/aCjzhFa0fc/oyW7ftg1roa+++kp0bUu6dcsWliGtBHXu1GnD+vXx8fE5tj1w4EC3Ll0YFDTFyB6hISMjo1njxjwgUbROeZQOTMhb+NL+iSc+mT17/Lhx5f38oBnTp1OEadZl8xYtRowcuXDBAm8Pj8pBQZejo+fMnm0mXLJkSbMqhX/wwIHLV6+e/esvqFnTpugk/evSJYop6em7d+1C8np6OqmeGjZqNOTVV5etWoUxGM8o4pKSaCgoJiamV48e+lZqTs2aNfu88ML8zz6DSddPtGuXEB9P8/TsrmPREBHB0+V5IGBGQsm6DRsQQAk0ZvRo8nqqXKWKlzfG6mv+x2nTtu27EyYM7N8/qEIFuHhAeAOrcNTx48dhWlNmZibNxUBoO3v+fLqEyFBED1UIWCtxspZ58tGsWSipERxMavHGotaMeL5MNnCQhwvN/vRT8Xx5suRnzprVomXLRQsXGja3YPI0e3bvPnLUKHQuX7YMr27ctAnPMBWx9mpy8tGjRy2aK1U9e/U6dvz4txs34lselr+/v1KlZHx9fckjQGo7oZll2KpFC+YSbRcvXco8DwgIsNbAPOw/YMB/s99tDGTp4sWM1LDJkcOHo69cYeYb1mqYPEomJIsLd2EMHsNXzCII1zEh4WuaULyFL+SgsLCw5ORkPHvfffdRzJGCgoJY8WEPPOBfocLoESOI5XJsohdgDQ9+5RXmkNftP2QUjwgeY2MlWCN3mTJlMAb7Q0JC0CAakvI83n7nHeu2yEPls2cGXT/w4INlypalLUTXq9eupfbbzZunT5tGxppKeHvzUGvVru1TsuTO3bsdmPdq/ffWrn09LQ3O3ZUqkWKPIMY4Y/r0xMREmGZ0+tSpdydOFANBply5cvgHIkMRPVQhgBjF3CMmMcrTUlNZJMABeceoatWqPFwmZ3h4OBqwnyfLQgLEmdkv9O1LqA/fdnrrzTfXZD9Z3kysZBTSlpSp+OOhQ+TtovDGjfGtXU1sFK5cuTJzskpwsHhwNrbCOa8NHUrodzoqav++fYatiEdACma4Ya0hMzg4mKfASO+9914EcJcgJuSUqVP1E/IOfKEBLUl59ZHmSJ6ensi88c9/BlasSIYHRmovBQYGDh4yRN3q2rVr6qLI9+vf3y7/ilYirVypUu/evUXegRTfPRAWxvL48H1btxJdnn762eefZ96PfO01xzYFOdrZ6ckna9epYyH2j9Gjc/QYs/Dlfv0slDhftXjRoq5duvTq3ZtFsn7tWsdeQhZmdO7cGdBB4MCPP5LaSDyUCRMn8kwJk/VxOm4BCtm526gNMd4rpLlBIiACoO1V/nyfPoQnhFRmLzk8MMnmKS16L1WqlMikpqaKjJIScesnpBZfwDOlgY2ZgMDAN99+m2dMpMoJkI2tFDGeJQtYKZpleKsgaVZrzedFbRdI659ljRo16OJ8dDSpLRQXF/dWtk/irlyx2ADbospMhjAYMquFj8d4t5CxJqaFtYAztSzjmdOnd+3WbcCgQcx1VH2TvX8k4ypi+qGKeXv16lUyNpLYqaUkJ/d+9lnDJs90796qVSvDqoLCDGvQgPcic2D1qlU8CI3Z4nTpyc6dNXyHi8xGSNNciy/pmnobisRghJfsEnldsz2zoUWeinDczaWAM13y4j1x/Dgp7zrb9fBcFy5YgD95S2CD7Q1tkeRM0eWBgC392ivDMsYDHTt14hXCXGcfPXfOHHuVWMtzOoYAvVSrVo2MjbRz506mKy9Fs6MAXmb6uMZG5W4ixgwkhAFDQfaNGzdqrCKoYc3yXDR8x4pcvRnuT7X44ph2Wk2bPp2nxSEFU5+iM6TEYM4oUdrO/uSTCxcuKEVbMhydqMVWf/nlrydO8JCGvfaamp9jnpMzIIl5PNbkoDdHDWYCY/7xD1tOlMya5xmfXcYT7dqxVulx+IgRRHOcSbkWbZVz3+bNm9OLjfTHyZMlfHwQrpp98EzGVZTjyb2rOrJFD5Ejq5ItEnNYLU848+mcOZw5qJl25TWXNpyCcZCq1+AyfCEa5zyJtTTk//4P6/U95Q2nYlDQ0iVLuLOEBg0YwMXhv6dPt6trUP9qXBxrgL0eMeTYMWN6RUQwLpYKYZpdqhBmz8gD5hwRgKfoGDE/xo0Zw4ggBsXVKYd2jqnKy1ZEWAxcAWWiGL/s28n169Y5bAb7oD/++INHA+HSh1u2pIvqtWodPHKEXbDtaq9fv86DRt47p4s8ZGwndIJchAYa+uabb3iItutxlSQbFoIUrFq+ciWPQ1FLXEmeJ0LqAHFuxTU8sxFiQt4VEPDzkSOGelyGL2gf/8YbrCXeUbl04kAXORK7mOrVqzdp0qR+/fqcuXR95pkcm2gECF7mz5kTGhraKDyci8/JU6ZwFRd1/jxXFRpJW4rALjdfwBOPAdtsaaKX4QqpMUO6Paj2HTvqZdyQI45alLCCKCbiueew87N580gdI65RgPtG4eHQEx06cGHBzeiPBw+ykOxSWKJECSFv+NYVVQ6kTJ6LFy/yWtLQr8eOscgdUOh8E4KUy9HR4LJ4HELh5599psSVgmNXykzmZpMpWT97lXXr3t2suSvxhQm0cMECdsKcOBhuxsyM0PAN7480MmZF0A1YYWMCHJByY0/cYZdCjpNGjB598+bNb7O3rEDDn3/+ade7UWMbd8DA7rmoKFuutzVtRZHmBLoMRwxq2YoVTA5R5c4pRy2EzWrXMdcZC5tNlp9jlhO4ASg8nV49ehAR8NokAHFg6XIpwyLBBh43qasIbS1btfpk9mwNjRw1yvbLAVcZI/QQpBA2EtfzOASH7QXhjBJXCqZdKWcF3bp1UyYkg+WK0FCDFl/AOUM5G5mcxnOMx5ocOXw4TTSbNDh5T488+mj58uXt6lfcH3G8xzL29fNjcjgDl8AuZwTA7thRo5zRox4CcKMuumGeDWbWUcvx42wwhw8bJoi7aiYYuLBq5UqHbWYN0/btd95hlqOKnSNFe4lbJ6JCjGG3ZW9ba/kMk0+BWrfKvVqmHwEvYJr1OE6coCNx1qvElXAcIM39dETv3gC9Xo8WX/QSdnF4k8z6+GPeUeyKnby1satfC2FOyB04NxEKp82YwWvH4UkslJAOHTasbkgIrxEWAy6C4yQRyNi7I3CyR3ubc8jCLp0tTOXKlWvUrKnQS/37o4pDMd6iZBwmHiuXlWAEr2IHZlpYWBizlPusn376yWEbCkrDv7/4IljMW5+Hgs3LvviCo1J1XAnTSWKJGU5IF+MLVrI9IXZlMEOHDNGAHLUFi5jEPAkxiTlQdNh4MOXDadOY0GIxlClTxmFVBaUhwdrwUaPAwSGvvqqmUaNHM9cZhThiJOMwjR492tfPDxQbeufnM21RGN64MWJ+pUt/NncumcJNIlQhEufki1Ne3v3cW+fNkLX4QhjvfMcTJ09mLcVcvvzOv/7lgDbX3k8LA6Z+8IHtL0xO6UQrUnFozSQeNnQoRYeJ3RZ7VEKhUSNHcirp7eXlsCrRkOG8Pn68yLtbyvEKE8lwE8dbjhsNXj8cMTppNm/gye+/T4DJgQ73NXZpwwweB1stDuwsvjpnl063FcZRvCbZIrEkXxk0iF0h1w4utxb9+gmpxRf6dr5jHh4nDjy5Iz//7Lw2l2iY9dFHjulh+zpj+nRO4Nm+OvnRnklTpvDqjr969UxkpGPGqFudv3CBWwk1x33yX3zxBSDCNDA0SZzyrl650vnTKI4YOe8D/ceMGgXgGnZnxhSPg4PPwQMHAogaMbRx/61h5ksxLi6Oflm9pA5T9x49mHvEa0TQU+38xIZhp/qj1cjISP2EvANf9u7ZwxkBELNz505DpbYz+/fvz1WikLd3l3Tt2jW2JKKtvSk76qVLlrCXUYipw92w7XroWpzvKk0G/d//1Q4JIfR4PiLCmcfMbosjAy6SFM22ZJKTk3nbfzZ/vjIiMpw4RPTsedddd9miIY9lWJkzZ80CRMz65UaDKgIcRkHGdqKJXpjzPkIYyN5PRfA4vtu8mYbobNGyJSfQvD+YLYQzTJiy5cqtX7+eKruIyWMhb2i/hTxVOFN8OxF0+Mn+b12iQRCnFjWCg4nXKLZr357UYWIUQMTnn3/OPFSIR/n3vn31E/IWvuDZh1u23LZt23316oU3bbph/foO7dvDtDbC19eXngBFvRghGbdW5f39OdfUQ51eXs25++67q9eqVa5cOTUzxzy90Fet2rUvXrzYvVs3hZ5/9tm9e/eGhIaW8s36jryFHnrkGdA1O1W1GKcn0z/6KLBiRVCGda6u8jAqVKlaletPoxoPjgzuDwvTd2EoDLNEiRLI81B4IsqIyIgTBy5BkLGd8A9ku7xjkvv27SOmECBiqIGQkHtr7ua+37rVUMCQydMhJoI0tawcRRuHC5pa62Kbtm1jYmJ4n2PM8i++4P0B0Ez/978JGRYuWPDW229bN9fUshaYOV4mH9ijlveET/aHhjUNzYpDBg/u1LEjU7dFq1bs5tjjsyodDvpeGzGiYXj4wP79AVazHnPkYz++erJLlz9OnuTEQKF/vf02D0g/IW/hS7dnnvl++/YfDx78765dEJl1GzbAtO6PR5uSnm5mLicOh48ehezd7NG1MMC6d00tvdCXMP73yEg1CW3AhKaJpsi8pxXC+onFREQ59OJLL2laaYoAK54cMXKkhi+K1P50+LBhF0JAk3IyirB+UFgC/90JEzTyFkXlcZCxEHO+Cl8xRpxpoWrS5MkbN21atmKFwutnJgAAEABJREFUhYymCrPxA8SD1lQJbT/s3WvdqaaVKNIEJ2PM8ZMnY+PjE+Lj8S2GsfOiSsjYkvJkaY6SiRMn6uWbNG1KbdT58zmuKXXbj2bOZLzYtvqrryAykNmuU93QMC+GyVvfsNZGJvdE2CCMwTY1wddPyFv4wtozpBx7pZWFDLWQhYBhFU0EGdZaMEUrs9SioVKltFU4SsaiSpERGSRFxixFADKr1fCRNCONZI5FoSdHsaIpAEAIwkuOeUA0J9U3Ryd8iIy+thBzbuFLIR6hHJr0gPSAox5wtp3EF2c9KNtLD0gPmHlA4ouZZyRfekB6wFkPSHxx1oOyvfSA9ICZByS+mHlG8t3BA9KGgu0BiS8F+/lJ66UH3NkDEl/c+elI26QHCrYHJL4U7OcnrZcecGcPSHyxfjqyVnpAesBxD0h8cdx3sqX0gPSAtQckvlj7R9ZKD0gPOO4BiS+O+062lB4o6B7IbfslvuS2h6V+6YGi6wGJL0X32atHvn/CpM3P9vm+3wBD2jnWTX+IUz0EmXdDD0h8ccOHkg8mJZ05E7dnf8zOPXq6vGV70rHfXGVTbGzsooULhw8b1vyhh2pWq3ZXQIBdRBMa0nzTt98681uCrhqO1GPtAYkv1v4pQrXFfHyK+5TQUxbft5TzjkhMSAAXAgMDX+rbd8miRWdPn/bw8PArXdouwgwa0vyJDh0a1Kv3w+7dcCS5rQckvhg8mozkZHYEthDbit8WL72w/0eaGCiSrNseIGxpUL/+5/Pm1QgOrhIcDKao/5GG21I2/Z+GNEfP1bi4Fi1bEsjY1CxfhcDBIYMHA69qgoNb8tWuXO88C1/ijp9gLbFUDOmn6bd+ef+XufMMBQQzavsOjL12KdpCFZIFZR1e+mbT+WWrLqxZZ02n5/3nyBtv7+jS48t6DXeNGoMncYIkjQfYyHTu1Ck5Kck/IEBT5UwRoAFlCGQc/klaZ3q3q+25c+dmzppF2KUQUAvHLiUFUTgLXxIvXoya/BFLxZDOrPiS+cHYzq375tQn8wxl/pj4YfzJk8ikp6b+OWOOoQxMxNKTkhEzI9Yn4QAIxSkjx43QtsGvgkpnN3+XcDbKrFVu8D3ZLPj66jcLGo5n2TKQV1Ag6fl132xs1FKB49ywqoDq/Gz+/D379hF0aOwHcc5FRQmKi43V1IpiWmqqECA1lAmqUOH9KVOEsDun3h4eeEAhoLa8n587G+wS27LwBUWed1dgheipuK+v1+29d3HfUsVL++llsjhBFVAiqLh/2SxO9sLTZlRiQlik4Nfvy1esvP/BTa3bEw4QMnDKePXQYYjDRYBpz4sD19dttCniOXYioomrUhfqAXpK3FvtxOSpBDIuVFsIVA0YOJBAQzMQwKJn797zFyyY+emnpK+/9RYcjQzg0uqRR6hVZDQCFFmxn86ZU+g3Goy0INItfMlH09kxbezQ+dCwf2CDCARYqGoCpLwC/Fm68T//sq11R8IZJN2WGELUx/PFbtFtjcxLww4dPKjvDij518SJH82c2eeFF/oPGEDatVu3q8nJGsmU5OTHHn+cWiEzYuTILdu2nY4yiGQP/Pijpq0suoMH8hlfAJc1TVpe+/MvlmUxL09rjwA6oMypmbPdPEDwqlrp2IfTrcdSdGoPHDjgrRstUNLpySd1bANGWlqamluzZs1mTZsS16iZbDS2b9+u5hTuPKfFD7dsWSz778EGDdz5hDuf8eW/w4bfSEkBOGyfECDRucXL2E/Z3sTlkjfSrkNmahlO3NadHHWbCRQpfmJiop9LDxrK6f7hvRI+Ptwl5ehVjoFZmVu++44FSUpgxZV5jq3cTQCzuTWLPHmSLScUffEiJ9wMx9jO/ObmJ75wmHJx6Wq2P/Y6wbOC/6ERY4l9lIYs5mWVqnOCo6flNUI4LRaSyKwIDdPLwFzXtgPHQELMOgVZAls1q9jm0cyERDNJDqGiDx82q5V813rAy8vr0qVLZjpZkK+PH+9funStWrVYmW3btWNBkjYKDy9brhzv/0ULF9oFNMwTjntoQsas09zjr169mniNuzPRBRlOuNeuXSuK7pbmJ778seYrr6qVHPCI2EmdWr/BlrbFVP8i542E5GKeOezCctR5Iz4h/PXxrWfOCHvnzUwTiCnm7XXlt+M5qipwAiA1QLzxqW56gk+tW42I9T92zBhwZNb06dzX8LbXE+//F/r2Da1d+8SJE9bGE/sMHzaMjUmDevUaN2zYoH79xo0adWjffuoHHwBh1m1dWBsWFsbuUq0w+sqV+vXrqznuk883fOHZx2zdbrHaM2LjzFYv7uMm69yWrWTUBO7oSS1QvKyfXiCLYyfoZF67htrydWrfTL3jdACmIEAt7uhRkTdLib84BuY+m2XJ4lzVIJzAak2TFixdbuh/W7w0j6/kzexU89MuXeawLCnytJ7gU6sWzt88E6xzp05Tp0wBUwAXM2N4/yNAbWhoKAhCRk/AB7BC7LNk0SI2Jteynz5iYNORn39+9623gDAEckQomjhPPXv1Gj9uHIfcCo0ZPZrzb+c156iBkA1XEO4BqYSEEBmKMPG2YfN8wxePtLRrx35nbRuaBbI0X/zZg5PfIWMoADAlnzG4RzAUznsm5lksNpAFBPmyXsMfevf9fdrMmJ17Us9fvJmRiZ0ZySmJv//BDf3hMW9889DD7nYlXzz7wwo8NQMyxGiGlE/01ptvbt28uUpwsC39C5QBQfTrBNABPoAVYIi7cCQVheQhwIsqBEAoTnaUWnszdB0bGwtIkZK3aP7uhAkxMTHfbtwIRUZGTpo8WRGmIRo4aVITHHQKGQQY0ZzZs4nshgweDEBgM0xRa5F+NGMGUR6ueKlvXyCVkBAiQxFmtXvuQadeT77hi8UH7Tjg8G/WJPjRR+r06snpjFh4+pFnxCfox6MXyy9Oxu23nMYATp1WN2p2ftkqhsZZNWlxnxLq5UoR4kqeWnElz32ZjSNFjKgn7vgJeoHIUNQYUBSKrK4JEyfqwYV7ceW1r/cD91yffPyxms+y7NS+feWgIHBEzU9OSoLUHARAGU526FrNtyXP+5+dV51atQIDAwEpUm9vbzj0btY8ICCg/RNPQFyoqWXi4+PRwEmTmuAsXbIEMWKNe+66CxgdPHDgZ3PnrvjiCwACm9nogUEIGBIjav7QQ68OHSrGiFeBVIUoMnCqBgwciB6E1UryDV+8S1t9eNHLz1dY6ak6PRGcAp2e3fzdttYdiW6AFVsGAtBwJf/XqjXfdetJ1GPRBDQBhr6sff83LVpvat1+R5ceEBmKnF6zBaNri+aFrIr7FMBCM6hzUVGvv/VWQnx8eno6b36wRiNQMSjoi6VLwWiF//q4ceRZPKSCuBqHevbuDcEhT6oQR60jhw9XitYZrr0QIIJoFB7Ozos8C1Whz+fNu7daNQuIQd6MFCUiw3kwkoMGDOCkiRAMJqBABgImKLLRe6hRI7Y/iGkIA5o1bkx0hpimSlNEAD3gmhpi8g1fNMYVhSKhxJ4XB3pXr1Isp0/6aLwBGCX8cmzvW+9o+KKIWo5strXueH7dN1mftw7wJ/D5HwX4A2dswfb07ccpDxGNaFW40++3bgUs1GMECO4PCxsxcmSZsmW5b+LNP3v+fBBHLQOO7Nm3jxBAMFla8+fMYQWKokiR2blnz0czZ0I/HjpEUfBFyopds3ateoEJvmEaWLHiK4MGjRw1ipVJQ40M/QJACGj4DhRR9enHH69etYqODJsziuTk5Dlz5uhrQdjraWl680BnCK+qm6AHhFXbXNjxRT36/M4feHcCx9L2gouwGoiJ+ng+QYooKiknxOvrNuLIhjCHYMdQOUyqQByOYDc2apm/Hx1SLM/VTJTuM76Xo6OHjxih7vTxNm38K/zvey1KFUcbIn/i+PF0kbudgkdjxo1TtiRsUia/9x7M2/VZ/ydusvHDxJwT79yxw2zNo4tVvXzlSs3OhShj07ffaggm8hZEX2izECCimfXRR+rYDWG6/lSHsAJTiASnTJ1aq3ZtUAZJhejl282bMU9wJL4IP+R6SpQRvX4T69zhnrjL/23uPHXza5eiOSEmILJRLWLA0IEXX9HjlFptIcgToWhGAVIEBQWpmSW8vfViCCgHK0ePHgUs4CiEknr16ilFMg0eeAAmGYX8/Pz+/PNPpWid4YVvLYABO7ZvV8tcjonhxERD5y9cUMs4ludkSoPLmzdtwgCNNjBoy7ZtRIJcWv131672HTsKxFHEOK6a/emnoijxRfgh19OzmzcXK+lj3Y3ZSbZoBTqwzQFTRJH0v0NfK16uLOEJedsJPNr19/7Wpzm2a5OSGg+wqfnr3DkN06IInBEBQZpVKpoQYf106JDIi1R8fJmoRyHBzzEFPuiiVKlSImMof/FOnPpmwwbNNpNo5R9jxyoRHErefued89HRZBQCNNesXQsMwZH4ghPygmIOHylmeVbNrVnpWjXM7uOFiTfiE1Lj4kSek5S4HbsBHVG0PQWPMuMTTtn26UTb1RY+SZZibg8KWHmuT5/Fy5bNX7CgvL9/WmqqpkciLIuPJnt4aMRNi2DK8mXLjp88efjoUa60DfuicWLiHR9J54IfsICv0NXk5AYNGihFMiEhIaR6oheYEl9wQl5QapTVOy0jNq7Vwvkdvl5d4+W/WUGMp2fC7ZOFM5usAiLQykKPZ7myx2bccRGbFy6QfdzpAcAFZPlw2rSevXr1eeGFvfv3p+i+QU4Ljk5InSFCpDGjR9OLONsm+li0ZIkm6HBGv2Hb2JgY+BJfcEJekKflfTznvuWrVcOOu1s0v2nymWBqobTb8cvFrdvMAiLApXqf3nXHjSJDEz0RwqT8cEhukfSeyUsOJzWcMSs9svg5NGUDonBclYm7cqVGjRpqbbVr165rEneoxTj0VRcdyEt8ccBpudjE2/fWB39y7IM7Iy6ezcQaDnu1fr+XyzdsYAoxvj4pMcY/GWemU/Jz2wNVq1blnji3e0F/KV/fgMBA/XaMKteSxBfX+tNZbekpKTaq8C5bJkdJ5WOKesniZf3Et6j0VfZwpKwrPcDZreY2ypXa80OXxJf88LrsU3qgaHhA4kvReM5ylNID+eEBiS/54XXZp/RA0fBAQceXovGU5CilBwqmByS+FMznJq2WHigIHpD4UhCekrRReqBgekDiS8F8btLqouGBgj5KiS8F/QlK+6UH3NcDEl/c99lIy6QHCroHJL4U9Cco7ZcecF8PSHxx32fjDpZJG6QHnPGAxBdnvCfbSg9ID1h5QOKLlXdknfSA9IAzHpD44oz3ZFvpAekBKw+4O75Y2S7rpAekB9zbA/mJL5kpMZkJiXq6kZTs3k6T1kkPSA/Y5IH8xJfqY8bVePlveqo56OWKTRrbZL4Ukh6QHnBjD+Qbvnj5+bWaNKHJ+LGGVL/fy27sNGma9ICLPFDY1eQbvhR2x8rxSQ9ID3hIfJGTQHpAeiC3PCDxJcmvmIEAABAASURBVLc8K/VKD0gPSHwp2nNAjl56IDc9IPElN70rdRcNDyQnJSkUfeVKekZG0Rh3zqN0I3zJSE6+dilaTXByHoGUkB7IPw94e3sP7N+/W/fuClGsX79+/lnkXj27Bb6AI/snTFrXrtPXD7VaU/N+UkFf1muYkZxSzMvTvXwmrXF7DyQmJp6Pjj4dFaVQLplcs2bNT2bP1lD/AQNyqbsCpza/8cXDI2r7juWlK52e95+Mq/GeZcuUuLcaqUKFBlwyk5JvxCdkxMYZElW5MXXSE5My/ryQER2jp/SLZ1MTEnKjU3fQ+eWaNZG6v+bNm7uDbUXKhnzGlwv7f9zVqXuJurUAlEIDJYYTqO7gQQ2nvddw6iRjmvaed2k/Gnr7+pK6ippNmdTh4K722zbp6cnfjle8v66rOkLPzczM4r6lyLgDEVboqUzZsu5gW5GyIT/xJSMjY+cLL3lXr1L4kIXF5v9AA/VMqtaubZ1ePS3Iy88P+fSUFFJXUdlqwf6hIWYkenRVXzfT0vzr13OVNqmncHggP/Hl1JerbyQlFz5wYWaw36na9nEyRYcyo69Ubdum6IzXtpEWdan8xJfTa9YWz94UFLKHkJmQWK5xQwKWQjYui+HcSLvu/3irSvJbqRY+KpJV+YYv3BnF7dhd3KeEmdtvZmRCZrXuwI85fLhYSR+1JRicER1Tvml42y8WqfmFOw+4EK+1+Gha4R6mHJ0DHsg3fMHWGwmmv/PClC1Z+e7StWqwYpF0KwJTEi9e/H35il8nvs+xtGIbpnqVL9dswdz2y5a49mhD6SJ/M9cuRaecOlPM01NtRmZCondABc6POetR82VeegAP5Ce+0L0hAS7lGzbo/N3GDl+vRoB1S+o+BKbs+Xv/QyPGktFbVTY4WM/MP44LeibGTPjl1+U1Qr5+qJXm40g8qYptHu26e7t/aIgLespNFVwmaOh6erpPyZK52afU7a7fn/au4O/ODwdk8QrQWshBdcbV+E2t2/+2eKnDxrv2ftphMzQNGRpDhsioq4Cey1u2b362D7tdNd998ocOHhw+bFiH9u0bN2qkoTaPPeY+dhZWS9wxfim4vmb5eQUFHuozkN2T9Sjijp8AhrYNfnXjU902RTyn0IHx//R0b2zVjAvQuXro8JomLdk9aaryvThk8OBG4eFLFi068vPP0Rcvxl+9qqF8t7DQGyDxxfWPuETdWj+NecPslc46/L7fgI2NWh4e8wYv/8Tf/4j/+ReFUs9fBKRcb1NuaiSKuZmZub3fwNzsxG7dUz/4YOasWTWCg/1Kl2YfBNmtQjbQeSCoQoWtW7cuWrhwzuzZgsiXz/7olk42i5Hb+JLVR1H7D4C4mZp2av0G/cDjjp9Yffe9MTv3lLi3GjssVqaGaKtv5f4cRhG3dWfU9h1uYuqpU6dGjhoFuOS2PXS0YvlyDZ04cSK3+80v/YD1Z3PnvtS37+CBAwWR9w8IMLNH4ouZZ5ziFyvpc+nnwxoVRC7fPd2D6IbVqKkqBEWvqpXObtrsJgPZsH694Us1LTVV+cbjuago5609FRnZKyLieRVR3L9vn/Oa3VYDEFMlOFhNFqZKfLFwjuNVxXx80mNiNO33vP4GnAIaoWC5NXFvnXTsN2uZPKvd9v33vrqgPTkpqWmzZrt37Tqe/bf3wAHn7fHN/r6YerF5O6+0EGmQ+OLIw/T0yfpYHbeztjdOOBsVvX5TAY1cbmZkZkRn/WNV1uNNjb1iLZBntTE6cCdyqVylyuqvvmreokVI9l/t2rVhOmmSbG7tgUKCL96l/diSWA/VVbWstIdmTnv6hx3lGzawHWLObt6cZxa6aqRCD+BSulaNR9aufHDyO5kJiYLp5qmfLni5HB09fMQINze7QJjHvlLZY5plGEhK9jd1Cwm+MB62JKR5Rl5+fiF/e+FGkulHkDWWxBw+kqOFrGRI09CZIsfJnLmakdkNl6ZH7oZ87qpYqUnjOr16lq1/v2st1PTlqmJyssFz8cmOOl3VRdHUA7gsXraM8NCaIiMjmzZtiosKD74wGHem9CtxFuaxaAkNCBNKVr6bvIWkXVU/Tf1wV6fuP/Tuq6cdrR9NiYm1SxvCxX1LATdkJBVND6R7eFSoUCEgp7+aNWuKX9uR+OIW84RF+9TenR2+Xh02anhmvB0/K2dtPRET1zpeQYF68vQNtG4ra6UHnPeAxBfnfeisBgIWzn05QnJWkWwvPeBmHpD44hYPBIhxCzukEdIDLvVAvuFLus0noy4dr1QmPSA9kHcecBZfHLY0PTXVrC2bhctbtv+2eOkvc+dxMFFYP5BmNnzJlx4oNB7IN3zxDTT9zgLOBWKOvPH2rxPfJ0NRkvSA9IDbekDz9StRPHXqFAbnG754+PiUur+OxbmDZ9kyECZKkh6QHnBnD/SKiNDTyd9/x+Z8wxcvL6/Axx+9kf0hP+zII7rztx3zqFPZTcH1gLTcNg/UCA5WE408s9davuELFtTr+0JmdK5/Y4UdFqc5vy9fAdGpJOkB6YE880B+4ot/aEjVV/tnxObwwVYbfQGOmO222Gf9NOYNyEv3o5Y2Kpdi0gO2e0B+EUHxVX7iC0Y0e+dt/5YPZURrf8qAKsACftn6dclQzIF4pEEVLWSAGMhCwOVVGckpLtcpFealB5hT6Xf25+3hERkZqeaJb/GpOTQpV66cmlOU83mKLzfTMzTX0pzCtF+2JGTMiMyERAKZG2nXBYEsXn6+j6xdGfri367/GkmVhjKvxKWrvsuLHv8HGnCZnZfP8tKPB4p5e5n16JqfKDfTLvm574EGDzyg6aRiUNDSJUvUzC9XrQqqUEHNIV+9Rg1SSXggZ3zJSLnG6kW0WHErYa9SvshkXrtGakasRsNr6QeHDnlq784Gk98JbNWs3AP1K3Xt3HDae523ba7UpLF/SEjLTV82++xTLS2Y23TGVGGY6C4ovOGNJINvzYpaF6aeFfwPjP/nxqe6nZ73H7OY6GZaWmCDMBd2qleVmZamZwpOseyjNZGXqcMeqFWrVo07/7UZn5Il9+7ePWjAgEMHD544ceL18eOXLVniV7q0uguaVK5USc0pyvksyChfo8YNk3/qrJiXZ3rslXVtO6xp0iL+8FHOOAydxTI7Oul9xLb2es6zXFlDGbY5JSoGeul+mEMIl7or6L7nn31s7mzCmVaTJtTp1VNIlq0WXK1dWzMSbUVa88lOmX9dFnnDFAMM+fYy8Unq+YtJkacZtVnbm6ngSwOzWpfwPc1/bYBbOfHxaGDOJX0VTSW8vcaMG3f6zp/R9A8IWL1qVaPw8NDQ0FnTp1NUOycuNvbZ558XXx1W84tsPgtfWMPe1auYLT8wheXEaQLrysJN1CKGABlSPTHp7+nypJ7vKg541HjZvOt/nDUcyI206y786QPGCJlZjgE+Ve+p2PBBMwGX8P3urWm2Hyzu67u938Dv+w2I/WE/j8+wu5spaYaxpKFwgWP66V5j/hUqrP7yS/VATp48eT46Ws3R51986aUHwsKSk5LUVQQsBCmQBlyQuZqc/Nrw4WQkCQ9k4Qu50GGvGP8sAHUeHqwlyCOnP2uZzOgrtZ/plpMOp+qJelpuWAWOgDKZCYlgCkSGYvmGDdosXsCpjVMd2NY4/cy5+0cM5e2nFr9544a6qMlbu04jLIqVWj9y02SLhDbCq5ide8gIYU2ahYBhdUBkDb8QFwGF5StXrli+XIwxNjZ22NChlYOCRNEs5SFu+f77kPvu00Qxenkil3NRUbt37Qow/zF9fSuHOUCeQg4ryYOGt/Dlvmd7ewX4M+1yqUsWeaW/9+ZCOpf0K2qDH32k83cbOxzcVXfcqIptHoUqR3Rvve2bdksXsQXLvJjrH7fhHJqRgnSKSSJzI+Wa2bEIKIB/Tq5Ze+1S9Kmv1xUv7SeaWKfV2rVjF2Ymg06zyIUmN1JSQga71z9XhFUupOrVq2dkZGgUEnE8HxHR/KGHHm7Zsm6dOpEnT3KeopHRF8GL77dv/+D991nPoAwgApSQh8hAMEkjnnvueGRk8xYt9BpczunVo0e37t0VoujtzdWWy/sxVpiZmWlcYcS9hS+8yppMn8pNjZGMs7wbadeL+fi0mjLJWUU2twfI6vd7ufXMGRCnOZWaNBZNi/lm/S63yLs8BZ0JlO7pE0GneuXWv/zGUc6RN95eU/P+y1u2W+CCWi272rueeQpgUjNtyWMnj4M3ii3CBVSGdR53xeBdUiU4+Ozp0yAL4QzgYuPvexPFjBg58o/Tpw8eODB1+vSBgwe/2K8f9MrQof+aOJGYJer8+U9mz65Zs2YeuAu8W7ZiBd0pRDGXui5XvrzGReX9/Hbu3KkeJpGguqjkxb+scAtf4PLm56YmIzoGOKDoKmIBeJct0/arlUCYq3TmmR6WYo6EuxgjfvMqX67FmqXAmaF5flWrGvIVJhBT4t5qNoKLaCUgGwNE0caU7VvW1ZvuhMLG5gVCrGOnTukmhgIrEJUEHU2bNdOsH/hmxKltw0aNhrz66qTJkwW9O2ECRbCMKrNWBZrfunVrTRjIkdPn8+ZxdybGlZiQ8MqgQYbbzJDQUGT+hy8UuKZpv21TmTr3Xv/jLLOWpQXTMaItqw4993Tv2nnbZgIKx/TY2IqdBRfGm5/to6dNEc/tn+BI6GR2eqqYBKCUrlWjcueO7MUeWbuy844tOFCp1WQCGoS5/PocyO6w/TsgCVdrujMs8kzTjvxef9okCzsNGxY4Ji95djTsXMwsp4rQo2u3bilGvwRu1qqo8bv36BGtCwNB5/qhod2efjqiZ8/Q2rW3bd0KR+0ZIJtDcR4BzDvwhTJA0OHr1RxYVOramfXDxAUj7CLe5MxjDlnrDBvc9dSxlu9PZhmgOVcpPTX1yrotVw8dNqB9B5LOnLGrdwzuun93z+NHehz7yYK67t6OrxggezG2YETRFr1Ub9vGw56Nq4UqdRW7pKd/2MEZE+c+EJ5X14q8wHqeS6mq9zy2byvWCn7hTtnRCIgRJyZEK4JAFo5OZn/6KaHHVf6Sk+EoVLh9Yu/oCM26dumCuzQN2Wbu27Nn544dIAs7TU0tt3Jjx40TTC2+CC6rhTi/8+YNT+3d+eSvB+2ijnv/y5ucQ9YHhw4pdVcO5/OiO5eknK3wJtdTMfPPibikXxuVlLor6J6/PQde2yhvuxhoyMPqcnBPw6mTAls1A0c07wOB9VkR1ncbebKGmjOSUzL+vEBbA/rzQnrirQva67FXzMS4m8u4Gm+oPL+YQExkZOT8BQtef+stQcQs327cyElK/wEDsKpFixbLly3TULXq1amSJDzwwYcfEsIQkoiikoIskFJUMqA5kNSzVy/BMcYXUcfEZVXwhrSXaCU0uEnK4nEHS5q9Pq5ExcA7QwytXda1WmlVGZ9zafXY3NkRF870jD4jXgnEj88mXxZYb4YsQkf9Ya9ytd/8iwV6gh82fJgQC5/wL4p6GcFpUrdEAAADjElEQVRpOmuaENOkV++MEQgWNAJKkSo10fD69etKrcjEx8fzhlSLUYyJMfgKG/IcfPZ54QWARhAxS/snnlCOSzhPYSVoSAT2tJWEB3Dg8ePHg+6+G4dTtCAwCJmX+vdfsWqVImaFL4qQ+2e8S5Y0M5KIJm7P/p1jx3/fb4BXVasPbltvcMz0284Hr59YtwZ72MjoW7GLIXZgW+p55+fN9ZI5cuhIvBIAnRyFhQDowwG/GVFrixjNhZg67d+/P4tfT8F3fvSeol4GDs3V2siv27ABvobWrF1LlaTc8EBISMiPBw/OmD6d2AQEIRU7TfZNEHmYEBhEbMitlnodFRZ8Ke1n8Wt4XM1cWLMuZuce1rbhA+Ao1696sGGVa5ks+O6HD4SMGgaUgDJslwhYSCneSElpOO09djppp86wwYGjp/S/TmWmaz/W4VoLXa6NYIGIQE/qWUinFPUycGhOrZpgGpJaxt3yaWlp3GexMhViQRKdaewkNINDlUKEZob/FiViFqT0IjJ0jQEa+diYGJQrHZHRCKiLPB1Cv+s3b3JDv3jZMjab3M1zQw+RB1bYh/50+DCxoboV+UKCL7yxKz7SCphgSIYEskCGVTC52anS5nEyeUOcTHX5eT/HJTVe/lvFNo+SNlsw95mjh9jgYABXeB0O7iLV05O/Hc86J0ZIUoHyQJOmTTnlYWUqRBEqcefn4h5v04bNiIb+s3Ch7WNFIWqVXkQGTrv27dVKwIvVa9dqOqLYvHlztZg+L3aUbDa5mxeX9OSBFbZRemEPD49Cgi+MrVaPZ9JP2HdPRCuIjQk3OzWf7EQ+z4hABjRpMn5s65kzSLkwBiJF71zhWRANhZhMC5AH2GJoTnlEUROdEZchqSGzpWs4fBQKzZoUnRp5OHqiuUbMyWLhwRfOCILHDGHTYa9H0s+cY2OiLG97m0t56QHpATMPFB58YYTNxK/hWf7gJmIKEblw0nHfxH8SSihMmZEekB5wlQcKFb6wq2y/bEnNQS8TxXBoCnyYuYkqZDivCf9sFqchZmKSX9A9IO3PXw8UKnwRruQ4o+PubXWGDS7m5Ul4or+FSTvyu1f5cve/ObbbwT0ychFOk6n0QG54oBDiC24qWy2YqISb4K6njj2ydqX49JdIKfZKutB19/b6/V6WZy74SpL0QO55oHDii+Ivbluyzn0ffST4NlGUsKL4R2akB3LVA/8PAAD//ykPedYAAAAGSURBVAMAVnlOgfdhufIAAAAASUVORK5CYII=;" vertex="1" parent="c-cJ_QU96Qvupv7S0T-8-157">
          <mxGeometry x="199.99912087912088" y="154.2" width="104.44747252747254" height="37.80219780219781" as="geometry" />
        </mxCell>
        <mxCell id="c-cJ_QU96Qvupv7S0T-8-164" style="edgeStyle=orthogonalEdgeStyle;rounded=0;orthogonalLoop=1;jettySize=auto;html=1;exitX=1;exitY=0.5;exitDx=0;exitDy=0;entryX=0;entryY=0.5;entryDx=0;entryDy=0;" edge="1" parent="c-cJ_QU96Qvupv7S0T-8-157" source="c-cJ_QU96Qvupv7S0T-8-165" target="c-cJ_QU96Qvupv7S0T-8-163">
          <mxGeometry relative="1" as="geometry" />
        </mxCell>
        <mxCell id="c-cJ_QU96Qvupv7S0T-8-165" value="&lt;font face=&quot;Helvetica&quot; style=&quot;font-size: 10px;&quot;&gt;URLs Collection&lt;/font&gt;" style="shape=datastore;whiteSpace=wrap;html=1;" vertex="1" parent="c-cJ_QU96Qvupv7S0T-8-157">
          <mxGeometry x="133.72527472527474" y="148.25" width="44.417582417582416" height="50" as="geometry" />
        </mxCell>
        <mxCell id="c-cJ_QU96Qvupv7S0T-8-166" style="edgeStyle=orthogonalEdgeStyle;rounded=0;orthogonalLoop=1;jettySize=auto;html=1;exitX=1;exitY=0.5;exitDx=0;exitDy=0;entryX=0;entryY=0.5;entryDx=0;entryDy=0;" edge="1" parent="c-cJ_QU96Qvupv7S0T-8-157" source="c-cJ_QU96Qvupv7S0T-8-159" target="c-cJ_QU96Qvupv7S0T-8-165">
          <mxGeometry relative="1" as="geometry" />
        </mxCell>
        <mxCell id="c-cJ_QU96Qvupv7S0T-8-167" style="edgeStyle=orthogonalEdgeStyle;rounded=0;orthogonalLoop=1;jettySize=auto;html=1;exitX=1;exitY=0.5;exitDx=0;exitDy=0;entryX=0;entryY=0.5;entryDx=0;entryDy=0;" edge="1" parent="c-cJ_QU96Qvupv7S0T-8-157" source="c-cJ_QU96Qvupv7S0T-8-169" target="c-cJ_QU96Qvupv7S0T-8-171">
          <mxGeometry relative="1" as="geometry" />
        </mxCell>
        <mxCell id="c-cJ_QU96Qvupv7S0T-8-168" style="edgeStyle=orthogonalEdgeStyle;rounded=0;orthogonalLoop=1;jettySize=auto;html=1;exitX=1;exitY=0.5;exitDx=0;exitDy=0;entryX=0;entryY=0.5;entryDx=0;entryDy=0;" edge="1" parent="c-cJ_QU96Qvupv7S0T-8-157" source="c-cJ_QU96Qvupv7S0T-8-169" target="c-cJ_QU96Qvupv7S0T-8-173">
          <mxGeometry relative="1" as="geometry" />
        </mxCell>
        <mxCell id="c-cJ_QU96Qvupv7S0T-8-169" value="&lt;font face=&quot;Helvetica&quot; style=&quot;font-size: 10px;&quot;&gt;CDX&amp;nbsp;&lt;/font&gt;&lt;div&gt;&lt;font face=&quot;Helvetica&quot; style=&quot;font-size: 10px;&quot;&gt;Files&lt;/font&gt;&lt;/div&gt;" style="shape=datastore;whiteSpace=wrap;html=1;fillColor=#fff2cc;strokeColor=#d6b656;" vertex="1" parent="c-cJ_QU96Qvupv7S0T-8-157">
          <mxGeometry x="322.73626373626377" y="148.25" width="44.417582417582416" height="50" as="geometry" />
        </mxCell>
        <mxCell id="c-cJ_QU96Qvupv7S0T-8-170" style="edgeStyle=orthogonalEdgeStyle;rounded=0;orthogonalLoop=1;jettySize=auto;html=1;exitX=1;exitY=0.5;exitDx=0;exitDy=0;entryX=0;entryY=0.5;entryDx=0;entryDy=0;" edge="1" parent="c-cJ_QU96Qvupv7S0T-8-157" source="c-cJ_QU96Qvupv7S0T-8-171" target="c-cJ_QU96Qvupv7S0T-8-175">
          <mxGeometry relative="1" as="geometry" />
        </mxCell>
        <mxCell id="c-cJ_QU96Qvupv7S0T-8-171" value="&lt;font style=&quot;font-size: 10px;&quot;&gt;Extract Metadata from CDX file&lt;/font&gt;" style="shape=process;whiteSpace=wrap;html=1;backgroundOutline=1;fillColor=#f8cecc;strokeColor=#b85450;" vertex="1" parent="c-cJ_QU96Qvupv7S0T-8-157">
          <mxGeometry x="407.79120879120876" y="100" width="85.05494505494505" height="50" as="geometry" />
        </mxCell>
        <mxCell id="c-cJ_QU96Qvupv7S0T-8-172" style="edgeStyle=orthogonalEdgeStyle;rounded=0;orthogonalLoop=1;jettySize=auto;html=1;exitX=1;exitY=0.5;exitDx=0;exitDy=0;entryX=0;entryY=0.5;entryDx=0;entryDy=0;" edge="1" parent="c-cJ_QU96Qvupv7S0T-8-157" source="c-cJ_QU96Qvupv7S0T-8-173" target="c-cJ_QU96Qvupv7S0T-8-175">
          <mxGeometry relative="1" as="geometry" />
        </mxCell>
        <mxCell id="c-cJ_QU96Qvupv7S0T-8-173" value="&lt;span style=&quot;font-size: 10px;&quot;&gt;Extract Text using GNews&lt;/span&gt;" style="shape=process;whiteSpace=wrap;html=1;backgroundOutline=1;fillColor=#f8cecc;strokeColor=#b85450;" vertex="1" parent="c-cJ_QU96Qvupv7S0T-8-157">
          <mxGeometry x="407.79120879120876" y="192" width="85.05494505494505" height="48" as="geometry" />
        </mxCell>
        <mxCell id="c-cJ_QU96Qvupv7S0T-8-174" style="edgeStyle=orthogonalEdgeStyle;rounded=0;orthogonalLoop=1;jettySize=auto;html=1;exitX=1;exitY=0.5;exitDx=0;exitDy=0;entryX=-0.002;entryY=0.238;entryDx=0;entryDy=0;entryPerimeter=0;" edge="1" parent="c-cJ_QU96Qvupv7S0T-8-157" source="c-cJ_QU96Qvupv7S0T-8-175" target="c-cJ_QU96Qvupv7S0T-8-179">
          <mxGeometry relative="1" as="geometry" />
        </mxCell>
        <mxCell id="c-cJ_QU96Qvupv7S0T-8-175" value="&lt;font style=&quot;font-size: 10px;&quot;&gt;Merge Metadata and Content&lt;/font&gt;" style="shape=process;whiteSpace=wrap;html=1;backgroundOutline=1;fillColor=#f8cecc;strokeColor=#b85450;" vertex="1" parent="c-cJ_QU96Qvupv7S0T-8-157">
          <mxGeometry x="543.676857395478" y="145" width="85.05494505494505" height="47" as="geometry" />
        </mxCell>
        <mxCell id="c-cJ_QU96Qvupv7S0T-8-176" value="" style="group" vertex="1" connectable="0" parent="c-cJ_QU96Qvupv7S0T-8-157">
          <mxGeometry x="652.0879120879123" y="142.25" width="94.50549450549453" height="62" as="geometry" />
        </mxCell>
        <mxCell id="c-cJ_QU96Qvupv7S0T-8-177" value="" style="shape=document;whiteSpace=wrap;html=1;boundedLbl=1;strokeWidth=2;" vertex="1" parent="c-cJ_QU96Qvupv7S0T-8-176">
          <mxGeometry x="13.388278388278389" width="79.54212454212454" height="46.5" as="geometry" />
        </mxCell>
        <mxCell id="c-cJ_QU96Qvupv7S0T-8-178" value="" style="shape=document;whiteSpace=wrap;html=1;boundedLbl=1;fillColor=default;strokeWidth=2;" vertex="1" parent="c-cJ_QU96Qvupv7S0T-8-176">
          <mxGeometry x="7.087912087912089" y="7.75" width="79.54212454212454" height="46.5" as="geometry" />
        </mxCell>
        <mxCell id="c-cJ_QU96Qvupv7S0T-8-179" value="&lt;font style=&quot;font-size: 10px;&quot;&gt;Files with mementos&lt;/font&gt;" style="shape=document;whiteSpace=wrap;html=1;boundedLbl=1;fillColor=default;strokeWidth=2;" vertex="1" parent="c-cJ_QU96Qvupv7S0T-8-176">
          <mxGeometry y="15.5" width="79.54212454212454" height="46.5" as="geometry" />
        </mxCell>
        <mxCell id="c-cJ_QU96Qvupv7S0T-8-180" value="&lt;span style=&quot;font-size: 10px;&quot;&gt;Dataset&lt;/span&gt;" style="shape=datastore;whiteSpace=wrap;html=1;fillColor=#dae8fc;strokeColor=#6c8ebf;" vertex="1" parent="c-cJ_QU96Qvupv7S0T-8-157">
          <mxGeometry x="776.3626373626375" y="140.5" width="44.417582417582416" height="50" as="geometry" />
        </mxCell>
        <mxCell id="c-cJ_QU96Qvupv7S0T-8-181" value="&lt;span style=&quot;&quot;&gt;&lt;font style=&quot;font-size: 10px;&quot;&gt;Metadata + Content&lt;/font&gt;&lt;/span&gt;&lt;div&gt;&lt;span style=&quot;&quot;&gt;&lt;font style=&quot;font-size: 10px;&quot;&gt;(One file per URL)&lt;/font&gt;&lt;/span&gt;&lt;/div&gt;" style="dashed=0;outlineConnect=0;html=1;align=center;labelPosition=center;verticalLabelPosition=bottom;verticalAlign=top;shape=mxgraph.weblogos.json_2;labelBackgroundColor=light-dark(#99CCFF,#EDEDED);" vertex="1" parent="c-cJ_QU96Qvupv7S0T-8-157">
          <mxGeometry x="769.2747252747253" y="198.25" width="58.5934065934066" height="17" as="geometry" />
        </mxCell>
        <mxCell id="c-cJ_QU96Qvupv7S0T-8-182" style="edgeStyle=orthogonalEdgeStyle;rounded=0;orthogonalLoop=1;jettySize=auto;html=1;exitX=1;exitY=0.5;exitDx=0;exitDy=0;entryX=0;entryY=0.5;entryDx=0;entryDy=0;" edge="1" parent="c-cJ_QU96Qvupv7S0T-8-157" source="c-cJ_QU96Qvupv7S0T-8-177" target="c-cJ_QU96Qvupv7S0T-8-180">
          <mxGeometry relative="1" as="geometry" />
        </mxCell>
        <mxCell id="c-cJ_QU96Qvupv7S0T-8-183" value="&lt;font style=&quot;font-size: 11px;&quot;&gt;---&lt;/font&gt;&lt;div&gt;&lt;font style=&quot;font-size: 11px;&quot;&gt;Memento 1 (warc-date, Content-length, Title, Text)&lt;/font&gt;&lt;/div&gt;&lt;div&gt;&lt;font style=&quot;font-size: 11px;&quot;&gt;---&lt;/font&gt;&lt;div&gt;&lt;font style=&quot;font-size: 11px;&quot;&gt;Memento 2 (warc-date, Content-length, Title, Text)&lt;/font&gt;&lt;/div&gt;&lt;/div&gt;" style="rounded=0;whiteSpace=wrap;html=1;align=left;" vertex="1" parent="c-cJ_QU96Qvupv7S0T-8-157">
          <mxGeometry x="615.7032967032968" y="38" width="178.14285714285717" height="82" as="geometry" />
        </mxCell>
        <mxCell id="c-cJ_QU96Qvupv7S0T-8-184" value="" style="shape=curlyBracket;whiteSpace=wrap;html=1;rounded=1;flipH=1;labelPosition=right;verticalLabelPosition=middle;align=left;verticalAlign=middle;rotation=-90;" vertex="1" parent="c-cJ_QU96Qvupv7S0T-8-157">
          <mxGeometry x="694.2657142857144" y="90.88" width="21.027472527472533" height="81.5" as="geometry" />
        </mxCell>
        <mxCell id="c-cJ_QU96Qvupv7S0T-8-185" value="&lt;font style=&quot;font-size: 11px;&quot;&gt;Example of data&lt;/font&gt;" style="text;strokeColor=none;fillColor=none;html=1;fontSize=10;fontStyle=0;verticalAlign=middle;align=center;fontColor=default;" vertex="1" parent="c-cJ_QU96Qvupv7S0T-8-157">
          <mxGeometry x="657.521978021978" y="8" width="94.50549450549453" height="40" as="geometry" />
        </mxCell>
        <mxCell id="c-cJ_QU96Qvupv7S0T-8-186" value="Stage 2: Filtering and Assessment of Change Importance" style="swimlane;startSize=20;horizontal=1;containerType=tree;newEdgeStyle={&quot;edgeStyle&quot;:&quot;elbowEdgeStyle&quot;,&quot;startArrow&quot;:&quot;none&quot;,&quot;endArrow&quot;:&quot;none&quot;};" vertex="1" parent="c-cJ_QU96Qvupv7S0T-8-156">
          <mxGeometry y="278" width="860" height="410" as="geometry">
            <mxRectangle x="1020" y="640" width="90" height="30" as="alternateBounds" />
          </mxGeometry>
        </mxCell>
        <mxCell id="c-cJ_QU96Qvupv7S0T-8-187" style="edgeStyle=orthogonalEdgeStyle;rounded=0;orthogonalLoop=1;jettySize=auto;html=1;exitX=1;exitY=0.5;exitDx=0;exitDy=0;entryX=0;entryY=0.5;entryDx=0;entryDy=0;" edge="1" parent="c-cJ_QU96Qvupv7S0T-8-186" source="c-cJ_QU96Qvupv7S0T-8-188" target="c-cJ_QU96Qvupv7S0T-8-189">
          <mxGeometry relative="1" as="geometry" />
        </mxCell>
        <mxCell id="c-cJ_QU96Qvupv7S0T-8-188" value="&lt;span style=&quot;font-size: 10px;&quot;&gt;Dataset&lt;/span&gt;" style="shape=datastore;whiteSpace=wrap;html=1;fillColor=#dae8fc;strokeColor=#6c8ebf;" vertex="1" parent="c-cJ_QU96Qvupv7S0T-8-186">
          <mxGeometry x="37.80219780219781" y="66" width="44.417582417582416" height="50" as="geometry" />
        </mxCell>
        <mxCell id="c-cJ_QU96Qvupv7S0T-8-189" value="&lt;font style=&quot;font-size: 10px;&quot;&gt;Lexical Comparison and filter&lt;/font&gt;" style="shape=process;whiteSpace=wrap;html=1;backgroundOutline=1;fillColor=#f5f5f5;strokeColor=#666666;fontColor=#333333;" vertex="1" parent="c-cJ_QU96Qvupv7S0T-8-186">
          <mxGeometry x="120.02197802197803" y="67.5" width="85.05494505494505" height="47" as="geometry" />
        </mxCell>
        <mxCell id="c-cJ_QU96Qvupv7S0T-8-190" value="&lt;span style=&quot;font-size: 10px;&quot;&gt;Filtered Data&lt;/span&gt;" style="dashed=0;outlineConnect=0;html=1;align=center;labelPosition=center;verticalLabelPosition=bottom;verticalAlign=top;shape=mxgraph.weblogos.json_2;labelBackgroundColor=#FFE6CC;" vertex="1" parent="c-cJ_QU96Qvupv7S0T-8-186">
          <mxGeometry x="236.2637362637363" y="131.25" width="58.5934065934066" height="17" as="geometry" />
        </mxCell>
        <mxCell id="c-cJ_QU96Qvupv7S0T-8-191" value="&lt;span style=&quot;font-size: 10px;&quot;&gt;Aligned Dataset&lt;/span&gt;" style="shape=datastore;whiteSpace=wrap;html=1;fillColor=#e1d5e7;strokeColor=#9673a6;" vertex="1" parent="c-cJ_QU96Qvupv7S0T-8-186">
          <mxGeometry x="243.35164835164838" y="66" width="44.417582417582416" height="50" as="geometry" />
        </mxCell>
        <mxCell id="c-cJ_QU96Qvupv7S0T-8-192" style="edgeStyle=orthogonalEdgeStyle;rounded=0;orthogonalLoop=1;jettySize=auto;html=1;exitX=1;exitY=0.5;exitDx=0;exitDy=0;entryX=0;entryY=0.5;entryDx=0;entryDy=0;" edge="1" parent="c-cJ_QU96Qvupv7S0T-8-186" source="c-cJ_QU96Qvupv7S0T-8-189" target="c-cJ_QU96Qvupv7S0T-8-191">
          <mxGeometry relative="1" as="geometry">
            <mxPoint x="217.3657875457873" y="92.5" as="sourcePoint" />
          </mxGeometry>
        </mxCell>
        <mxCell id="c-cJ_QU96Qvupv7S0T-8-193" value="&lt;span style=&quot;&quot;&gt;&lt;font style=&quot;font-size: 10px;&quot;&gt;Metadata + Content&lt;/font&gt;&lt;/span&gt;&lt;div&gt;&lt;span style=&quot;&quot;&gt;&lt;font style=&quot;font-size: 10px;&quot;&gt;(One file per URL)&lt;/font&gt;&lt;/span&gt;&lt;/div&gt;" style="dashed=0;outlineConnect=0;html=1;align=center;labelPosition=center;verticalLabelPosition=bottom;verticalAlign=top;shape=mxgraph.weblogos.json_2;labelBackgroundColor=light-dark(#99CCFF,#EDEDED);" vertex="1" parent="c-cJ_QU96Qvupv7S0T-8-186">
          <mxGeometry x="30.714285714285715" y="122" width="58.5934065934066" height="17" as="geometry" />
        </mxCell>
        <mxCell id="c-cJ_QU96Qvupv7S0T-8-194" value="LLM for Analysis&#xa;on the importance of&#xa;changes by consecutive &#xa;mementos" style="shape=image;verticalLabelPosition=bottom;labelBackgroundColor=default;verticalAlign=top;aspect=fixed;imageAspect=0;image=data:image/png,iVBORw0KGgoAAAANSUhEUgAAAOEAAADhCAIAAACx0UUtAAAQAElEQVR4Aex9B6BmRXX/mXrb117fvixt6b33joCAgIqighprTEzUFGNiN0aNGo1dNGIHBQWlSu+997JsL69+/bZp/3PfA8Jf3jOueSslO54339y5M2fOnPObM2fmLgnt/+2XNtNmDbyUNUBhc9qsgZe2BjZj9KVtn83SAWzG6GYUvNQ1sBmjL3ULbZZvM0Y3Y+ClroE/FqMv9Xlslu+Vq4HNGH3l2vaVMrPNGH2lWPKVO4/NGH3l2vaVMrPNGH2lWPKVO4/NGH3l2vaVMrPZxugrRS+b5/HS0cBmjL50bLFZkuk1sBmj0+tlc+1LRwObMfrSscVmSabXwGaMTq+XzbUvHQ1sxuhLxxabJZleAy8WRqeXZnPtZg28UAObMfpCnWyueWlpYDNGX1r22CzNCzWwGaMv1MnmmpeWBjZj9KVlj83SvFADmzH6Qp1srnlpaeCljtE/WVvCAHVgCShaEBbwESuV1oo4JWgmSEKssgbrA8KZZx3Lle1muq10x7qEQoYUEOtPkiCG04II1UiA3SaJEMfAcfcMRcClJc45jeN6LPVZi9sxm3ZVZsBJxgVQMDY3OmOQhwLFw5YonpucKnXAbEGTT5uzQgOvWIwWk5vur1Yql5j0cusnJtKkQCeh2lkeO5lR30qP+Jz5wGROecY4ZYIQ5hxx2plU625u2plqJibObJJDpqlxFAhjTAghpXSC5c4knW4y0bT1ThSbuc7fyu8JwhAXAi4JbQ0iGLtQ6yDXZDohN9c9XwP0+Q+vpDJ6JpwOQbc0SVjAR6ycaDbSdldkBUAjS7kFBTahVjLhcym55JQDEOPAEeIIXQnJWpYPC1P3SacksoqveyLXW84jnkas5btxodaTZK3rrDbNVaqeodcWtFKKBmu1wVK5QhjpJunYBBWcUuoAEKAAQBH4Fpi2WIWOkzggWLuZptPAKxajbtLmmCEIkLCA08dKJzmLfD8IOOdKqW6axEalHNbF7bE8TQm6RC4t81In2zpoqlIzj+pZaSKNxuLScDfY0A7XtZD6GklvI+lvZX2dvD/RPampZbaiHFeGZspkWZ6lqc67zCQ+SUo8ixNjDOVsCqwoEgfiU44FAgVAsYAECGKCywN/N9MzGnjFYnRqfuiinqOpGhJ6OSdNl7dsngpCy4FXifxS1L94brm/Sp3NJxpm/VhlPN5W+/sGgx+dt9+nlxzypR1edfZ+rz/vmHdc9toPXveWf77lbZ+46o0fvvS0D17wqvecc+CbvrLzqz+9xaH/NLj3h2q7znd8jqU9yvpKGZ12IR0T6YSXqk4MCsNZDEgFsELtlFJPyN8Tb0rIzfnzNVAo6/nPr5iyRe8EgJ6JTe71WMCpYaVOszhN2nkacwc+xppEN7vx6uHWg0+wNaNbGHHo0JI373bgh444+V9fc+YXT3r7O/Y+7C27HnDq0t2PWbDtAT3zdhaVrY1YpGAb5+3My/tWh46Yu/Up2+x55m6HvHv/Y//q4Fd/+sS3/s1hJ522dM+9y3MWG9mb2GruImBlKn1HibEGEzhLCT5ZcCgeyoZEcLt3KGNxzkM5i9Lmv0kNvFIwOjmZ52eT5i72UGaLYzKZfOcAegzv90s9tRr3vTRNs4lW0MjmpuyMvqXv23b/jx/ymn89+oy/3++E1229+y68MpSo0JdIvi+4x5wkRoKSkAvokkkCyAkY6hwjwAjjdFcon9i39O/3OO4/T3jXf578jn/Y7ZiT/EW7DsOSwXkVL1Bx2u3isUs7TnOw7SxBaFJXyIk5bE7TaeAVi9HpJlvU0VYSahJyCdqk3RiheuROe/71yW/82GGnvHeng4/uWbSt5b3drNpOeyivcOGbvCCrfFeQV0AUUap8AKQIAKkMpGKhaknVwFBO+2Lb09JzO3Yf0nvWVvv829FvPufMv1s8NLcsA4VevNtVGs9K6FItRsOboVlY5Q/+vewx6gCmpYbUEywfI6kuC+2Reruh06Tm+xOLgwnX5KvWHdYgX9zqoAuOfsu/73XU6eW5vT290vctgCHAAo+FPh6w0L9lQDPKcsoywjMiMhA5iBTEM+7ZAjHoS/F2wEJmkIywJgBTpiYCw610dsCRLZ38xeKjr9j3rK/uc8oxfUuiJLdpLCQNQ2/Mg6wSQClUYHWWM2fxNOdxBhudUI5paFrlYOVGs3/xOrzsMYqb+LS0Na+4kUZvqWw9tiFrleb2lft70jSRT6yf34Kjl+z89qNPPmGvA+d5ZZnoARagCZ6viwKgiH4CHmEeMOmo54jnwJ+kEEDTZ8gwMJJqjyqfqmBGbKUOiDVHbLXjZ05489/vc9zSRJgVG2Smerww63bqrbqWjPWUtKDdJM7jBOWZFZpWOVg5K8z/PEzon2eYP/8odOXY0t65w+vXN0zau3h+J01sN2XN5DUD2799x0Petudhhw5suUREc72oRj2SZlOKwOjwOVGnYKop0aRwruhftTNKK7xVyrKsq9PYZLHNE9ApuBxITijSc91/r2AjkIL1NdWeyvvrbfb97DFnvHHn/RcobofHfGU8T2gJMdU5BUoR/vb3uv9ffpwyzctYAxjPTU8UkjwZmDuYtep5tzMHj0irxs7Yft+/PeLkM3Y5aEcfXRaw1FBChGDaGkQnEioCuWHuoAgh8Hxdt3nT5E2r2k4nBHLOjBTWk1XmV5hXoTJ0XDrCnCMOv4HOiK3MudAnfiignkZtc2Dv/Hfuc9R79z92G1kesjLQjlhrGQFOmfSCAKNclGIWCKczLc0C6z8Xi5c9RmdSVNzrizk9eCipBVV/bXNR3X3utHeetd2BS0u9kXEE0YlTl8w6k4Hiof+cIacYWvLMHdAAkX1U9hJRA14GFjkaOhrg69hB10HsaOJE6rwUwpQgTXV/YR6YyToBMOCn6DI78ULrvX7hrn9xyKv2G1rY09F+O400cECxgPwp8egk/1diVmjkZT0vdH7T0kTkVo6t6wHWs779qv6tPvnqNx9cW7idF4IBDkRIhuchxIPhzlJqARCjBIo6gAKdmONejwRtC51J6lpASixMUUgAKSDgE5CTJAggYc/pyKckSbKxpNsmYDwWRH7ZkoqFYwaXnrX3YafttNcS7dP1jSB3+NG/lWXT8fhT6qZVDlb+KbxepD70RRp3kw/bbI5Xw1I0kZ6yxW5/f9ipe5UG+gVPOhhPKsQnhnxZniVJlwMVALmOUaDnW65AJwBiN6/QrEy7Zdoq0XqJjkV0OKIbIrqcuJXErSawjsIogwkGTQ4tjmymp6Tb8T3RE0bCapslzBhPciDQl+d7+ANv2uWQk7bZffugv5Q5k6sUV9L0bP4v1r7sMUodTEteby0eGXvVrnu/95BTtuUhRXQaYFURSBHjybmTeBj2+QFxwJ2rcB8LaP+pHAtIFv8AbjET18brfzv+5I+W3/nle6/46PXn/e1l33/vRd/8zIXf//fLfvKd63/9i3uuvfLp++8aW/lEPL5SdyY7TZN55YBSYMb6lpaZ5wPJVNrOu1JT3omHQJ66+2HH732Ab8joyDj15TQs/qSqaZWDlX8Ssxen08seo8OBTqnmuaLappI0JUmd8zVd8lD7Ewe97m92Pm4BgGfAC8QEJKtMhxEVBTwIGV4FKavjLHMEPWnh0vCm0+VOGRgBfX13/ReeuvGsW3722vO/8abffu9915z3L3df8ZXld/6o/tRF+YbLSP23dOJcvf6bnSc/tf7O9z98xVtvOu91l33/lF9/819X3XtBc/0qRxlSl0LLZTnEhHYTlSirKDUcCRynGPGquAuSm8Tx8XgroK9dtMubdtjjgEqtd3y8Q03X6VTleZKaVkywYqTF1zejeszHWnrDeHvDSH1stNFuNFXcJnnDdFKhXUlAyc8l7RKLlHLmfAGCOYvXt0pq5xNGHWRpivkUIe4cPHNAxDAbH19q9LLHKOq97Id4Ik6Mkp5XEiJQpteKMw88ar95W1dR+6kBPCEZ6AU5h4UTOompQfzgdyaRQ+gEUQ40pAyaEu4n7R8+dcc/X/zjj5/3/fNvvOaJVasIXgXhCYbhD2Vs8qcoPqM39LtIU0ZFAyP910Xnf+bc733w/G9/5o4rf9ddua5KnEc9gDJBp82FBUgylRTXn1TIqKdHUQj6IoxK8nY2BOyN2x/8tj2O2NPWXm0HThHz31Tb9r2L9vqnnY/87MGnfvXYt3zrpL/43CGv/dJRb/zP48782rFv+eyBp3xw6cFn9m53Cpu3ZNQs3JAPjaa9zbyWk7KlEihYA87FWdq1ykUeVEMlqHYWZwIvn/SMrl8+Av++pBF+9iFUc2oDxhnh7WSe5gfM2+KMHQ/cRdYCBy5TzjnsJoGVNM0EdyApMFAAGoBzRGnL6hvGVn/7vus+dsVPv3DPZVdkq1cPilavN05yJjibTGTyVzAmGJeMIxyR5xRRHIWAI4CV/lbzxgaDq+yGr6y87RP3XPqtB665Y2JdE9txwK9QtpMy7vlecbWUga0nXbyY1RQohwAofmuaB3DSgp0+csgpnz3q9Z85/LSPHnjiB/c86r077X/WljudPm+r1wwuev2C7U6ft/T1c5eePn/7s5bs9pfb7/93exzxkf2O+9mZf/e5o9/4pkW77Q3VRU3b39Z9KfRpytIcP1zJQLapGsnwU0FXCcc9Di+fRF8+ok4vaRW8pJsaQf1ypNvdsJnu2bvg5B33WmilnzqbKMALJvz8g0ZBpFqoQugBdbktcFGSHQH3tEYvWfXIl2+6+IIn73kwGa/7NIm8pOR1a0EyWAFGkdDxTAK1yDiljFAymSgQJEKIo8RSojhpU+d6I7lgsFmTd7c3nPvI7d+884qv3nn53Z2RlV7erfo5K5YMAeoBrwQRPsRJro1jgQDt4tF2VdO9F2053w/nen6/FL2chgD46ZVo9Pc4DjCCj5plaaB1rye3KPduVRvYhZSPmrPte/Z91SdPfttnXvv29+53zKGl+VuOGzkRVxQJCAfriORRtcI4rzcb8PJJ9OUj6vSSSsqzPNfEqSyTrXj33nkn7LTHHrUhmhujcuAUApExkhFjmQaiQwOkrVSmtUdGCFw1sfLb993w+VsvvqmzZiWJeTnsD8slTZJme6zTHMvbQAiSm8QkBTJFHIgjgIQyoRMl+AOA7hBpvNnoTrRZK+8Dr1aqtHx2XWftd1be+U/X/vzSxtPrAVqU1JOO1Y47BJ+gcYo3V4QBcHABob1hImxCoBu3unE7TrtpnmYal5SxAoq7LaotUZQ7LxC+zxm1xiXGxlSpArVKzwe2h9d76pa7fWD/Yz957BvedeSJW7MyrBzpjW2PYfHYRJrE8xbOnxT55ZHRl4eYM0vpCKWeyJTS9fYSr3bybvscMn/ryAGETIYelwyLGeicaMuY4QglYIGwZbkM1C+X3/ft23530coHH2WJmDeQMDI2Xk8nOhXiL6gM9IRVcAwDOksAvd0UoTd6hiZRyxC1pEiIY4yJDSdzh+b1hdUgs7KlR8ojZgAAEABJREFUaKKtoM2yHOsVt3TWf+vai79z64WPjq0JSyVKiUlV0u5EfuB7Ej1zBoBRKgqpqO2aZMCr9HnlHhGVmB9QyR2jBkDbrNN1aU4R4pZIS0PLIyfKIDVeTzBHwQpnywDzHNu53HfQnEXHzt/u4yef+Y9HnbZVm9hHVy1gwdxqbWxkw8wafcm9edljtGNyFnhW6yqRh2yz4wGLti0BcKWAAjonxKQHIPJcovnA5gY9K6QcHkoa5z9yx0/vu+nm9U93AtazcB7uhlEUyVo5Dhmeq9pxt6TIQlExDh1VQfbZBMYS6/DwA5OJ4iIAQBwbAkhjE+PdLCXSI740xOWZwi+tHogttlwyPj5+3933r1+9xmJnVzT2yyUgBReE3xQblcWRIf00AHxGKl4Clp2xVltlrFfCmyuMXRkgE41cAHBsR4UUSFJwQpwxZqorIbAjD5bE7MR5O37z7R/69OvfuRDC+qr1QVD8G5op3i/9nL70RfzDEsY6d4yjb5vb07PPNjv2YHjaaFIu0Pa4Txo8k6S5p5xHsBHkeR4zuH9sw/m3XX/+7dc/0RwO5vRXempZJ5VdrTLVBD3hQcMnGbjifDOMX5mcnUpYYwt0okPFiimpJgGG4e3UUwE7Kj3tsbYHLQ9SyRljJcv6Mzr82Io9t9ruzJNfe+BuewWodQLMFzlAJ+4gshFvyEoCqYlQGA4YjTDIOSgGGYOEQyJp6rHc423sQqBDScJZJrkWXHNmGGXo8wGTdUAMc22dNnXeBSsbMED4YuEt0vzA+Uvf+urTjj74UM45Nn25EGrr5SGqpsYRdDeofyNsQcwV5fo8l+WdPUfhP/c47Wg5h7cz7bg2kKJ9I66EyZwREW7+1AAPwtqNuvvVW666eO0TnYV97f7SKKhMsNigORV6nQoVfZaXNaHOZZJ0KlwguCnjlDFCMTlKpogEgRFSUaYcsYZwRfwEoo5bmEI1Q7h3G7rToblgUO6k5bUTPzz8jE/vffxrFu7YTwp8aGuNMgygFJYwHBEAEnBZEYxocwl5RQhnpcPIM3NJl3Y7QZyEqYpyW86hlLswN0xrFJIAsEnq5ipWKrfWARHAy8KvCBkSCiVjuNZOUZPOT9Ljs/Crc/a976B3bEMlGR8zcbMv8iuMQRwbozKfCAPMggNASaYIy/CippcNRrnFc8ozHgs3NyTUHRLkRHbSvbffuRaFCAgpZVSOjLMAuCHrSPoBE6CglWk8yj7Zalx6501Pja7rWKUJ3qMztAd+CRXIDjYu0W5u2jEerdI4Qc+KV7N+FCLVfZMJUpLeoJG9Y/GCun79dvt+4x0fXtA70BuW+CSenANrLfbCLLEusSY3GIdYZ/CFwVMQUnFLAOhKmfaljvw8kNbngJdmgjrJrBTAhSFUWZvkKk1zX3BOwGmj8zS3ubIY7uZ4Mwq4sCgFSiZ/i0xQhulfT3jrG3Y9uGrZmrVr23kaVMu+57luSibVgPlUDDOVT9a9aNnLBqPCAnPoaYolbgggIa6Qai290AVH77b3UBBhA8YI5YCuDrXsE1l4A8ezJNOSPdYZ+82jd1+77MG1Ls58lltDgQhHWG5CxPFGmoAkaZmLwd6evr4eGoq2ike79eH2eJPp3Cg63lrYcWdtu+9XXvfuv93tmB2V3Ko2Z0CW0FmCcUYjGMESLFrGnWCEM+BguNPcAXcEiaaWK/DwKpOI4iVhGkgOkKZaTV74MgAPwMdjk2a+olRbyYQvC5KUWJ1yakOPAyGEUQQln0yCFT+S8YOg9Je7H/32g47btn8ONdoaA9Yyg2v79xVB4BnX8Psv/lzP9M810P92HFzQhc+DwrQOHQZ5huGCDjlo3lY7VeeXsMLhwRc3O2CcuMlHiFMEtaYkI+SGlY9f9Pg94xEhQzVb9hOdU+t8R4WBiOJmix02grgU6OoSq1t5gpQ4jVgTUSBaMX6uPKB3IR6lP7jfiXvIvmqshpjAW3sfAAMWh1BgTMoCKzgeA4w5cdO3jBIACply7cTUO5AalxmTG63R7eIkAOGDhIEphtQxQOIgNpBpq7VBIlyqNO82O+g8iSO+8ARhJMUvvUVfIAQ9qWAFQhGmEkOYNc0tgb9p4d5/ue+rDh1YIic6nUbT66kQVyAStT1VwByFfHHpZYNRVBNC0xCwFLCAj6hHdK5bQ3jMtruX0fD43cgB3nxaAAQosfhLNToG52xJ3jq64sonH1jm2nlJIkA1BZMrSVjIJfKxGMAix42hlNmOy5s66drcEicIEbnh7XS3NHjfvkf98zFvOKR/cdjulJQLAmGcARQHM20opYQWT4hJRABLNCSZwnt8zI2xgQ+1CPorYzU5XBaP8vi6+opfPHn3d+697iu3XPbFG37777de8h93XvGtB6//yYp7L28sv502H6+QNT1endAsCHm1xkJcDgSxDkkOqtACjowEAAQIJ5TTgmitzDMYcnByzzbv2u7gg3sXoajKoqfGZjCVUDwsoH6mClh+Uehlg9FiZ5wEaAFTANQat4AucK+5W+wysBjaqc00WIfNHDicFTWk24l5LRxjehjg/FuveXh8LR3qaWVxM+7kGR6XiU+5ZNxa20rRMcFGpa5OQZDI99A7ynZSa6sdefWIoa3+44z3HDuwzUBHDxHeE5WMVV0Va0ZwXzdKF+Kx4uiHY6GQHAgISXyfhpEKow0evS9vXNVY99vhFWdd+t03X/T1t//qW+//3Y//+dYLP//gVV9/+taz197zrVV3f+WpW//twWs+cttv3n/lz9752++feeE33/Tbb519382XbFj2GKgRgBZhue+BlBBEFq8jwKFOzGSOGXFAsbZEMbZgnXwgtof1Lnz73kcducX2ZM0EIhJlwzYEfwDlA0xTlVh4UYi+KKP+CYMqCpoB5ohR7M4cSFP8g6b9tt+lDBBwTonD5IeeLZyUAQzaKIkJrCfppU/c9dDoOh164MsCx2mOfXF/Z8YpTGDzogty3QgKKMdA1rbioJVvQ8onLNjpA/ud8G+HnbGdrO3UOzQvKtk012ksAukjVsAgRAwjmhN09wYKT49/1LhOnjatWQ/mIde6fHjZ1+674YOX/OQtP/vaffnEQ7b1lMjWRoA+tdEftgdKnb4oLsm07CUVDwv1iI1Iu5bmK1389Udv+5crf/W353//q3dddVNr3QjQlhAN3CycwZVrHK5E6yYT4g/n2VI5yiPLRYTMc9hnYMEZ2+3/mv5t8RU2QFAiIUyLHHclrH3x6GWDUdziEZ2oruc2evSj3MC2c5ZkRgWBBMYcdRQoA5ejAbQOoiADaFp9yS3Xyb5Kpb83TrOeUiWSPlLAJVowTVONYJF8Y00QEE6SPMjdbvO3fNOhx73z0BOPHFqyKMdDDAAeqrVGLwuC5VlCnPUALKf4CJQqXBLOKFMEkeCcDv1l9dGL77r56xf94utXXnjxioeX9wi357accMFkKIJIhhH3AxB4hMIgtd+IAfCGaDDEwwHqVw3zM8u7+YahaF2fd79p/eK+W79ywc+/+7tf3bXuaeX5iE39LECxjEsUgYrjRkJqANw+dEhTpyDR+/Qt/uBhpyAu4SWWXjSMItqmVEEdIOF5CEkYsCWPhT6heJ2X0iwLKBHM5qqbJG2nUp8BEC17g9QkrQ3rX7XjbvOM6SuOIsYI5wgQY5ghHsU7J9/GOZrhlscffTLvrnKJkjSkhLdSz4DWuqXSXBASSM65z4VniceFiAIo+cpDHo4Y6+Plp5GBCys2KGXCS3EkMIxmgsKyNfuL3r/f6bDP7HzMm2vb7JBz3FYpeqVOxjQwxsFRY62jjBCcH2mSwldHhlRSWs4Zs2yVTh721T89fdtHn7rli2vu/k139Uov9wIxqN2csXaMo1CqgWIATvFAhQScUoE39oqQ3LpUm9TahJHE50nJW9ToDOR5FLJ0bvhoP/w8WfGBWy487rwv39Ua7VABTPDYiQwoZ3VmRhlNnKHWBga/yUFxb8UwcMoHhPjOgafs06Y92jRc0ukRaTXkAiMGD03DLCDRSXvBZHKT+abOXjSMzjQxvHd0mQJiKd4IBkJx5yiRUvaVqyVNgtFutLI+d22yHxt47ZI9Tttqz5n4OKtMKB+Lx+9Y+1RckbGgHZ1lRiOOX6hZ4iALeYcaDFXxGzqkOdMO7WGtZQ66eTyq46bQxkMg0oGmXjiSv+foU07f/8hDt9ll6945vXzShAqoAah4OXfKaccZ9wIpZJarJE77Hfi5BeNSq9bqzpMiubmz7ouX//KuZY8+NbYe1x+pBKwa2Ujmksb8hTLONNFn6hMBKYeEO8zTyXJXQFfCOVdefM6tv8PP892yaAvSTtIKCBq3pSXcEUIAcNkzQimVQANHFw/MedWBh5qJ9pBfThttq3ONPgLbPDPOi/DzksMoV1anSZplick7aYIXIqbVqeTOrBmZm5KTFu300UNO+eKxb/7ySW/758NPPdDvnUlnbZW3AG5a98T1G57qVAvDd9MEMWfQn02Sm8yf6z6WdroqY0AiJkvcC6XHA4+EHvc4iySvBlZAe3ycDDeO6t/yc8e9+ZRt9zx87rbb+7Uq+hUNeD2JqqQEit1ToJfkiLI8S5uNFgI2DEowloChHWfWhu4BL/7ibZd+/NKfXR+ve3x4zbpuo0st3uDmgsRgOtQk/Dm5/tgCdkGY4gRS5jCPmYsRowKuHVt++YYn/vW6867trF5JEhH4tpH2QQn3DY4qoChUQYzRkPCK4/NJsP+W2x+z055hM+l3UncSJ/lI1vxj5dgE7VCxm4Dr/4Jl4vLUak2sJ2Sv8OY4sY0JdyW1Dx7/hr898tT37XfcmUv3P7g0d2vwKxnE65tkhiSEGIXs5qcfG7MZXmdzKoQiAbpFAo4UVrHkGSmnfmluQscqVKLxVJzW262RuDWi44aLg1LgpcquHNkj7P/wCW/4q6NO3iXsX0JKg1b4FiAHvJR3qEgJmCM0HRijc7yqDYRfK9cCEcaNGGpBg6iH0vGfPnjLP/78e5csf1At6BuXgCtB+B6XwhmbdeJuG919jnN6Rrg/+gejTGIdccV2DNYVcwSnidNLhh7QjcvWP/6p3/zsgWR8WbfBPQ8UqgAAVQFgJokUWiC4e4UAQ+Cdtf/xO4YDPV2DJkhTDOO78OIlVO2LN/h0IxsGYRQMRlVE5/wY9hGD79j10C+85h0nzdn1kP4lW9qg3DUkRcWC3xPyOdXpeBR10vOfWL/y8Q1rvf4eyGzViJrzIifQjyJNIqloNvWHBprDMOhkIrfUOkSMjAKMTYkvKbj1Dz0+p5598ujTv/b69xzav8hvJrUgKDPqofKQfDABywKSEYQrSDAhsJBJlymF5zEKRoIOg/ugc3V79Zevv/gb1188XubB0GCSpGWBRyK/4gVlKkNLRWZEZjwNQbEBT4n2x+Z4U4EdPeV8DUhSOWELvE5QndaCcZ82eoMv/PJHd42uHeYGfLDEGnB2kj1OovjFH0byTlIGsqQtjz8AABAASURBVBDEGfsd3t81PZqpTgyVqGjwIv2hXC/SyDMMu6jS5zVSunzDDjp4197HfOLUs16//T5LgM8Huoj6HqFEMuGzDACXdl2lZIaUAjy4allTpeVKDW3m5w73MuecQdAg7kjhTd2zMuA5gKO5jM3BguRRFPX4US0jpfGktqb5zn2P+uLp7z59q922TPmWvLywWhUI6snOGgAl0Yw4SjS6T8CTGyGTpndctKld5+xDeXxLY91nb734wxedc1N9dc9O2/JKyeSmwgJXz/I8N0oLR0ImaiKoyiBgQsJG2wXv0ZAQqXISncV0LE7XcZBJnFX6+4e7rU7ZP/uGyy5d99gyD5pUd53WzknAr68AOB3UCQNcn3jWk9bu17fkuO33MmtG+2UwUJ3RFzyrwk34Szch7z+JdXz344f3LP7syW//zElvO3nJLkM5x2WPnFya2UxDmuM+mjibO43KHfR8fDUtrXDdRyc22GqYGuWjV8N+lDbwzDJpjuc2euyLAMW8LV03ZEh1m9XrdbehsUWLHGB7v3bsmX+x1b67id5BYGXBOTg0f4hnrE43juNMoUzGgaMAHsIbT0XEpmnS6La7Hm378u5k9Lt3XfOxy376y4duzRb10wX9K0aGJ+p4IeZcbsthOaMudjpBnDrrOIUiliW5M7CRaWrtaTK5CMFpCjkrqGLEoCiPLl8bBiUV+as9/fXbrvjR+EMTTHep0VpD7kABbvkZcW1mqeTUAV5olPAT1H6HbFMbiAz4z9fXRgr2v2+Ouv3fM5lNDn/9qteeue9Rhw1uuTWIAUVLlFEGeBCx1gJnhhO0IiOUKhPklmQzDr06bqzPO6QWdbpd6XvK6ITYBuKCACocvQbmz+9c5yaOeFoSbdBpnGwR9Z61/zH/ecZfnTRv6R5eb5RZ6wDjEKAEuilMdDzph9KTXHCgAoh0wDPLU5NkqRWMlaK1WfPcO6/+3Hnn/PrRO0YGg7m77jCu00bc6enpqZZr6OK6WT7SrNNy4DyegMETGxKCNXE6Rcg8X7g/oqwYICE0pwihj48ZBxEr20wW9g1JIpBtVvHWeuZTP/tOh9oEQ2DUqjIYOoMt9pAYrAageMflLO7uc4l/4uFHN9YOW/ys+kfIsImabHKMCqWYM0QA+BQkoc6INJPtmEYyE66NiuKuRklfvX0E7/n3w0/9yx33Pbg22Au4UVkjLCGWG1s2FoM2yojzaMek6LeE5EqSmGTk2eQIYKCpwSlS0NMbGmPGJUpXHY1Hh7Mqbci8FoY9nieS1DdGctIw3YTpWikcAF5loredLV7VOqrt/dO2B37+6NeettWO5TSGtAN57NtcaI2buQHnyj70loAR4ARHTIG0wDWczilzlAemtKFrfvDQHe+99CeffeyGBwdALRpomixrdH3HfSJVlmd5YsHQgHo1P09SnSta+FCGiBeMc1yWQHSW4FnfJyAxcshSncbEKMnISNZpYYTDWS0ql7wA/W+qlZGMOY5EUSbHiGPcMq6pVLQdGFPhsctTg+vMOu0I44NbLHnDRd9dU2+XnWcivia0XUnLST6nlfldxDY4X6TdeCCFY2sLD996qaWpF0lBHOjccddhqktyxkDGKWz6RDf1EAY1BoCzQzMgWQKKk0yQykisW11aCiw4tqF5/Pwd33XQ8duFxV3S82VC5AGAA0iYS4hLwAghMJ6k2nIgofTw7bTUSrq4Y2J3xhhHu1OKYMaWmcqRA0OMxJkE6jGepul4q1Fb16pu6B44tNX7X3PGG/Y9pqqobrT6/RDKPsYK6JCs4MCYcraTpK0kaxHc5YHnppzmvZZ4mk6YtFXil6j1X7nzsv+69YoNujt34fySH6huguEBDj0thRb3ChEw5I4LGEdgKKe2psVsC0zL6QwcYdwXnselx4SPLTlHVkmeYQJKcILYBWs2itJc//D6S0ekG2m2e4AzcBB4gJ8wBEdtIytfelYpj7A9l+5YzUhzUp84HDUOKyUuSOc0J9hyUxPd1AMohh4DcGJcO0QGTjLnJAlYJXNlwpOxiTDVb9j1wPfudcxB5aHteGVKIDKlp0nhEGf4O646OThJpUSjGIemItYlXYwC8OU0NNKYyAw6DWzNJBeMUop3LQBpnvlCImhcmkfAhQHc2Y0xh8q5HzzgxL857KQ9vDmDQLeu9Q5Wanm9jSezTDC8dMRNEIUSnHmeVw49w4LxVlM3E4pxn0bJ2JOk++FLf/K3N597UffpkUGv7ZORifFuo4UWrZTK04g4WdXnl3Q77kw0OKFBECA6MSzBQtTbS33fOkIpD4IoDErGkWa76zEecEkdIEBTleO0BC5alGyS2x+fddPkqvqKbz54vSljJAQCPTchQAEYsQAG4ceZ1SYg/Igle+wge1txN3PGMUoAIsKxXjmTSewAmzpt8jEsJQXInEOYUlvo0glmJevUJKJ2S+W9acs937XX0VtWKq6RBVlxw0eKVoW6cPLYF8lSmCvKXmZUq2u7edpO8JUBIqIQC9PS2vpYoVMCjFLJUN+ofIKwNsYQTNZ5jqL3IqkKHF26YIsPv/qNJ26z2zYQDgHBUwIgJI0RoY8Gs2AFYei7kIh26MJRQuJ0T6VH9FR0ha2R5ut3X/PB879/jRp+KhsbK5Es4PgBggIZGhgMS9G6sRGYITXbrVKtWunvbaZxM+5EUSS5WL9ytb+hW66rctuyehqPNuv1ZmyNKQXCEfRhjFCciAVHOMPZYLQwA/uZqwXvLu759r1XrTFJq9GyGiNRoqx9Ru8G5w2Us4Dy+SCOWLA9jluMSAB1iPtPAAwfjaAzDzBrb/4cY6BFrXPGWeccBSII9Ql/mnfxfvjvdz/mw7se3QPQAQc1L9OKQqElzKemiKqaIpaCG+8yBTL0SBTGBIp/uTPVaLp8tNPEoMJRtCDhqFhjploxR9A94PmXRT7aQMfpHK/8ql333bJUi3JnuxlzQCgop1I8YHlMZ12W6xA4QwYa0PvmcYI+pUp4W+mnufrpyONvvfA7X3nshuX9/AnX6R2cA6lKm+2y9PuqxdmonSXoaqdGf2HuSn6KQ/qi2lPjjrTXj4pGsl3vvJP7tnnTlnu+ecf9j1m0/WIekW6Sp4ljDrGCmwDyQeGp4LjRg3NaKazZKAqrtY5Hhz3745uvTEpipNvG+cVpjh7BgUNXjbsO9QQjUAJ41da7bVse8DX6V6sZoQ7Q3TjEsWAbNeif1vg5MPxp3f/nXr4hxAFiIqMuJ6hkKBnaqxleDr9htwPP3H7faga6k+WUpARYIKgFbI8EABb/AAqtEcAH3ldRfdEyl9yw6tEJ0IaASme0TT2P8abTUWIxaWNyBdYhv5BwrXVGnQo4Qged4lZB71F9O8SdJPRFFHlZrvBUQwUj0uvYLLAUvz+hcaDoDSzyeK0EJe+pdvuBeOxz1/76b87/7k1mLFsyFAccd2Uy1g5y1xOUoiDsJvHakQ1pmg729ePQ05Pk3SyNO12emUrqtlD+SYt3/cTxb/7bA457755HvHvXQ95/0PHvP+LE1+287za8ZFduiFAy1IuxlFLGOQqF/gwX//TM/0CtYFkrLvX1XfTonTfWV5lKiHCrRKGyyA/hWmjLCrAMdDffIigdNnfbHsVQdRiDJkZZbTByQ7jCpk90Uw/hGUA3UTgg6nLqGJCKpoMZ+4ctDjxrq/1Di+eCBCM8r5DDMYpgLDBaPE3+IUDx1wIMh3Afaf1i7QP/es353775sjV5uyRlCbUI0yfc6NEN4E5fqFxp3A0d2pWQAMVxLmEODyUdq3wuFnmVLQHCMFAIZW09waVgWuXGpOhpfd8nEm1l8jxRzLYIrIX8zuba84cf+eRlP790xUPhNotoOayvH/UTt015iAIhkuPZbjRtd50uVysl6WfjzemlBBgfHukLy4NeiY+2d+Q9HzrslI/t/+oT5cCWwp8TmzkdvQuVJw9u+c7dD3nrdvucMndpyQ9RR1opPbkvIWgQoB4XM/Gfqb6bZP1GoGucqIifP3p7gyBLg64BFU4cZpBb00HdAQRC4vZ15Pzt+w03SuPu1LVKGc2BoFOfif8s1tNZ5DUtK5wGbg2GgqIOPR+WQ01Kmvz9docsSAAI0IEAXZztxKEBUjhHwITKwnyKEKBYuHr8ya/d8JuvXn/Rrc3VExUWU1t8adT4ZnrCVUEEx3d2KqFNHTodkEAJIZpCAjoBE0ivRj0MQI1WJlc2U2AsAepxid8zMehTFsUCkFxL1iWwHuLfPXLHN3/98y/e/JuVFSLm98dxUlJsq8pgfy66T28wPre+MCXPln0laa4U5DqyM+p5/sBQc/2IHW8fs+u+7z7+tYcv2HZOB8IGBAwiQrwkYyPdSkfvSEqn77DPR44/PQoC1KFSCvGD4ZNG8VA6KWEjU5pnAzz0Fbie6L72+odWLQ8Fy+NiX6KAKHWI067KDABq0TbTHXvn4QbotMFDcGpxNRsGRGKjjRz3T2hO/4Q+G9VlbbdZjsqlHKRyfb21ztp1R1cXXnzaX9oE1eMQNagFx7UICGOacjvc6U4wiBnVbS0msAH9jZvY79Zz/vrWC6/qDA9Xg5GAKGd7NS37PC9hb8SpBWuoccRY5/AtpEB1JHkzidoKXakqyVIQVg0j2q4XqiWgar2FTdmj5VrTbWNoSSE0ImJCM9sxOou16hpw3DJfaAmJji1dx8j5Kx7+wMXnfuKuGy7HddbX17Y2zjVnEkdtZPEEy7s14VIQCSmlvJIyPyfWQixJqyI4FTXnDWhezdEP2rZnRkU2Yhv5mvEzdz7kh6e975+XHnoQr1UpNErQqsGwiVu+dr2C9vkkBJ/m/U4vBLjp4Df9dJ+T3jF36SLlkk4rJsqUQ6hUUpw/blPOsDwnJlPStEt2rJxxC0jM4fYBFNX9rPG2EKVlJd1Iu9snQc7Zdx65sQUgmSCEWc41EE7ZoFecGS126fWZMMduuXS7jHpKicEahH7gl7oK9Y+vNy3RTcseoFqujLebNhCVUrn+xMqjd9hzr212yLSlgmti0RugAILghQfJsxy06auWq0DTVpwGbLiPnf3ArV/52Q/S4QlstknJMqU8Snxf+p5gHN2/yyDtZBOeGwkkOu+vX3PhD268YmXeFH0l3BNmEgZ9DIYZuIrwNFMWfq8M+5jf60RKdMOlYy6bwA8LadrbMnun4cls0X+e/PZ37njAXqI0n3tVwiIHXpb6WlWpDAhnhAOaiDgECiPF3opx9tKhxX998KkfO+K1pw9sv3jcupXD8chYyY/Qt8ZJCpyXwwpGQV4jFyPZTHKikOiJAX0nFHF6YvXaNAY2U3N8Q/trPQyPk9bZZ9OMrWf1BSpgVvm9gJn0RBeU8bjtdLeE4LQd9ttz4ZZFFOUTRRwGVdiD4iI31uTKaMM1cAVhJXxUt/79viu++/hNy/N22pzxHhS7zwp1BeQYawA6OaCMQsCJB87j16brvvHoNZ+59vxfrLjvySDv9PqZRzW6xxkzk8jWAAAQAElEQVRGpT5X1KYmi7M4V6nNM0hS14lz4VJmjMCtk5UTvV0i3jt/z58c+45jagu20ZInDpRFOFpitM4lY77lEhilFLWkSBH7ELx1AiplGALMt3BqdauP7/Pqjx540nHzl/Z1cjPR9g3x/RB362Y3NonuJeESr28GMSG12mYKOOuA1sS1bH7PuqdRvJnaYxy/cM68kAlnjFHaGVsYsdDWTD1mrX6TY7Tb7QalSOWpGZk4Y6/D96vN73fc86Sh4NBHcILTRCHQ6JxL5gXQzGNwD9nuOY/d/F/3XLeO675tFueRmLUZz8DIJxyjV4lvcf9ioDk83J64bv0TX73qop/cc+N9qpkv6U/7w9X10U6ztXDmczqeuzkQtGNiVMeqDjFdahPu0vFx/GYxqMn8pjlpi50/96Z3vWXvgzAESrutVHc0z7s8bVDVAKM9AsQC7qJIDgViGpwllOL6cZQDONxw2jnJYQs/OnbLHc7a65C/OfS4OS03z3g9GDgDF1EUDQw6PxxutrH/tBQ7DdoQwRNqHYG2ze9et6wxbdPJSh/IwoE5tbCEC7To6Bw6U+cK+Sbfb8KMbkLek6zzPJXOsYn2XkNLjtt+j37LeVJYQYFCUAjKUQJtNFDCg9ARCiX5cFb/8u2X/PyxO1hfzRdy9dhI2hdNMtuEmcjx0zV4ykiMaCkMg/3p/Td8/roLHpsYTqJA9Pckzra7sQSK7iobm9maccqRCWc8kC4UBm+4QqZ8NpeGpVUT+0PPl0466+MHn7YlLbXaMXjgl3z8ikSEUKRADQPKNV6q4S8ABSAAQBjutAhNhJIjnjOCMeuBpllqlA9ur9q81y3a/XOnv+OgvoXRWKfX0kB4GxoTKzvjqg8vN2HaZCh4GlnTjAFxgFcQD0ysXY/b/bStAXyAfhrMrfXhpohOlFK8JHQI0xmaz2Y1nU1m0/FivqSNzhITvPWAowZwlTs0B0af6Go0+kYGlhTax1qZASDd2Vj/X/dcg3c6bZ9JKU03U1meTsd5tuto4bpSBdoqB2OQPdQZfiAfDwcHqO+lcaqbcY3I+bX+kifbjfqMo+e5JOBx5hPC8Nq3E3udtJTqg4I5Hzvu9Z9/zV8cWpsfxSnNMhbxJslC3PwtZZkJurbXBRHwkJXAkIbTbWtyC6gl6agAbp1TYMARDabFVMuzuUclpWWna2m8T9T/kSNO+cRr37Kt9dv3Pxam2WCtlqiZNUdIiQp0hAYPRxY0hTVZa31rxrgfD14cYOHQXGYcR3MxjjDV1syoh9l7QWeP1fScZCCjxB6zaPtDereW2hnunCDUAXPoFhCeYPOMEk4Zm8iSh9et/swDv/vtigdJIAdrve12Bw8fA7V+L9HTc5/FWu4QDhosEALGUqAi8OdtuXik0+1medmL5lcGIsNbYxMo0tCSRTONzENf4NqyhHayciPfOvePLm9xxqI9PnvCW169aOcBC0wD97jwuEd5iSECKcIOiPCCckZglc5vHl11W2dkpW6PmTQzBmEJOHuEEZCus/W4ZRgJRBASwUCpvMuc9X3RD7acp4dUFnzl1Hd95jVnbq88sWJk+7A2k5zFkY7gFxNHOWMOLCNtaoZbM689A+hN5g4MUusoIThF5GBQvJkGmL36TY5R9JM17h+01U64W4ec55QYAIQBAhWcA6uVUpTibgONuPvEiqd/M/FY1ofHAkmbSU9/H6uWO81Wj2awidOIiWNinS9AMkqI1ZnqJh5hzhOGUJUofEQX4nkeSN4hiJrpBSKhZyWzxshEz3P+Af1L3r7HER/a85iFCS13NDppzUEzToAKY1is2+C61DkJHQ/urG/4zm2/+8SVv/zkjReOmATPMdritRrgwkGy4FJiZakChEkA39hIkzJHcanG18aUrBPNRrnbOWHxTp88/S9O3/1Asmw9zJAQmRiCg3WEUXQZFA9nDHA9ztC8kAFvtCqlMnbhhHLOKfZDC87YYdZebDRGi/k4eGGe5Tmub7Qfxiv9ImSdIs5JOfgPbzjzkON2mbeNZ0FoIInKrMlxWCZbVqdMsqgUx3kT4GuP3vzBtTf2ltDXiBzRzHkcpxie88DrEoNAQXIEFzMHQPUQcMAsc4C/4AhYUuRm0ithJWxk6hVeCFZT22bAGNmKVnq1XNlth7mR1uLxLpcUT/SWMsgtaWYZoGx5oLRvEUemCzoHyxhTjThdMx6Nxof1bfGBQ4//pyNPPKJ37kAOHgDjJqEa8RQ6kDlJDa17nDZ0RugtoD/y1PVvvf5HX1t9273l+G46/uafffVf77z8ynTDegGZh9gGkomaChlQDpTgPJWAroW2JYpwI1qMxr7E01KFib4k3VWzD+2838Xv+tDuGZ/TSki7pajOI5pwXD6KKbRBNqbaLPJ9ypklaTvlfriaKoxztAVigZlJK6NSUaUUlGcCTwxYf0DUusYOZ3EOuoJIdZPNXpBvpPr/UHP6h15uzDtcl8Q6hi6S0eLujRG8V9JJtmXf4IBfCtBCOA2C4EInRWAyeZa4rAiYdCSvWv7g6ta4lP7kmxcze0a4Z0UQQqDDQBwqo3OjFboRRoknmCGhRK/q4fIw4Dgl1Oh8ohGPjO05Z/HfH/vaT73qjFMW7TwEMlZZw8Uj6KR833CJCIN2xrsmNKzH0A01/vOHbv/kL77561uvrRPl9VRYKRBRUNl64R1rn/rCeT/4wiXn3rx2VSyBhJDgkkgBowWgkAnX9mnXJ05wYCBQtUAYoejfOGX4KDEn9Kuvff/fH/eGo+ZtO7dtxUibZcpymvigtQrDgDHaajV1lvVWKj5l61etenbev/9LABgCd4ocEACCuYM/Q5o1jHpcIEYpSs5oxyotKMbjkKl9t9huSak4lmO8RwgIPJQSihPDt55mZiLGrX81qPPuv+Wp9jjhDF+9KIRKf/64qHwEH/pmQRlFr+1c4XqswdM32thKxgTHwBRXo6VEEFKyZAEJdgr7P//qM/92/+OOnbfdIuB4DHSdXBAeemE1qOHcOEAcJ8T3oMIbRN20+ol/vuJH33/w+gfVRNYf6VA04naz2wFKlrfHxjy7rgLX1Jd/87bLvn3b1XfXR025gCMQyAhoRgEDD8/vOtVOUgZEAGWEUoQmZegdkSLgWwCc1LvVPx500rt2O2yfcKjaziHLiWSVntpYfWK0Ph5WypW+nlan02g08OMRzJAYuhgkwMGfBasrCrDpUwGXWRmFMYYYJVC4FNz4DKdcuz4nD9xi6SK/FuAYFv+AUgQqFqxDbDriMd4Ee+PwE3c21wyTLDdYi29fBCoU4QoD4NgOnokcEKbO4RMQMml8hkgotll0nE1QHcQtAbyr8hrxYEO9amDLjx592nsX7npUZV4NWF3rOs1iAQSvotq5N9oNU0A9WN9bKdUV2fqPPHT5W67/0Y311auE6pZk0yjcZGvlnppXypqxJAI3bt1XGa6JO239og2PnfPQzd975LY1AkYYxhngtKNx7roJz0FKyQCQgBAgFAldaQAsJJw3koqCnXjptVvt/v4Dj3/r3ofvIGvJoyuybqdaLVf7ajnRHZNCJDKil6+f2Y86dD9AbYFLAoCEqMUcNn2iszUEwaQt0RYIUcQ5SnwN21eGdhhaWAUoDkoAMDknCha0okVcQElP5anO2GUP3JmVAxt6HaXgRUqTogF1/z08OlHEqNZ4brG4AnHTl0JwxnCOVmmEqe8HPFZs7fi+1XkfedVr/2b/4/d2FT3SIJ3Ec+BzLoSnPZYJjCQZRHhoNCNgnqbpz568/QMXnP2th69dtV2vqQS8UkJA2lThHW2vV0JCFz3Pq+IjurcJqjt94cqyu3T48S/dcvFHb7/wvFX3rtFJxEnEZMl6ngFO+H8bEmdCCRDCgEqgrBKAM6aZ9GtyUN+Ct213yF/tfeR7dzm0nDreTLKJVtzpauJY4NHItx7/7/lPW3oxKulsDaoBDQpOaUKIY7g7Qs2wg+Zu0++VJI5BAAgYsAYMFrkFTFbS9cLctn75g6uWheWyJ4McYxx88aKQA0B6dmicDD6hrGg/BCtOSlAmgHqWICakcgvLg3RtfamJPnriWz736nfs37Ow0kp6vLDTK3KfCJWHqS6lxtOghGj57Il07EmfXNFa/qHzv/2lS3+Z94bb7LgTvm02myrNql44v9ZfpjKuNxE0fhiqTowIqwZRwGWCgW4eN0Oq59XOuf+6H9x93QUP3nLv2IhFzUaUBKKLC8lZ46x11jlUrivuTHAuDlpZW1PDy3jg4Z6yQwDHz9nuI4ee+o7dD9vT66+MdIJGLNpJUq9TaxYvmPH/t1ihEAKWAp7WUDNIhjxfYTjYpqJZw6gy2jmH+1UBQc4RhRVFD1i4lE9JbhwQk6P/sXhbbCnq0ULC4IHuhhtWPIbfo0VuQRsW4GY41eHFyFFGB89pBKGJQhDOCK44nJs2BHdt5QJLy5b1PF3/x0NPPfv0vzpt3nb97XQu80uVUg4pQkpwDsQCMuLMZ0wgdrJ0mWn928U/+OjPv7tMZH27btPOspEnV/R3yGDPACjXHm0krdg5YimLKXQZ5IHUlBplZQ5lzWs0qMmo7EW1OXNW5a0fPXzLx246/7N3XXnV+MrVRDvJM6NzazA+zsFqsBbxg5l1lSBgnGibO+YYrjNteZL53eTdW+/3mVe9+R+OfO2+5fmlsaQnJRVFs+EZ7/ARkagQO7mQzSRSsQYLqKJNTajI2RlCI+xwAtqgNXFnZA4CR7fpHzCuqMIDB05Ju2KtI4hhcq4ZwKONkUeHV0eVsmnHNs154M2ONP9rLigg8kCrcCEopRaT0rhLUG19RyMq/uOsDx3ctyQaSSod6PUCaqEDeVdyH0GgTcJcnePVjrIOIkOGjI8OuKenN+yrYSA7miXEE+Wo4hHW6XSklD09PUEJrztd2+QNk47peMSlLacc4IWdExhR1GOMIvINE/ityyuXJ6r8BjXyg6dvP+ehG25d80QD0ENYVDJqWIHFw5xx1jpXeFP8yfGyN03AIHwNtehASmFQi2EHUT51i73efexrjtttnz7H/CRfXOnFWU9LKAki8hkiuALAYV7Yctrms1lJN5YZmm1acpHjZU+UvFypuNUUKjt45+0GCdSASyBMcEJYRPFbn28MM9LPAVZCfvXD97YikYaCBJIZVzXE0yAMTM0d9WIJEFfE6bCpk6KNJMkFDwDydtLFA3iZmaSV5TFnUBY0TLOBRvdQWf303kdfdsr7DtVsV/BqHgXugIIDw0ECUKsZMM+nQZl6kOfaJoDXwjw5orzkC/uf8tl9TjmczQlHuwIoD/1WGjtK8K5+ddoe7ra5FfPDgR5Wgbbus6LkGHOgOEl9FpdF1hPkvWETw1PQOWe2Ek2UvWvaG/7l9kuP/8V/PClsi9JSwkttESiBlwmasyZR4AgVIpABybXKEKWOCrw3K8R1AnozfRgb+tB+r/7ybq95b2XnQRlFBEKcEwOCYxf7nUO0E2uFZgnAXrlK4QAAEABJREFUSDfWzaTkREYd4SxoZJbAtASzl+hssaLGFR7TWA7Ec1Ra0leu/gHuisNou9HFG31GsCsSIlLhDfdsCbSxfCiaUmiDJyRA3ykATSUi6vdVau3hkfUPPznX8DMPOe5Drz7z0AXb+doABVaWpuyNmW6X4iMLAfToOJUcEFjdjFtS9gJKeb3bMlIYAWPt9r6Lln7x1e/6h0Nf0zecNJ5cMdTThz64GkTlUoh3rSrLuvVGWdOt++c/Z/ipeUwtVGZxEQCCh0CxdAEKfGgKuC7e853P//j+m54IsrhGOqDwhkQ6qIKnGc0JxUOf8ELf8z0uTJJ3xhoKtwUDgrKSEGVgu227/dEHHnLMfgcjz5nIAdTjtmO0SDi0tcD+gIVnYrPR9bM2BkOtaK2twfANd3mM2Bb1DVHc6mYQKebw5PCaeh5biosdp+vQKqlRMzTf9NUUhBC4OVprfZ8DgOzmPbFrPLpst9r8fzzxjZ957TvO2HLvrYDjVU7Q1ZRCK8kSsDIqWcoacdJstAZqA03iJtJUhh4AaY/g/PJyqaaBdgSUKuVSM53Xzv9i4W4/evs/ve+I17g1o2K4GXZzgatTZcCgEoUYwqbjDQcwRQDFroK4ROIWhAVuihwfAcAQyBlkDDYsKH/noRs+cOH3z1l25xO+GhEujnPIXNPmsdMZWI3/U4po43my2lOTHncWJBABgFvHAJPb9Qwu4FhErtMQRmnF1jcxYiWjlBLjjDEEF+Q0bQFgNmtnD6MYemmjjKGEBJb282BRb/HvD2YStgHuyfWrW3mKoDa4naBFEKwvnh+11jDK8MTDOW5jgFt8ObZbm/Cdux3xnj2PeMs2B+4neufirt5ITRwzD50/9EgvwjXVTnSWk8BvRvL+7ui3b7vyYdda41QjScv9fWEYZe3ikrSb4SchKAdhSGTUNEs0P32rPT570ttO22aP/mbWWbbGd1DuLTVdOqybri/EaO851VEHU34UC0iITgx/ixwAm6EfVQzWUVWveffk41+55fJ/v/7C6yeWT0TChMR2DUtB5sw3TAAHBwXkKVAGhBR+kGrQ7UxkzkfIZvgapk2Z0W1wK+sjxueIURzdGOMEm7bx7FbOGkZxiTtK8NqTECK1mxNU+iHkqMIZ5J2wyYqxDSkYi77LOew1Q8M/U7VyBnUhgOI2agGotrsOLDp5u70/sN+rjurdqr8ey3oGGciKL6ph5hcRKORWpK4igrInR4j65dP3f+Ta83/89F2fvuKXVww/2Y78UWeanTgKSzSHeTJiyrk8R98FIQtzuySVRwZz/2KfI99z0HHHb7tbLbeN9cOJzXTNa1UAsUig2NaLgiuUYEmR41+BVwfUAhbwEesVBRRDGWtLkV3Qf2tz7acuPvcLt1x0s21VS1Eg0N0RcKRAJSW5UV2dAAFlFKFAKYgCdQQsUGNhhqSJG04bq9oTOcc7C2AWcMMxks3QfDar0S6zw44hygTPKaDKqDLzqn0CGROC2bQ0nnTGui3cLJxzYJ0gDAHtMT5t4z9DJeXF0CguioPDVbzgsB33ePOeRwzEbtDymheJsofwchRyAA0OiLVEQ4XFPly3dvmXLvvld++46nY10RwqP0bjj1/4o/f98pvX11c2K+E4GCUJdDOghJRkSk0Lo3BwJcrDFJaQ4JStd/vA0aecsfMBu0UDA5pAs9tevUYaQEIoTAERAYZrCP0lqhcLKOEUdqfe4qOXkEW1oVpUHW021ubxeI93+YYn3nvOf/z60QfvmNgwLCGVYDjkzmBE4QnPABinkS0QYAXUDBawDmZKnK0cHx5TccaLFuhH8Qc/C2O+qWn2MMoY96URVIOz2gxWeywacuZlNh63Y517nueMRUv4hDEgvpCbesIz8XeEaqNh0pE4AEnZlj29/RbAJxCQLjdNm3WJNQACXGTsuE7GfHpVe9X7r/rJuy78zq/WPpz0lGpz59SbzUwyb+mie0z978777id+95Pb4uEVADZkraRd77aBszD0FLG450AIjGCsmi6F0ru3P/QTR73+uNqSrTt0W15DgOLWhIRoQCRh3Il7OhK6TCyjhLic8BUSghXJJGps3UhrrFHyolKl1rJqrU2bNf8fbvrlFx646tcbHn0c8haKwRluESRLcSJ4EsjQVAQco6lRmc40R64wbWKCrR4bjonJ8LBvC5MRQpDDtI1nt5LOFjuUmAheBJcUnLGlIMx1Prk0px8hyVJrrZQScw6EAsFcvnh+FK2epqnFc8CkvE5bkjjIIaHQJpBLlkvZcVmcxjRTVDMMHM+9++qPX/aTX9YfG9m+n22/EA0cb6hXWOC0GU+6+UBJbr/4QdX43g2XfP26C9apDi0FUVTm1lhlZCC0TyaIhUyVQ7/PQU+i9gr6/vnI1//9Ma/dJ5rHbXE2QghOigMIU5QQMYqEZTuJJYQmEhaRUq3K5Wo1LJlY6TSrVCq1/n7nyVVbVS9rLf/KNRd968oLbl3xSIbXVlQw/IoCoJ3NjUawIjHfY54HUkwN98KcAjTaLUUc+iDc+ighODRK8sKWs16DQ88OzxZnpJH0KYGY0x4bCktDVII2zyx6B2SSHEDOAM+hY416s8xX6w5gB2vXm25DOqUUah/3Mmw2NX9UxBTNjpQzc/G0LnseHloz3BIdsCzXHnR9YKkRia5YqAIJaND2w7tt9puxFa++6IdfW/7wct+nUS8omuLnRKuzkMaS5JwBYXlmRtLkSZJfS9o/jFd++Ne/PO/xh9cjMigDzWwOOEfjXF7CIF45Yp1NfQwAsvTUoW2+fvjrPrnzQa+qDIYqbkM8IXVbKdbSC1oS40Iuhc8kRbwoHMe3zOs4Jmu8weP1otuNLBME4tS1ukzpgYyFlerKIf+/8tV/ed8Vf3fTFdetG3aezxJTwzdKyEbKdbE5ZJBngAuo2EuMBQsOqRCMWEf0PZDeuOZxFuHiYu3GmGAIZ592iTAUEY87IaoWG1tiNTVI+PjH0B/TZtYw+scM9vw2WiN+cQEDezYRQnCBPr/Nn7VM8ZOkVWAY+nQHXuBLSpTWbbSAz23u0AyIqjvHVn3xpov+4ZqfaQpIuKJQyKnlhz4PlxO6tGnpgmT5p26/6CPXnHfp2MqxADIcbqLr19FNU3SmOHOfe9QRTwjjLOVsn+12fevRJ5258yHbNVjfquaSqFaZ2/eEaeAdX9zqKKPDWkmWwrQbQ5LPiyrUAtqSOsDRUSRHAL2DpiC6eZDaimUBsE6e3r3u6XPuvuYzV1++nCQj3KQhczU/y2KT6Qi4VApmSDyNt+4ZaqxaD2lerdUaccsLUVgxpQEc7rl+KMZz5VkpzDrDP1aqPM/x8gJxiRDFi0nMsfwiYtRRR4TQWqPvRx8CiUJHp7Icr7i71jZ8cq9qffr6X3/skh9dVV+xskbx6JAzQJePE0b4CgvcgjBFjoUXkt52ztpB74J1D37ksp9+8c7LHiZt1Rux/pJBaFGuUuVyjePiiJ24rYnBT25b0ei9Ox76vde9711LD7CPrVzz1BPVxQNlwkLp5U4Px82OU34t8rjoDI/jCuGTo6MwKJJFh82KLYt1c9lVYebKRDBPrqXp1Z2V5wzf9/mrf3XV+NOPQPJ41spDjwkJORXWw77T0lasctTWO+85uDDMDDhnOU1UnmUJNnb49yxNrZDZRdXscntW0j/iFwFqLWoSEJ1IeOWGnZx7/nyx4s9HMUaRUAiDThHSDNVvCHhRGOc6ZvR7T9zymnP+9avLb103J4RKUCUSzy7opVBc6gDxUeQWpnJEyQspGs9KhlaGBlqD4c+fvOtdv/jGvz169c2g8J44Q98nfIe+CPcV69CRS5CDzIvaik90dw4r7z/khC/9xd/g8Z/ctyzZMI43qaVKWQsykXdaWZLjNQMvhiYAKDydzAtmZNLTY+CLaylXuPYoZ7bst3q84R5+Szr8oR9/66vXX7Teg3FCcDq4JiFBCWDa1Ef4wfO3eccRJ2wd9al6q1or5zZHe6GW0JUiYS8cfSqfKmB5VghnNCt8NpoJgnKK0H1OdcYJI02V//y5Qg8KUASSnIMUslrqAqyH7NLWirf++N+/ePX52eJ+OrdvIm7jtkgSNXUNhHKiPaagSfBhZpoLgdfWSbOrGNGD5VVCn/vALR+6+JtXrXzk0azVYJYGAVAIgrAalgl61Mz5YRDVInRbHsAB4dCH93nVfx7y2gOWLK2kprtmg1Sup1ZlPk/w0pUTxIqDAqnUFmsGpULcYGXWGyYBQ4/bSfGzWFpE/Naix15hYz2/77qVj/3Hpb+8dfTpcYAMj1Bp4Renn4SBeSI6rLb1MVvuNEik7aalMAoDDxdDQc/2wXGn6NmKWfh90TDqeZ4QAgGK3hR9KhIWXkSMhlwy1Ccec5GIazNz7fIHvnfdb95y0TdWzPdqSxbZRjJHy4Vhr7YmnmyLzQmgDyyQAQAICIQFFqalusmrc+cMzp2TxFljdIJRGkTlVKvv3nHNz+++4fY1yzoYljoA9MpgC0kEyY1uqNQwEAAyTXch4RlL9/7rI0550y4H71uaM9DIw7E40oXvj/HmH50lBRQAFwyiBO1aFABivC3iYFBgyZngeKcWOFqy6KUj2VMJFs27b3TN53/5owsev2vCpyMR9ptWfKx0HKDXwcnb7nnogu2aK9YSpdI0LgBK8C0KXuQ4KBJuLMXDLP39AZlmaYQZ2Pi+L6VEV4rQxCgQCQsztP1zVEvCqDEYl+H1U0el4y67ftmDv33o9mCrBau6za7Je8tVlhppob/aNwWFwhgWcFtHTKCpDAXFAPNpyZX8lSPrV69e63Mx0N9PKKurJPH5ncnwb56498anHx2zeT4Z/FitjUoaaUdT6wtOdE5UWuEMYY0n7/1p73u3P+jTx77pzC332rJDxIZWoF2lXM5psbOjGKgshMhzsalMtKcB3QEPPCoFHscDz696YQQSlBtttaCvkg9Vz772ki9e/atuOcTu05JCZw4QtNQ24B+3055b1vp1B7Wi7GTrqXEni8WinSrMVl5gdLZ4bRQfBCjnnBCC0HzRnWghuQWiLQChQlhKCA3yUBD8FJFAlXldY4YhbZd5U+Xt0Ylq4oibDP4cIFIBCgfmYBIlUHgULP8eTaweHvBLi/qGXKYazXYW8qQvWCMyueX8YchWd5pKUCILczDCAiFZWHKcYuMgNx6RgHf9AmLPlFGettvRVd6468HvOuzEg7feKTK0M1HXuDwITGEFRULXhhIiWHucKAGXgAvQdPK0k8TdvNjxRYLbgSKEON/DpdLy4O7hVWfffinOZVoaN0mexADU07Bbz+Kj9j0Qvwv2VGvY2OLfs4SDYhEFwHy2qFDKrPDiyqYezTkpg+dp+vD6dWtV5jTF8AgcoO6miBLiWeJbckjPPN7stsYbPWEtdF7gR341NNQ4YqgzzBluixzAYKVixiCWAe1eCMsJ5ZSBBVaIj3DBATAH1Di+tkAsbo55Dkmi0hPfUUcAABAASURBVDjTKXJAdgnJ2ybWFEIFqOhYQCKKAj5qAoo6guyyPCcQeGEVSDLWHfe40oQYHhIvsIJmFoegoadCYSggoeNEwgKOSwC4BcynpdpgNSO6mXWo4JEf+DmJWrY/EWyilQ34VMJCvJsFFAMgNzgzgA5zWgIlMkhbmSZ8DGCYWheptOxUCIO+97oF239+/xM/uOMh+7Jauvxph5KXSwpcO8m0ctxJD3zGUEuO5JlTme/xqK+c+7A6Hu14yqAliE3Tbsfl7YHw4Yr64ejDH3vy2rtIMzaGabSDxXHbecoI72U+CSRUGBi3IHdvXbjLnrRUztPBDKjHmqB4bqqYAeAnj8zgNUmxeqn7/RwVtbFEN7bDTO3xQoLgmbRAi8NyI+kAx6mRmdp7Ac4YZyeSJCn8FoDJFC7NmdojI1yjzrmpBhbxWlQVT89UFcXib6paeF4YhhGmIPAY5xZwFYncoiGRLIEifATAMna3Rb+X1l8IHkYRzSQpdtNAMgC841xISuNjdQWKAPWZQDSXNT1y210+/rp3fvF1f7NTg47d9SgoHfRX8oDjksh11smSTreL8w39gBjbHhmnnWx+bQBmSDc9dv+Nj9zfJhoocMZx3LJXMlrjXkcZB0zGpElSFv4hu+/N25nCZDSuA9SncZYQQjEBGgGbzg7NHkadxUgO1YpIzcCubY4rRgCnCNOn0I+Gwgpex+AXSPRtgL4jzfnMc8PJP8cI1wAStsX4DRGG9Zgj2rCAhFNCSnWeOJ2DVcagGpG/D6wi0IODJQVhe/R/WMYcuxcwfVax+Ih8sAbbYOFFoYmR0UTpBnOrTNwMWAaAXpwr6O/rD0BKAA7gCVZmfAvwd4PojbDga8e99d17HylGm+3Rcc6pJRbJSZ5RlxiEuhOMh1yiCjBInWlS99XXXvn4vXeuXx4zXMHADGDAAI5KXBIA1hiQnDsSWXrk1ntt6/daXajXUWIZQbtjLiiTuMvNNMDG19ON7zJ9D3Rs1DiJ2LEW77fXtCcaJtVk+sZYK4HvNH+JH2tGaEqs1pob1AGuREDcvJCwyxRMjXN2krBGYQ8ofCGWpwg3FxwTCflqChmxeLCNweCHQzSR9D2EHRI2xiEwfw6OWJ6iZ95Osp1qM1X/Z84HBudYv3TlE/d/5qKfnPvwHasAsoDhTSh0NE8M6rmADioiN8JC2cG8oLQDLf/VQa/6t1PffnBpXm28208ky3ViFYt8Enptk6M2gnLJ8/1uFy/Wpp8Qm9f/WFK/+JE7nuxMtE2Bv6ybMoQ8CpBnuPKBQlAKWKLmgThq292q3Kfaout0lGi0HpYIwQPo9Nz/pNpZwyi6etQabqnOOSPoqE7WNMf0zDLhKj1gyfZ9GUZ3fsqcsgYXn7YYjxaYQ6D8HjEgiD/kV/B32A6/W0JuTQHsSTzhK+KgIEA1QkC5xK1KiiKKijyD94jUtkxWNHDYtoiT8IfgHxTtizry38ujeJx89WJlba0QR+lQ9ZrhZf9+9a/w+9avn3pwfQDGl4ZQjVt4O86cMRHTHHCtGuHCkpyT0lMHln7n1e9+3x5Hzmvb+dRPx5t48GKMWUZaKq3nMWqbloOZ5hX09OD56Y6x1b955I6GsIYx3OXRPKg3LHDfK5QF4DvqOTh86W5b9g7hZsjQboTgjoSr2lpbXEHMNMDG128MRv8wd0Y5UPwYSKwzHk8leWrd6i5GKjP04mB3HVi0XXWIUaolA0axYfG1A3+mI9TRVHWBXeeUs8qhW7EIJiRUzdRbzBHKBKO3tvYaKWnEJM5xbyKMYcdE5RiNIGEb5gALzxB2myRsg7/IsMgJTBWw/Ocnj3vo/le1mp1qkC3uv1vVv3ff9f9y6U9uyodXYlhd9fxKCJJ3wDRMUo/rdWbrWbcsRU3B/My+adv9/umE1x/Ys3CvnoX9HQcbGiLVHhfoC7pWoYFmmlHeaFspxkO46NG7Hk3Gu9yFlShJMsg1XhY6oAm6BQJhGNBEzWH+3vO37gfPwyMaoYQQCy5XuGRmYv+n1BfI+FP6vaAPoVTganVAHIDHXSiXIUaz9AUNn6nAqGgusH232E7FKbo6GniZ0ZZTRMm0hPNHws7OOQwoCnJW2wKjFmufJYqjQyHDiUt227+6cKGSfiPlzcTLrQ8sRBkdIDpxf6S2OIZjGX0/amGyH2CaKkzl+PhikTTAnYuEL4KwzeCpvHV/Nn5bPPz+G8799uM3PqxbMQAG3GP1MafyvqgqwVS8QOeZTRPJqZdkW5Ho7w4/7b17Hn3C/B23hXJvDFXDShxtQ/J0RrvQicT3/abPnjKt395727q0rQkwKcA6CsQBGEa6WQ4MPCEEwF4Ltu6nPq4aARTtb9B3vGQxSillhKLJARNnxJcjjYlcK3yalnxHpIalC7aI45h6QngSGyNGp238e5WoKUQqQhlXLb7CR8yfI1QkIvUvDz329fscvvvA4gEjRCfnsQo1KTOJEiJhG8yxGfrRqfJz3bEwxRB9Mw6Bjy8OZeDlJHQMcu0o8/qqdKh3lJsHeP3su6758i9/ePOjDzDC5/UMIOyg260YzpQmguIX+ZhazxfzvEolzk9YuO3rdz3oqK13nUtDOrlWPcJsrmeaVI3IKCh1VEIGe6648+Z1jXFs6vkcmFBKtfMuAYqbmHMgMDxWbkmlp0QE3plwIJRStAt+HoNZTXRjuaFdp6Ugpy3qxiusZZK5WgZj2bJO57x0eJhCxzkcBnvhD34OSalRTgMDkplD5i06fuHWdNVa02z5lHO8VJkUCHGDVLg6A3ySghT3lxJeoPA07+rsp/ddd3trhfR8rajQTGScxg73IQ6OUqepDTvpkbW53zji9d87/m2nDG1X6eBndp1wUvdVwh3nnBCSgDPliJbK3dQIEKAYBYIcDGQGDGo+dcYSmJYmxZyFjGKoozUKwxjgLoo2Bs4tWB1CJBlLEkM1xilhJwniTAs9V5dKcwYvZRNvuuXnb/7dOZdOrKlzv+3CLqMqp1RxAOJlNmzpEqFxSAKAXau1t++63/6VAc9oJVFJOpJYzQBt8AJq1Xi7051bngMkiufN+/J1V2wAgBzwFkVyryYi1E8JD2Gs0EpIzCKAvz72VaQ13pFp0yV9VPagE/cozF6aNV7WWmftpK4ZriS0biNPnli7UgGqmKhUg4bJwXAFOsZ4jiEOHlQBjth+13nGk45QXyIeZppasQE163GW9gwNuUDe/uTDv7vvzofSdWWCxgU8B2QllkUiJTaPY96NXcknkhGA7Xrnnn7wUe884oSDa4uCx4fn9g8iDsa6jaZKM6uanSZufIGHBvv/RsaO+IzrCvOXFLkkj5ttPwqri+beP7b6U7/8/hevu/DeoLu8PZEQ6zixgOuMAS9mxBFZ4AhA6Pnz586L/AAXJ1C0EtbBtMkaPP2C1ug9i20deT41PpLKom3BCJCjwzMqTCUCwkGFeXNKNZZqARSP9tjMGDP1flbySdjMBidnLE6smD2jGCfh9VOL6PtXL1vfHEetKaVMlhO84ce4xjms8QBSsFg4cs4Oh/dtQbqJFSTgk8qYTh4LDhjNrJ5IOnVixoS9dXTl2Tf+7o7RtU+7BB0kLvV6pzUx0cC4yItKqCQLgCDzLewe9Z++eNf37X30+3Y5NFjb7NOkP6pEpYBJHngeMOhmGhs/NyzKiXrBYIA8V/WSKVSjEmcsVlmH2aw/Wt/HfzPxxCduOP+mJx/EGscBJ+44YoeBsbJQgEPohoRvu2SrQOCqnUQow/lNPyWrNFhnclVATTI04q3LHx0h6GHQAODQwzzXD7VDgSoYFNEO/fNFrDzGMR414NDcz7X63xdmlHVjWTPAQ51DpDpK0I8an7uyv7pbv3f5EykACzxrJ2FmsR1iAJgUjQyjAL3I0dduu8+g80yc+WRGeZI8kb4HlDY7rabLdX9tLTdXrHjkXTf89FuP3vJQPK6NneNV5vX2Mz/YYFIPnQdAZMBrZV5b9QPsWe59876HfvGoMw7z5kSr6+WmGqKByHBl5Szgz58vykegMC+zz69+SZTH2m2/XKn29uXW5Yz6cwa6JXnn+hW3LHskYc8gCGEKqEhbYJQBEG0FwLzqIILVIAQBHCUwQzLGYDONGEVjMtJi5vbVTzwNGHIg+tGDFucm5O1wqCkeBvqJv/OcxWHmPMKMtdjITLrhGUbY6GocbqP7TN+BUUKItZbY4tyNEPR7KiYQNy5/eIVrG0mndh8cjxbTxImAEPhxzdGO2n/elq/ebo/ezOmJNsyQCKN4ugJry7UePyxNpMkEcWLB0OO95Ot3XfmRX//gwifvX0N00yDUVY35ppVjvIl6lYEnPUEU7kNQ8f1j8r7Pv+rMfz35bTu7En1szQIIB2u9a5NGIdCk0ikU6CQAGA2zonYGgV6kauWLlspana6Nc9fJ1ESHZqY3rDwxutZwSgBQ/mJl4Y8rMEqBUNy+HAS4LSe5xgDHopH+kPTYBR0mtsBdH3H/ZGP4ke4GLKNndc4R/HOFXopfAmAhBFg6uADDUFzSmjigBAvYfbaIzhYjnABjzOIqdCCgYItuL4jCB1sbbl/1RAuA+sLmmk6qjODUdFrlQQAMPBEBnLHHwfv3LvSSHGZIIpBa53k38SwpyzCQvpCeX6qoiU7v4gVPVsnfXP3TN573lYvWPpZ5wsaWhjJzJm3HkBvA8RhYoh3oqAs9jezIhVt88fXv/odjXrcoJvHq9T1B9fnDTjYHBOjs6vr5Q/zJZa9ayq3pttok0zUR1GQglUPMtm0u8KhtEYmTvCnOF5WLRCRlVFkCGsFabOUAyprJRtNkhDNCCN4o49yttYpBG/SDa5cb4nSx2xddSAF6h6gtatBRO1jQM9AblQ0mAhjyokMt2s3SH50lPsW0cXqoBQ5EEKqzHIkCqUfk+icfWJGOGY4BksUaZywDklrNnS12JwFgYVsSnL7LQTsuWDyTPIRR3/eFQ1eZsFj3yXKJeN3xzhxeHh8ZbxAT7LHNshr516vO/9TFP72huXoV182QNSM6qrsOA2ACRCuBd2G9nhY06aqqg9dss/vfn3D68TvtQ7udwjNMjk0mc5wI0lR5suKlkjUmmqEM5vXPqZWqxrjEmITTNJQStYOuQQG6f+VMgR5KKEqNPo9RTqg1OvJ8ThlQmqkc30xLjHNK8es8Hr4cMRbLIgqeXL0CEflMe9zMkaAArMUqBpk2NVnqKVUwbAJKGGM+R6Piu9khOjtsYBJ/lBZLkDIBVCdZiodrheKHj65bua4+Zp8dCVcnFmUQAHpNCxkCQUC+rnnA3C332H4nfDUtpcXNCi2FUSQ8001bwxNpoystMYT21/rxaBmPNnNryYK+m/XYBy4750c3Xn5fa20e+KInAow0nJVcSCLqXGcVISJBFPRY2H3O4u16+vsZ3sX897CITnxAudBhYOElRb1BKW11JoZHMfJB39gB3eQmqyJC/QIX6B9xs9Aazy6O4AwmZXfA0CuNOUJTAAAQAElEQVRYh+d6IQTCTms9+WKajE76UWxTKMFYQkgQBCNjY9jUEXCIeCxNUuFMAQwDZbQHvBSEBhfNJEYlYZNNZifbaIxaAtOS4HxKRAU2I1aEPveksmZsxdg4o9+9+4blAHhRD2NpCB4qj+GmFIaOMwFOWyOGopJWfze0y/u2OXC7xMfbZlaO0ko4RkziqM/Cbpwm4BKftyKWVj3aE3olX1KiJR4DYp7nFUekgzGTLPfzlQvCL6y7/9N3X/fzp+55utHqoNPWJLO2Q11PTKLchQBVaT2qEe8QY9Dl0ryektg6zTRl3BsnbLQiqJARIUyrXGddp9tOdZTKjaVEogmnpZnMQihKRzHaMOAIQoBj5pzTLZL1tzS3sBZM6qwkGEXb1BGmtAWbcwJceEQEVoKlqArItRcGtKdkPO608XMXGSqMwyBL4NjCtVjag1201QJ9IQAhQAHHdYI1Om20EXEuCkJpgFnAZAloWth0aiexudWoUaJzmWe+6pK8ruMO2EvWPiYI8xPNOI05ZMaymAgtDIVe4c0B2E70sEaMm6cI/OKfWc2AExxxY4lubIeNbR/010gtWqvaP73z8iYDF8mk055i8sKcEPLObQ44Zemei3lZjdZdnlWjUgnRH8c9HiKasUSRJCfaWtzgAoZbuZ3ULyoaVzkyRM+HqkeTLyn3r1698odX/fY/rv/Nb4YfXStdJqRArebZVDNn0BjG+YGLBAQY45YY5Q4ZAZjMKjDQTrrrx9abWAci8Pww09WczPUrPTLUuF6Qy8ZQRvF7l6iJoGp5oAzTLrW6ZfM5C+biBVicpalJqbVgINCk7NjG8J7NtqjGKbCiJp/PN1MKfTQ60qlKXGW4p5Pnwcf3fXzFOUcnPbVV4uOs0PMGmRV+L2BCQ1/7YoPNLnr4zhs7a+oR6xCDHmiqocNJu0IniM4pWpjCaVvs+tpt91yA36NWj0KrS5x1xKLKEHmehkABMy5V+UjSGm2PYZyEMMUcCQGGnLEZOgnT7DrJR3r4FcmqL9xzxb/d8qtrhp8YAaPKQUpxewIOTDD8HEu6GDQDMCDYt5DKATE2dG5xWF3AgqEFc9CD18fGQi77/JKNY4xhcF8rWm7MH5qw3W436uOCoEoCq1WuFQ9Ea/UGqVwtCDjuA+jxEAg4jXzSxW0M/9lqixhFVgRQFJhSCIqD1M6T3BVSEXwNDoPWQmUENYn6KqqiCLccIqXM8/xlhlGNaMq0Fqwdsv+67rJlrh311OJGu0Dn8wCKsySTKRlvLomiM3c75D17HnnMnG1qmWll3aTmjaedrsqwmQTqW+I7GnBJggjVZwggTLHgAFCDwgJiNAuIq4UwUOlU5ROm+bs1T3zvnuu/dPNvn2TZKhu38WTBiO3m7eFxk6QBItbRIpriAlkIwnoIP3Tpzqfsup99aNVWfnWrBYti0GtV0/ZEohbWW3XYyNRYvbZcjkpz+te6ztPtUevxmvTYaHteXR02b+sjdtijn4da5wU0JMmT7kayn7XmCEPUJLJDp1AQlgCwppXGOd4GUFQwashRdKGodgIYPIAD4wAxis4V/ahS6mWGUZFYmduAClEu3bnqqYvvvaUB4JXKOA0kN+lEUQ+IT5whEplfxaU818Gblu7zvr2P3Lt/oY7jemeM+lJEAYZiQghmHPLsUWweCXBnR1UWmp3c9JEVEtZsEGocMmV0SQa1Sk8SyruS8fPWPfSR879/1cjyEUpRDCK8gd7+KotguIFqto44LhAlzukAYO95W5+06z7/dujrdlVh/YnlHZWqmj/suo28W+0p/lszHOiPp0XlPpXE6+N6XGKuN6LWzEnJft7AP+5/0nv2OeaoeduXATSCQIAWLqnyP57z7LZE5SND6opolTksIgILjKKDUEUtLapgshWByfdFhUW/ICWaDwlRi9Ysamfpb2rIWWI2HZuQywikNBSvnclg9aL7brts2d0NPCghPCcBir/YD2dFgCDVIcVPqZDoalftVZl7xm4HnbL9HvNIJFsZ7+ZOG1zCRHBBKE0VjHe4BVQlTsNC4U0Ln4q6I5C54t+F+Ohuc0cTjdtPEop4oPIw7X7+8l989LJz7krH6xJw38/biV+tJZmaFBO0Kz7lEeX6gGzr9b5+8U4fPPzUs/Y6bJGRbu1EWZMKEY2REZR5oyhrt2luerxgQESVdj7YUCcv3vU/XvtXr996j90xZjcOww782pCDTsEB9TaK+Sw2RgVOAhAIAC51hKWd1GdslEX78GLxGGPAOgAwAAyvDGyxIeIjpbR4NVWJz7NEaNxZ4jQTG8QnxjHOpXhNMadvhad/fN+Nl4w9htCcIuxHMBU6wSKILPdwH/E4EFuy5LDeJf+858mf3evE/YO5i4zPmkk3iTMOtBKKUsh95A4IU9Qmdkb94qaPOdKcSn9gabfe7LS6lPJSUBJU4LG8WeJ2i8Fbmmvf+70v/ePFP7q1O9ztC1oMXQVuX1QBJCinJyHTLFOhUqarto9qH9zzVT96w99+cMfDtlibkRUj8/0KDrdRxKtRbxiV1rUHHx05a2jnH73pw3+159E97YQrQOy6TLk844xKjGTABmA3ivksNn4GoK4IRp8DhyWgiKNTEShGaQa3QAQmKAOCkUlXU2z6aEY8MGGOO/4sivScGLPI8/9jlVLXVcoxHtYqEy4vbbPg9g1Pn3vHtQjQ/6/dsw/9vMSSHEBD6OFso9zs6MRZc3f6xClvf8N+Ry7uGUySZLTbmsCNk1pkzi1MbffIAFWJ6ESYYoFNdIPc4XkcAomw6yYZS0zZ0BRg3KZJT5Au6rlpYtUXLznvZw/eskFYRyh6BSRLGcMV4gliAdFDIgG5q7bNLm357q0P/Oir3njCjvvwGCXEATeCRpOWjtPDF27/qePe/P6dj1zc0qWunh+VcqeYZLjY0OwuTkE5bgjG0xvBepM1JQ6QkL3DPQp95bN+hFiH0oJDXOIbfOHQUlPoNMagN0XCXrNFmxyjPO3QCm1DjG4pnWjWs7R3/oIwZo5RSwlODmdCjMNpIyaQnLWO4x0QOK05rlzisIC0ayv+yy12/NrRp/zd9vvumXJ/tG5ssXcqAhSon7lySodsqeSCPCXN1GScKs4cxwMoRQ0S6iwraH4behKqLYwFbM2c8I6y/upjt53+06/czurL0xZLTVUTXCAYVSif0Shomhik9TwInV4k5Enztvjo/kd+7ahTt2ubRZYEPmuFbiTIxz2tqWXGZZITykmmk063A7npD9KIjI2vfkvW/+kdD//04Scfv3Cb+R6v+dYPHJAsJBxnXcyhFEA5aHabJk0AgBBGgVDrnDZIYCwHwimDWUq4mB1BmIElBUfiAEMmZiEiPGBCo1txTngSXQl1gDV7BD0a0ow5l5iKKHEhgEGVE5SVUgLNGHyhOOGp9hgfF7jYC7az8kdnhcsfYEIpLeZJqcEgBgDvJNE5DdZ6sQvq5f8bflJZQOn0VAk7nVZfRv9iz2M+etwbjhrcKhpp89FmR9gmVbFP6zbb0Bwre8HW/UM9+f/HGMd6jjIGaB60h7SAmkSr4GPG4a/P/vJ3b7vyts7a1SybEE5L7rTTjfYcGtJEtVWSl0TmkYbNMMLea/52Xzjj/SdusevAhm5pTb03pWXCM7AtpoJmgi6+4xOyuI/Vws7jq3Ybdt8+6Ky/PuOsw3bcJwTW7jTxGxxIoSkZTTsalwvupLhrTopYrdWY72VpPPn0ImRoLLQUIYUxrLVoPtSVTrNIFv8WH01GCAECSM6iOXFxFTlw1o67VhuJJwXck6yD2Usz2nK2hsBJ4rQ5L652GRCXKabtNvMW4WynhsCCwzk/8wCEFnHhC/MJPE2XKnOD6vyYHOLN+/Chr/nQwSfuHwx1xsclp5pYF/BSf3VkfGT9ypVbDeKHjymOv58nAgwFhCbeswYaqAPFoCth3fzonMdv+8dLfvTth2+4y02sA5MLhvcP0Mo84QdRacKkdZdK6lWIZybq22T0vbse8aXT3nHW1vssabpgvCOtM+j1BQlDfwA38ZUbsnuffOPCXb9x4l+8e8FuA+DhuqwAHYiqJb+kATJwLCjlk2uGC4aCOiDaGoyLZFTCxxeLtNaof/SvWJCUSVRSnNXCkodIBAKEoGAON3qHEzYCHxCsko80JhDcJeHhHOjLC6M4W+McYYUfxcM4YrRExNI5C3FxIBGHUyzo+TAFVMILKBQBoC6QiCszsa2svHar3T5z7Bs+dcwbtukyf7hZJXjQz1zVE/N7HmutLZhO94d+1JLimOVpQMJxECWxgHYkgu23GO73v3fPDR/7zY/PXXHH49Ad5wCRZzV+CU3KIPtJgB9RuYNqVOnlopLovfzBfzzwpI8d98ZjBree27aDGXQqHD961h5df4aZd9kb/uFLR7xhsSwpYypUmDhlmcVAglhKYpvXO6SbZ5LVwQ53OgbwRiPHQxoW1HSS/3nqHAYXGLZQigWrEYJUWhI61hdVPNzgUF+UooHwngQbGGs5iguQSbKmMWbBeUxgIIUOeBalpbPIa1pWOBOsL6BFinCKaTsUVhbXBqgFJHz1HCFMkZ57/L1C5CgGSW2XpQHNPIyM0v7M7kDL75+zxzdOePtbttitZ327qsESsyae6PT7v9f9ucfnhkAPipUOQNOChKWNZitmVCwaetS2v3LdxZ+84tyfrbl/HYcJn1ImopTwpiZtAzk4ybTTnl981Qw68aG9i/7liDe8f7+j98jCaivbKmafOfaNPzjjPUeVF/KJthQsDRmjEAY+4A8OGSvVySIe9YTlh6B52cN3XXHXrSOdDvek76HkBRBQtheFnLFoMsKosWg0YA6kgTmVnv6w7AH6eQfoRwkY3OmxAMAQoxSaoNa0J5zA6QEmUwS6+Ds7tMkxWiwpSjAnnHHKuHbza/19lOPASM/3o6gSJJz8tASp86Sgnjdi4glIpS+F4NDuVFLY2ZT+8fDTPvOas3an5WBtPUyNGin+nc60GuIWAw5ApE5BE/f9Z5q1da8s+Y6PTdQTStmiofvyiU9f8rN/vfmXV08sG/NZHnEIOPgMJIxMNAyn9W4jyWL8Llp1UG7HB9UWfebUt35w8f7/9qo3HjBvq24zBg9KvWVjcmF1fWLcAQDOmYOrCjdYHi+Jextj37/zmvPuvenONU8lDIAQq6xJFDaBFykVAKWUEIxaHNoLj2uosa3nLqzKAAW0eKggxd0o7kVoQ8YYPqCzHdbx+rTlfIEfQimlGoq5ztYMUGezxWp6Phij4ISV0UIIyTh3ZF7vgOcKoEx1QJgiYqbKDgDRPC2BJHmsdKtTs7QHBAVrqHU1L05blEE1t0f2bfn5E876yL4nHOH69k6iKYYvzHF/R99gCOA5CWNTRCqBwlX0VntNqklm50a9ZS+aaDQndBYunnfuI7d97spffvHui69XI+sldAXguX+or6ZsWi6VgnKYJu08SQbLpaW9g0v8ytu2239rF/ahR6yFRJ8tGQAAEABJREFUbWIaJpGUeKnq7+lL43gi7oxTtwbgduh89eHr3n/Fjy5d8cCDyWgrEhhHJFprBKhxFOV7oeh/lhpUPoLMUYK+kCEElSkwumBxRAQxDiGLUqDrxOWExiKCEkJwnY/lXYzXaeglWQaUoFax2WzRJscozhmngTlOmFHKgfRGZaYL+RGdzw1v4Zmlp62dlhwFKUVVRhUt/NRyg3dCegzytFbOAiElL+ewrQ3eucOB/3bcm9+74yHFANP9SQN4YMJVgWEoqnIKDFjTTGPGZcQkpIZnphZElVLFAgm3mDNaIr9++p5PXvGzsx+97inX1QCmpUoU3TgYq0QU8FBqZ9FmEkgt8HqiEAwQ7TxgBUMA4nuQaUaIV4oaYC9YducHfvr1L9922YO9Lq76qhbosmcAlUE8z2PCAwsvVkI/ihjF0bGAJsMZUuOG+vrRcFh2ppAMtQeUYBskLGuAts5ip4ngmcoJpYhafDVbhHqZLVYz8AlkoGnoZMeRepbVFN19aL40GhiHwqsyoIwgAA1a3lmLZyr99buvOeNX3/ldfXjMsK4mPpVBq/h3T5mzTWY6AYt9EQPxMjeg/R4HgXOACOHOUcfBbV2qvX6PAy/c+/T39iyd284n4sZYqDs9QvsUV4shulwKPAe2FYvcSjw+FR5DEgYxUcMka1JtCCWGaQWxto3MTgAdLwcP0+ycB2/5zG9+esnyR7oVAQo3cNahvE54Exh2ERZ4Bryb5HhVw63mhOYmSEE6gb4FP3YNS/rbFQ/9w0Xf/ferzlsFzZ75PR7RXgrjIcXgeJ6BMmdKAuC9r7CugIPDwxXhDAkY1eC0RTXNoOeNrEbvaAngKsWhQwVI6DIyDg2inS/zJCuHJcz7gvJBi7fbWw5aowxztiwVswKgBJQDAHIgKnf5LQ/ePe67Edd1BKosKDuJbKcl2PhEN77LxvXA5fj8DoQQCpg9swqf/2qqXPbDjtV3T6z++q2XfvPeq+5QoyMMTM2DzElLI+DMGKOVtTYDaOkElTLVEXPiMANkTQG26Bl8y4Gv+ugxp5/eu3TB0x1vxRjHUM+jiPIN3QZ2n9fT2+OFeTdJrWa9UcUP8W4PrMWIyiA2OEPOaZ5tq8KhmHhdhRNpeXB7uuHf77r0bZd857HhVXWVlAjvsRBmSiBz53Kim55zUmqlXLvLCQPCNuTJCIWLGsu/cfe1P7z3pmU6DubO8UtVkoHIUNJC5pfOX+D5SZKIUogIZpSodnfnRVvViKSFXgsxaZHBpKaLEqI8J2zt2AgjlHOPEBKnXSwX72bpb2rEWWI2HRtcTMS5KfSgxXAOSPTZCb+wR57ruk66Q5X7vM6PV939hVsv/uZDV9+RjpqQZMTW6w2S2TIXkfCZJ5kfWQCHqHyWEZ0sYMWQFAty+qpo4b/ue/Kn9z3pYDHINzTyRgsiYTjeKNisG+dpVq5EXilcNz6iOx1mjceZEIwiuARyssaoVtYVnqjVahhONOLWcLc5TrNuzasHAAFeawPLnNfRzFLGiJGc87BRGIl7YYSzjD14knS/ec8VX3n8pp+sfeDmbHR9RGP8PKutU1AW0aS8L6EsoB4uYCcYcGK76YKgvOu8xQOEoDrYZI6yOiggin9ICRPLk/qqiVEGzKccOOukCQeCzWaL6GwxmokPuh+wmDk6KTfmHAMWSmds7/OxJM4YzT0eV7yH8sZ/3X/Dv974q/+644ZlLJODNRqKdithDgJUChC8kzPOYe6eTaTQoOvWWzzJy4YtCUqn77zXR179xrftcvBOqSeH2xXlKuWylnQ4rreTOABStVTFKdGWMeYIoE/UzuIhLwzDp/rI6rKbcAnEyRIbnjh3u3/Y99VfPPAtg9VeAdTgNDiB0AecEC6XNBfNeNAvJwRW6+Rprs9f8eDnLv3lLx+78851K8ZDIRbMyX2/mSlLBaJYT4XDyOQlQxQPScLLVG4yJePskKU7D1EROJwfQUeD/gUlRU0bcFOUANzw5CMNShCVuFOBYDlYqjU2my1C1c4Wqxn4OFxsgN4UR6JAEKCEEEZnaAwwighhpMI9N9oRifUrpZHQ3dRc/eU7Lv/STRdd2ViJh2JXwY9E4FJNO7md9KMIrCmOhR4dKhQqtTIri0yYGDRKsEPY++49D/uPY9/yurk7LupAsmYDAtHvKQvJwtwMadHbU0UPqlSW6cxaDRgxGy2MhRJPk44erW8L5bO22+/D+5xw1rxdd1asJwWTJok1eDmQB8RysMpI7SQJO41kA9NXdlb/5YVnf/Ka8x8jcSPkEQ+reLZS6JxyQUW11otueEO3PSX2SydXylD0INaZsfrOvXOP2GZHL8lAWwroSguYoqjoFIzDD2JWgV0P+ooH74XeCsEjQ6IIpcyXVFtsNltEZ4vRTHyIdWCfgRCZTIxQMvOwDihYEhJRoTIEFre7mnPR39NZVLto2f2fvPjH37zvitvS4XUkjzklgUQPasA9l4qxXDEiEJeAajOF3dHbmTSbm7H9eud+4KCT3rrrYfuW5/a08lJHVxyT2D/LpO9pa9B9BlFYqVQEZarVTcYbg0809je1t2+13/v3PuaMXQ7avW+e1KDqrV7i4dcXY0wH1ITLRk2aesyVPLwsXMbSs++85ovXXfQQjxv90TjV1XlDPVySZkeN1WWuA0KNVRpNjGHeTIp7keotgFKqRESPZifuvM9WoiYBcpdMmo6gC5iSCxWOujLOPjS86oGxNboSUEuIMpo46nNhkc1Uw1nIZwbLLDAvWOBkpginh9sBJQQJ0LMVL6f56wNmM7N6dLjrMX/+EAQSz8xuotNM056tF8ZDlR/ed91HL/gBXls+5drDtPCRyGVKJVOTwYGwkKbdkLIa81zedSqt+h4eYDaMjsyn/ht32u9TJ5z5rm3338tWgokkydOs5rfiTkclhjrhS+cwWu0GQBf1D74uWvKXWx/0d/scd9KCHZaIkFjIUMC+EALhebJYSJnj2mlOlrv2XWrsqxvu+ZebfvXTR25bFjeaeVqp1JCefnpFrjMEJaPgC06MTlstlaXlwEfhX1JEhCSoKdzlt975iG12rlgbeCzxUMEEJnEK1mEy4CySc7c9+khe8lsWFcB9PAQaTTjzOB79Z21adNY4zczouTFwjthqKsfCtKRbWTkIvcG+BlfL4ommyvujylwaVvxweHR8JOvwBYOrZf6jmy7/zhW/vnn146i8KcA/46snmSJMA9/HZc07cdV5iCSndYcaPqdP5XkJYEcevmv3I/7h2NMP22632KqVneFE42lN59Y0W60Na9fWR8YGa72H73fg+09504nb7zEPuJ/iPYLCmBUYxfuXcZXg0AjZCGQ/9ynw+9Yv/94Nl/z9Teddp0fy+bXqQH+FBcnwRHe81dc7kAfURYKEwhLcN63HqHDOJBjOwUsqEcEwEO/Wmwfvutd8CIWyVHDDBKCWkZ6VFWE6RY8vX+YP9NWThFKK0LSYwEm8WHy25f/+9zn8/O9ZTc+BViM8JEopE6MaoEZc2tCpVQ5NZQGtbKkrckedYi6nroeJhYO9JmnP8aLetqoSBpy1ncJIJ/SiwHoGMSXDkaHe883Yu++97K8uO/9nq55cSZlmDIBRDCbT1Lq8AaJFBNAIHMdrQO6YRxkFFvoSHWez1faM3qfa/897HPWDPV7zxd791LrRhUF5i7BaaaY7ufI/7XXc2Ye86TMDe27BRGQVxChzQgSxlKKlOMjAC8CCUfZpE589/Nh777zoo7df+Zt1q3p7hgLi8dQ57XIGJpLUYyTPO8LG0sXUtG3WTLudNDZWU0Zawi6KZdQ2mgEuMwZgAumATK/Nja/FEwx6Pq4tw/GISbkyoIW2g1rQ3LRM1nIqy3PdSWimA+k1SbN3ovX5XY49s2fLAKDhaUdoTek4befUppQgNHlXSyuetuknb73koQFjqO0Hjp61C7owtoINkFsC09LGzwCDvz+h08Z0MZPJGcs5B0qMtXGaoLHRHs+xQbeHZTRLsWIYrQSRTXPsh8GNwh9jHC/eYJsper4nvqe17rvX/fbsmy69qzNW54gJIcKIZa4KUObU+KSt44TmWhAOYDp15ICbkfQ4o5QBVJnYfesdjz/syP94w3t216XosfUnLdrps2969zv2OHJ7D79pgQTodpOWzlw5cAFXSmdjba+RcQtNDrfL5vcevuFHV/720QcfYsrWahXkPy1FqQ1S62uIqMCNoviOGiAkPJ2mqBMUCd10pmyeK5wqwUPztFxmr3I8RKjSHhHMCSqlKHIet4GQYRCt7Z6y0/5H77Yvd6DRUhl+C0XH74VRpJRCHbrcMsZyQda0608O4wl29mSagRMqZIY3s1SNGMO54Q4gGEdsKWtGWw1DAZ3nFEzd5EBTciBMQcBQtUfgp3mtFXHaGuxuWPEGGyIHzJGeKzwpkjW97Ber7v3k78479+m7HsoaDXSbUUiaGWS4xAFKoRI8LlxYPhCUAaygzPM89C5WGWahAjCfR6+vbv2xg0/8z9f+xQf3O2Zf1tOXZn4jBdyKNamW8BBVjR16HUN9Xu0pS897utU455FbPnzlz3+0/K71ng0rZZxCY+Zzeq+TJUN5bpzS2hgMKlKrOyoNymVCHboiA8AEVVYlcQdyjXPcpDTiKbyDkJnSrXZGDesv4VbWXLnmDQPbv2GHfefhsQedJfeqXsRyAwaDGuIxTjMjhFScdQGufPDOFWljkwo5xRwVO1XYVDmCDAHqtOHoRwHhA+smRjMo9rXnYDo1NopCsMRgXrm3DzzQBjHqnLNaO0YRlEj4fiqfKmC5PL+/6UN3MLrHjH/28vP+86aLb2muu7s7BhUvtXm320YwhmArBM9eFrRygF4BEPOcEZfrvN1Rrdh2U2+8vmNl4MChxdvIkt/phMYAJ4AbXLcLDjiSJhZIl8CTJL9y/OlP3HzhDx+86YH6SBJKWwsbwrapBomOBkWbhvCwywi1zqXOpMSmzKXUZcSFiMpGR3UTBIIBIIyqPEfxYBOnQh7jnLH4/bNOVDONaynsCT3v2fuo7XmJ5NDJEsCNCKilDChN05QTRoEYY3OP3jL85I1PP9oOZpzvLIpPZ5HXtKwIIbSYGLpOwAAFBFszPtICZydhOuVKsSNxeFkEFADtNC+oLq0MCu0wamUOlQRFZ2wEgNwAinyqAADNNetL0kM0J5GXLu7/9fKH/u6C733rwRuun1gxEpAwKksFvJlCNyOEaYp40xYZO+RbBJXlcqni+yFjlLO0U6Q8z8NSmUQ+lISOmKyW2o3W+JpRahww+oBrfemey9/1u3POaz+xIWLzewejnIw068Ms74YsRxijTNNRI09ijHQCQcsBDxEhQhAqgXobGnjVsLjWZ3XxH7hwTv3QA45hyHRcZq9uUDEfnaIneC3KnSaNzkGVBR8/7LU79A4JB44BrQUtg3ciWkvPSUqYKGwmaEc43OB/fOvV7RLPZl6Tsycp0FnkNS0rzjmeE2kyCOkAABAASURBVJ21xuCydcyT6yfGRvOWA7DP60BcIQrmWD8I3p5zt/QcxS4eYQEwYt1zoHx+Acv9LGit3kBzU61UOtao/nJjoPyLx+7+3M0X//ChW+5LxrqCWs9XBhQuEREgNwZE6UwbDdQCAcKpFMJWAlKJZKnEpa/AxWBisDr013U6orfiLxx4PG985dqLPnTOV899/M718wKYP9iltNvscgVBFCGmMSCxbsY9uqnTjFiQnFJKMkVbiT+RVBr5UXOWvvWAo08/6KgBHmB3fIvnSwD3PN1skiIZa/o4Hl6AjY4vSOlpi3c5c6cDDx6Yi1tNpnLL0Jlw3P0kwfnBiE59wZM0bzvbZuw7d15yb3u9rZU0GmyTSPf/Md3kGGVSoNKdc0ZpzL3AH+s0x1qNKSPYSWHIVO4KmGJ9BWCPhVsjmMBaj3I8ZDhjsQkiEnOk5wpYRlo8f4HUbnz5mhKRfT191pd8qPd+1/nuPdf/06U//+5jtz4ss24lyrnQWfHxkeJ4hBinldEa5XI6N7km6D4YoAiOSGAeCA7cAvFKpcfwe+xjt3zsuvN/tu7+tVXGayWWu3DC2Fh1Q2EGK1QK0+iwJOvv6UV5piUmOGMMAxjSTr1GuiAT+1cXnrh4l3cccMwp2++3NOoJHXiTPTVYA3qyuAmzXKtca57opTp665zdPrjTUYcMzYcMOAXGCIFi8vidInLAANpZpjWIUK5qjt/eWXPhQ7d1esOGSiRieRPK+Axr+szvJvtBw3DO8cLGGGOdQ1MladpOYvusr3Coj2dHx2WJGGUWFvUOSoSLdYJQQRmCe6oJIc+0JuSZQkr1WH3CZ2LJ0DyemYk1I2k3lUxOeLTeG97rmt+5/8YvXfvba1Y+lhPic6bS1GojUCYhCeNACeZMSlSEMei6wXMYE4DrKOiqwJB7lz1y7jWXf/+OK6/P168d8FpB4VgWkWirFu/zy62yXGU6rTRGd14jsjVe3BtMifp7OR4ZqQWSaRGrPif3GNridfsc9jcHvHq36two07SVQTdlBPXk0I1RisD4PQaz/Oj1Vdt5UhX+G3Y/5K/3PnZnv0q6YASgYiQTeA/GlCMYY3WtTlVvVNW5QpWzcvi9X51rB2t1l3czDG3QXLMs2AvZoWleWDmbNWk3bqg4i6gleck6lWRmweC/33m1BWoSKwzN8Pac0YxRS6lKUp45R2FOpXrs3G0WWrG6NR77IsoCgmEkghwJAevwbsZZAugVHfeN5+EeNJZn2hNhuYR4pYnKGk3py/KCoWZVXLL20c/cdsmnH7z6PDM6JrwxhXgAZjjXlOWUQOG1HACzhGYABvAYsbIkftJc9vYbf/HGRy/5vl69tjfkfhTlNDTccDpG8vFKnkDHS7u+s+CxlnR4d+gLv266TkDF42VnZdp1tqOCPOmxaUA6jfFgzdgxtPeTux/9+YNOem3/4gXaBCmOZvKI6ZJvgHpOlFwIDU2UVQS6woRM2G6OzHNjyzEV2AhlBTAUMLxGJeATrm2FIQ2AEyRReG2nodgoLIYMLjNYzgWdcLmOJF6SeJ10IAO3Yt2pi3f6t+Pf+KZt9i4zMJDjAmLEJTaHdod2HTCSBtAq0RIRvRvQAOKJTvzlu665wU6sz7pzyn39parldDaxMgOvTT4GMZZZkJQJhkuUOwKZ1V2VtdJEeNzkhgFhAASKxITQzuapKQPdfculFcdREROdlolk8XqGP4pWevYV8sciWm6uX/U6ebxhXCEIyuE45Bffd+snfvjNCx657XHTTHzRInai0UyabWjloq1oCh4HG0JbwAPd5vdvufQ71/7mjvGVyG1aQohgvbDgaZjCjWaQMZhHorzeWdNsTPg06S8lQPPxjre+Aw8sx839H05+8z+c/o6jd9ijV3o2VTTTxPeoJ7FvbPOCVJapDMEHXBKgzhKV5WkaO+eklFyiqmDaRJyzUKiRTSbAqJcUSqWewFpBgWsrGkk4Fg9lbBuv+p9v/cD7Djlpv3BBBYAbZ7A7zl8QQxwtl8Cn2MvmygPQHtSlGg3ggrtuuPmR+3r6++bNmavzvNvt4g0abPpEN/UQ1AIHgtsqYhQY1eC6VjVstmx4LZpZW9xeKCoe1ZnjwVZyygvV4heOXYcW79I3z4+1paQVzijmFEDRkTzXYgqmGM/7GoQjQgiK1+89UdwXTPSIsx+4/uu3X/6LFXc9DTHvrwYDZeZJSjl+bMYY+UmV/XrlI/921S9+vQpDT/IUdJ5j+3uFAkZQoBNHCRQwB4pCgnho61qtl/fVmnm73u30lmo7hENbNvknDz/9b/c9/jXzd9kKZBl10lWSCxl4GtCHEQqMUUYIoZzJMBDlCKhtQ66MxqvckhfgkcUSG+d4Yft7gjzziBqwuFYd4E4NgOoEijnBg6nDUpJkrtHdORo8davd/+bQkz/26rMO9ebskAdVFKOVs0yj/7CcpdjT0QRszgB7+TmhOcQAGDV957HbLh9+bNx3LPTTVkd3UyFEajVs+kQ39RAe44IySggYi0nh/IlLqbvpqYc6qIdIEsFQkagTfGsAOKfSY7hD9QE9dukeQTMNBMdD8Uxyom2Q8C3BPwD0oEiIfoNoD30R+pq4Rqddj9uKk7C/Z7Qmr1v/1Lfxc/+tv7t4wxN3Zs1lnt4QkXs6rdtaw1+74eJPX/yzu/Pxbn+p47Ge+fMmuU6Tmcnx8FSFKENviksRx8VtO+sL0UNL4ff3zC2nVC4b2y9a8G9v+Mt37HbokQNbzAXwcsCtBDhzxDoKeHbmABKIDywiwiOcILYcJJyuaIyuGx+nlJaiiDFmnHZTU51GHPCZsMaAQ1bIr2hBigxyMKlWyGS7OfPPPOjY9xx0wskLd9kOpKfBM0QC51IST1DGtNWJSiLgzhXBD7KiBG0Hwza/tb7i7AevWxFqNr+vi3vgRB23R4Q10KlBJkfaZBndZJyfYcw4B0LQElopneUaj05oBcmvW/XI09DJcY4MQDvMUI+qiDOLjhKglLoDF2xz2BbbueG663SL2un+kMEUTb10gLotqB2xhrAdwPOok7xAhGp1G+tHTBCIOYPjkbj46Yf+4+bLvnz3VV++/9pP3nXZdx+96e8uOPuCZfd051ebElJrSjLorJvxv4Ge8tY4KDry/yYLwzSxkvj1bu9TY8fLhZ8+9oy/PvykHaNemVmOpxANwAE86jyaMNOCzCeMa2AKWA4kB1CglVPajQM8PLbu4TUrmkkXV69WGaWk3FPGEaelShgVgZQDgq8d/hVKwB8JFCiizkTAdh9cuL2sDFrgLaUlmABcRMAD6wr74HorUUENDQmlKIh2KGqHwB0rHz/nd78d82xTug3dBsbGfX19HhfdVhtdKQ6xqQmF2bRDKOoUWO2s0waK3QgQi5SzB/Pxm9Y81sLBUQSFIQBwOnl+t1orRSUrSz4f2JkHvaqvbfuyQvPY9oWEwe4URPDVpGkA0YPUIToBvAJ16IEC4ZWDsBSEmKs409qQKLD9lTVSXzOy7Lwn7/zZk3ec99SdE3PCbl/Q0GlUKkGuW2uH+7wI2U5LzBUD4Y6fcTCkQAZ6ppICrrResW5J0/71bod/9tg3nrpo20XAegC4R4kgqVFJnqdWZWAcMKwGFNoiImxREGAk5JJ0JblhfNkda59en7QgKC78rUUVasynFQYreytVidCyhST4OEWITYFjUGbAqCzFPV1iA8ReJDakybjWbQCMHjJncBkwQgXl2F9nlgKkkjyq2/9173U/u/26h4ZXRcJDXFqFMljf91GrRuPsydRAmzRHYTYpf2irLDMadYCzEowJzlEXOGS7P7j2ifufzsYw4MRHtBDuN0igjCMWQYaVvoUdg9opO++7lFbxcSYiaOZn3011tAR8BYGlPlAM/Nvtdr3d6iAyfNYbVrNOOjY2kaC6pVCMusCvzp3j+quZL3r7BkoyrK8ZEYbOm7sAmzzL+Pd/cXPHKsWKSwCEKZYDDZUU9hgxH9ztiC+//h1n7LL/PENkYj0LqGWNuwUSJ0RS1AFigeA6SNv4TlmXUJdLaBMYBndfc8NVKx46/84bHxxZq0q+Vy05DoghY0wcY3yEQ01DNcQoYt5OvnLOKYUl64BplNH5XuB7UkiOlXGejWVJL/NrHINwEASE4EIiep3RRevE4vKGp2z8o2W3f+eJW2/LNpB5/eW2DlPbG5ZDz2/FXTQornmKAyDHTUyovU07QoznUquBkgKjAs8vjKAHMpYO1R5et2JNfTTRObrWKSEooDwEW3WyBH0AGKCpfeOhJyzySlMNXphTV9Qhz+Jn8s9Oru0gszIp7qhxs/PDwKuWTCRjj8StdtkPa1FZp1nc7viUB4TndXQoEHe6ExtGPEeXzF/oSbm+Pta2uPtOMn1Bhn4U6xQFPMujP8Eynu4DBT8884Pv3PmgpaxUc+ALbiDPsq7RaTPpdFUKpBDOatzRdQi8zy8leNLiLhUEd9VRUPduWPbr26/77iXnP7B62aiOXSAzsLjGlM49wTBowYGmpVIQou6AFBoEhLMxk4oB9Ndaq1ilcZ4CJgLW4zbkIX6qUCA1hp/AACy+YswJVneaB3J9q/7z6y8/94Fb1g1Jf4clScgHeZhtmLBxVqlUgBJlNJqJPjsI9t50VMxr03FHzkOk5PNAc5FSanErzIBr3JN4ZUMW9fT/9NE7VgQyDxi0FNGQTE4dAVzyAjxPaOp8areK8+8e8YZ5lpasSUnejFyrRKLeWo164WgXTwoM1z8zGS/IUMOtCbTJOVeTZAgDS2kOMgW/6/DklIKxjHhhgHuWdhbvwoygta7td7IaRIq4saTdRgaIUylzRdPMZqm1FhePL30fOFXOTAiDiKc4Nwd9rWx/G31sp8OvPP3vtsu9xUbihU4KusN16jPrSSBsLvf7HQ2d9SiX3ONUguYQ86ALFUs7jN5q6l998pZ/uOM3Z088et+WUXNuT14OBeckSSkhIogyJxyEbZJnWpW9KAQf72xtp1vNVH+n+4ahrUayFkaZ3FFAMEvPAzAcjOc7KiMR+jLUxBVhiVK9wGNp28JNUDWq8xb6XSiuJrgmivLfrnz6Ezdcev6ax1sBwlmmzcQ6+pRUbqiXcy+e6BjlrJCpA4u6RRtvYtrkGJ1JfgQZfhQdaTVvfPyODBtxhtt9IBgWkZwDQpDIVMKaNx58TNBI/XZaMcyk+cpVy0zJY3N6Mg56chLCgrSAgT82RktgvlGE3hfpuY4EgLqC5rFgkAYhwdOuS0yWGGUBCGNbQNTXUvyp4b71nRO32v3vTz7zuKV7ySwHTguiBP9HgXBCkQShTtCuypqtDoZ0YCBtp1mcgQfjETwl7aVP3vu5n33vZ1dfEguozhtspTHMkBQFybjIrcly5GXLvnG2CsJjnFP2XCdEnQOHj4nJcafCkoXJOqyy1ihkQ6VxvVYMEFl1pJ2pFSpbzuFT1170o/uvv6+9Hk+cSlLsw5X1DHZ70Yi+WCPHgnaIW9Oqtm+CAAAQAElEQVSeuPaBux7v1vMSNcYRVSjy90QihFBKj+vf4X2Hn7iUVNDh0U5SGRpc3li/geUph5wBcSAMePpZjG78tJAJkqGAhAIwC1PEu7kEGkQ+w2ssCqnKnNKBg+qG9uJxe9q8Hf/9pLf/414n7AylPoAB4QEnwAgQyoFKYAKoIEXZAA2jck+1hxiIO0kmaDtk66z+6fAjH7/63K/e9NunaeyGquu6jQ318UpfD8yQcE36wPzMmkzVMZAoS2PMklJfJH2EKZnqRQo1ouefUgMWFKIyz4mxGKJEHrpHqbTyKM4WIMErK6h79LJ1j3zgN2f/YtW9t8Tr1pfB9EYkkBZf5hp96BTjFyWfmsWLMPT61oTsKbecWZE0L3v0rgmA3CdJnOLCRZoSiBCgz6YtAU5avNu7DjmudyJdWhlSrQ4L/JTpKWChz0MPioQFAHjOHWL5jyR0xohOdKXu2Q7IijnQVdkRpm6zhCjhiT4R1jIXjnT3H1jyzsOO/9Cxrz+yb/GggnKKpxNAz4VD6+IXEC5IHNCFEiDohwHRCRYUUFcNOqG8sbX+szdc+JUbL752fMVYVZj+itdT6+3pL8tQtfC0/awc//8vSlgIpiyGgxrDCaukgX3mbRUJz8O18ExjZ5xDaFqL90uixDBAESHHAIOjhCrJ00bH46IRpyOqu1ykF6585FOX/PhrN15yTz5qayFUMVz1meBgHRhLCKGeeIbxi/HzomGUAOVCEl82fXbV8keuHHkCj6wk8N0zCTCRwriFE0Wgirau5nbX8twPnfzGaLjVm0CQGfxSirhEh4eNLSmgibkj+PSnEKITu2NPzJFJkQM8Dd1OhfHeiFlnNtTD0fY+0dCbdj3wnSecduQ2uw9Rj7Zz2skAjU/Qpuh2kAGgCKhZVhSheMDn2DkFeB/c8Old8cTZj9/81TuuOH/DIyMkZwO1oK8nTtLmeN2ztEdGAbaD6RMDguDTYHnoAyGu1R0S0X6Ltwu5FEBxUCCFEwWKQwJxjjkiLMtbSdJJc2VxKZLIIz2lYZ2uj+B37ZX/dO0vPnLTL6/TI53BckfQCpV+Zkkjds2YJooR6jyuJZtemj9LbTGpP8tAvz/IULU/a3d54Le4fdJ1f3L7tQ/mE7itusn0XGtCgBCCGDVa2U6ydaW2Y2nwPUecuHvQv0Uqs4dXlnLAaAnxhA41FaAmlckQbs+x+OMKBAAJXRSiE3sjQ3SryC03abvV0sMTfS2zlz9w2la7v32fo9+zx9ELQHpKmU7i46eyigcMw4DUcTapUIdxHLHOGWucVc7iTW0ekpYPj5vkV0/e8+VrL/r+7dfc2VoX9+P2X6vX62Ojo2Uv6I8q+JkxabZrpTLMkCJLUbY2NUpSSngU2136F25fm+87yh3gFLAfToExximjdFIcdIiBMBW/69HVoB92nZsbay4bfhw/+X7qyl9cnaweW1AZDem4TqgvS0SElgYaIk0iwjljKP8f+M6Hw21qmpzDph5kOv6+Ja6TC8YTSScCeKCz4fIH71pjst9rSwiQyZQJUu6JpIMlXnTw3G0+cMzrDupduKOLqikEquiEgWlHQMYALcRtUbNRf9gFiaCZ8axBinMYuhykLf3ewYZeMJwfU1704UNf84H9Tziwb0HJONnJB7joLQVpmrU7HbxmxFsCBhasAV2QwzjRGGVwSkj2UZJftv6p/7zlsm/c/rvb2+vInN5qb59J1PiGMeJo4IVWO20BY1YiveF2aybhS4qAYONUIW4qji8i0b6Ltq0AUCCTbtxYa4ESQovECEWFxgw2kHw5JLerkfOW3fHlm3774d+e849X/uTK1qp2f5BwGncS9MGCy2a3q0LhIk8EvpQSuwMuM12kmeT5M9TTP8MY0w4Rjzck4OiU+jITjg323vrYA0+NrJ10o+75XQgBQogo+ePtLnYIHFQU2S7o/asjXvfmQ48LFeCJHnGJfjTnoLAFANt4jGIXdKJkcmB0VCiBmULqk2sPGtjywye9+cPHvuHA3vm9BkhXuU4aCQmxAwN+6JWqxfVt3G3HDQywLR5NnLFICBfjLPohBfYbV1/43Rsvu3rtoxM1afoq9bSbNuMhWenp6amUy4HEm37XSrrDrTqCzwYzxn+BpVTwFHSSJXg/N1+Wtx2Yz1Fs68AWg+KI+PQcoU4eH9tw7tWXfvZH3/7Uj7519g2X3NxYubJs46VzR8ukkcW4wnsM91KDm0+pVllnumM2bYLqqCzJUrxC4Y6UpP8cwz9/YdKkm3JYMzkC2n4KAWh+3EAzBJN0tDiT5qXEDCqp4/TJinvfnRfc25140iSj1GF4mgP6JaAEN1InjKtGYe4chmplnw8CbO/gL7fa49OvO+ON2+++bUqq61sDbVjAenpIlaacMAAcEu1mNRhNjWHWSuc8XeQceTLCGBGUeACedeh2gAEVlAe8IgR+1J7fShcNt792ylv+Zp9DD+wdnAsQWkBDhkAiY4Eo8B0QAGUsxnkANCqrWk3gJZPmOiVo9NT3Hifw1btuOv4/P3txd+VjfpqWJTpakaRlIL6AVHetMXmepypHzXieF4WhxwW3MFOqdahtdMu1Uo/He+vtw+dvuXW1LwNITGx0ynMlgFggeOZKwCFuU4DLJ1Z9dPWtFw3kyxZWkr5aM/BHPFoZh54sKIkqeKHi3BJGNfDY4DWsZ4BipOtx5wvncSxT9PAzCbTp6+mmH2LjRvjSDRcus20NYJqxlwNTkGVqQqMVnuHzzHbsnnk8Ts5/51YH/O2ex7528e4LM95av2G0PRGH1NY7rJN5GsrcC6WHENRad/HkIBwGc23QbafwfjF2CKfiJLE+GcOrHAxARCutrG/tmUcf3OGIH7/2b3YoDS7xan0UzYUwBOCQSxJHvJPFqVEYWsSCKUG73ZTFpqrASOhIiGtiNGIXPP3gP5377Z8/cBPdboElMC09M40/+meDS2wgmHGslfYS79gDDs7jLi4zwTnekFpOtTMGUDuO5oYqaAA8uOyJcqXCKXPGOucwFOFcwssn0ZeaqFdn639w19UPjK6qlEJAJ9A1jDHDqUXlIkgcegmH/hEJK9BPkDWNBVqetsXOnzrk1M+d/Nb37H3kXpXBSiOW1cj6vOWy9WlzVd7cwLNGjcdzIuYLKpgjzhoNWjNjfUd8QnuNLA13KuuaeDD6y/2P/ZdjTz9ru/32ILWtw755XrlCBbUYmwE6p1RQ7cmgXE2JraskBzAA5dAXGBx07EqVNQS9Mdnw95f/8ONX/+LRUt5aVLtjYtVs6bleIQmxGImWG8lr9jpwIURVUfyfQeVUEi60x1JGUqUg1wK3MGUf6Y7ct/yJqFbBVYoRMkXPn+kKQ1TPlkSbnA/d5CNs7AAL+655+uFfP3jrg0mjCYmmhjMqU4cKN4BewBFk6Bxm6JawMl9QyyKWdrJSag6WPe/fdv8vHvb6b7zqzFO32e2o+VvvEvTMS2x5tCU2jLPhcTHWGOrqwY4aaGX9jXSwmc1rqUUdu0UM763t9JWDXn/eW//xK8e97dXb7NFLpbUGMAyzAFPkwFlLrMPN1Aei8qwqgiEe+ChjarBJFtG6Z5eJ7As3//rvfvqtGxqr40U9G5iqZ/GceQtQ4mkJJ7JRlEUCnAkaycHzl5683X5po1ER3OFebMERovGiiXBwKCSnnKZW37D8kTrkQAgxFpMQArSJsM1GjfqiNn7pYTTW0eDA9aPLP3frb64zo42KRPdUws/wqHgCBIAah+cbfEKjIDJwL0uKE5WHG6CvYMDAbn7p0P75X9j2yP/c9aTvH/DGnx7+tp8e8TYs4OMXlh5zSv+2r52745lb7f3+3Y/850Ne87kT3vKV17/7W6/7q88ce+pbttlldwjmA8wFOhCEjLs4jQ11BRH80u0oEN+QIHdB5qilJLGkC77hOHSLwA3dDf+15p5/+cXZN46v7AyURrhqq2yw2r+w1C/Gu7NlZZMk5dwtVuKNex/aB6TH83HZ4DIGR7UDXAYcSEg9IUiHwxNZ/YanHwrn9qdpanOFMhDJcaFTxDQ+vEyIvtTkDBPDOZ8I2ZUTy796x2W/WvPgCIpYFpYAKhesI/jocK/GH0DPWsN9FkBqcJlC35aovG3zjKiwY/tzvjTsOWDO4ldvuePpS/d60w77v3nHA//hgJM+uP+J79376Ddst++r5m63bzC0fR5smbMk03lqDFInVc02acXCQCj8pkrbJscLTryHAoqDExwVtJOeAEELRxvCaqt+vezer996+Tfv+t3jyfiqtJ1J0tPbV/JLqhOn422WWpR/WiqmsTF/gwksiNnrdj1ou6iXaxsGfiGVwwXrtMYRQAIIAFzYT+XtK8aWPdUc8XsqRmvQFlviLHBx6SzfmDFf5Lb0RR7/BcOH3Gs2W8bntq9y69pl59x0+YVP3/MYZIX6pxo7QHdR4BWKTVjmwDILSjkO4BPngQFjdNYNXcfTLVAtq1pG4dnIAPJwFQO9FgYtn8P8uTLo9/yyFB6liU5BEOkzL/KDUkgkakYDsyGwABgnFDtrCpo6YA6oa+aqzmE5h9/E6/71zt9+/roLb1j5aOrx2ry5wFmn3dVxKgjFrh1mx0g+Jfv/Pt/NHzxuyU6vWrpbv5MhozlOFmzBlhBrLQPg+KShq+D+5roLVtxrQtlK44BLFAY3/FjnIFimVdHlZfJHX2pyNuJOUIrSbgzGbrndtuMk/8G1F3/3hksQlIiSQlo7uaWhq0CoFs8AjIIvDLFKKaF0DxED1PcpCxiPGAsIiRypGFK1pOLQTOhNih7oEx0B7YxSObrQKghPOTAOiDWM5D7rSt6izmfSY9wj2Jxk6KwZdAXEPgFPPNhY9/W7L/7w7378k5X3TgwF/YsX1vyo3WgySqtBJIBneZ5Sl5REp4oHM8DhXkhTM/jj8+1rg68/4OgoNiVPJknaSfCSFpzRGAZNYRTXKGjoZMlTzZHb1z8dVMv1ej0MAkEZohf3GVxCCt3qHz/ki92SvlgCEIdrviBLGJIhDElRxqWPWq6wkCkyPNEaj4Jlc0o/aa94829+/J1VDz8pWTtgmbOqE8viltGAg4IMCCpCP3BSdgk0KJqjmBkllDP8H0dgGme10TE1CbEJog0gBcgoSz2ZhAi6XOtunnWsw1YZMyYEiJzD04dhaHQrMxN1DF7gt4hbR+jX7r/2X2+66OzHbnvSU3zhkCtFIzZby1VWCZXEGJpKA2HuolhVU9NngDg2LTmnCbEMLBiV50mqE0U0+FRVo7rOc6NrXohXWsFoa35G9u2Z85FDjh+0eAfBNdhI+gOizA0lTGqaygDvN7NYK1xFD3cbF9x8K9QGbJoH5VJTpZoR4XC5Mmac8L1COy+TvxcNozPpx1BAf4mEDQigd8B9taDbR5dfcN9N59xz9Q0jK8Z8oD0lHoRZN+14kAowHIBScCAdjQBq+BBnLMlJqkimibIU1wEwTnhoWGBoYEhoIZqksnFIuhTZG46Z/QAAEABJREFUUgnCSBPEtMeZJI7YVBONEEWEuXYaZx6NI3nD+ic/ftl//fSx2x/LGmEVr07DYDwhG9rQTE2siQNMBIpZTBbx6Q9R1Q+FBZ1m1piSH9RKlVB6oE02Os6txdgxF84LvB6QB/Yt+ucD38AscCB0irVzkwoCzBlhxYpnvOORZSz9r5suc72lyTp4uaeXHEbxYyaGfZYg3grdokmEASS7xcAD2diPHrjhG3de+cun7rwvHa8TdAulTprEeZ7m+F3ZAZ68kSyClRLJAUkwwNtQToATxwAJcFssyCAOQNtic0ef60gHcQIuB2sAn9HoxejC94GxPM2YI9VqOSP28odu++EtV1y++qHR+eWxqlfH00crrRl/Uam/z6+ZzKDApOgKjgDOYoomK6bP0jhxzkkpGWNplsVt3KVTFCx0pLdcqpWiDatWt1atfdP+R/zzYaftmGC8TaUl6BGJe4a/JqBwLI0BOXdA2pT/9LFbb4zXjpCkivJPP+zLqfYlh1H0o3gmRdOiFtFbIKHJMbcCogWDfOu5D7jGl2747UfO/95PHrt1JUCPH1Sk9DmzFvJcZUplRqfG5JzljGZIlGSEpADJFEmeSJ5Klsvi+xCuh8kRXRVkGVgJuFTAEOhAlXUGHRYB3BmLb1SNjk3yrRYu3m7xlmUvaI81sjQ1guM5aUwnG7rtzJlatYc5QJjClB8lgMyxjFPAfFrCD/ex09pj1heKEwXWOceASE9Ejto1w7uKnr876tRXL9mx0kwrliFA0Y8iQLENLgNdrCuXAZi2ghwr6K2jT17y9H1mcX8nT3uK/WXaYV9OlS85jM6kvBoRWbM9PD42DrozUHrEU2c/cMO7fv2f5z5yz+Wrlz2atWNJwBdecUiXMnPoUpA8B0i+A6TQAZIEQMLtFZQzqc6SPOmmcSdh7ZTUu5A5ptHgzgHkDBDZCgCJCOYx3uuFu1fnnrnnER897k376+rCFuFpbksi6wvbIaQIbcnwWI0wxVkgB1xsmGP5DxCrRpkgDZNlxHqlsFKpBJQDBirGZCvXv3qLnb9y2l+8fuEui5UsRT5QizcMFAh7xtGDBYeEvh9fZ9quaDd/cd2V49S08qTihzJG9P6BwV8er+hLTUx0QmhjOmlb9KZIWMS8s2FMKNsblkpRpAUfA/2k6t6X1j98x0WfvOPi/7jnyp89de+dExvWpklmHOUSPQ2xk/hKHXQMtDTUc5jImYKCLEhCfMGjwCuVgnI5hLKfCQacAGVZguAEfEAGVitlMZ5lvOQjMGg92VL5pw7u8KXj3/zW7fbdiZZLnYznmQAjiJXEIkZxaIBirze0yFF+fJyJSiWcUOQLaZVWjY4Za/n1tNa129rgn099098c/Optc38uyMjzcOnkAQAFSgkQggzR4xZjWRzBaQFrmPneLb97LK13TR6PTfgoQ7HWsOEfRy/VVi85jKKHQzMjRgsjoFkoKFZQpafGOc+anWy0EVg2t2+wb84Qq0TpnMrTNLl0xUNfvemST1x53qdvuegrj9/4vZEHH6TJIyx7UqrVgR0vs06V571S98kOcS1im2DHiRlmZi3VqybpYcjuUqMTDFKP5IhUAA6AXwP83IUU42G3od1MlJLloMJZc/WG3cLaGTvt89f7HvWGedvt1ILamkbY7JQtnq4AhUdzWwKIHcyx/AeIdDOZmjBzpcT2pLA1LR88d5vX7rj/F48/88jK4i3B74/CPO440JqT2KTI0CH0GWABAUqso9YRbe/rtM978q5frLy/M6/czjP8+pBrnUgU4Q8M/vJ4RV9qYjJb2HjKzA6eMTPaY11nHGOvUhCWmZSJph3FUksViI72gXnVSj6n8kTFnZ+s+PiTV73z1p+9/Wdffu8vv/ahS77/yet+8dW7L//BE7f9cvVDvx1+8pbGqhvGnr5s3SMXLLv7hw/c8K07rvjyTRd97trz3/vjL378l/912aoHRvESSCA+AUOFbKIDuYNMGYCgUnWhKAI8AosXzrFJukiWTpy30wf3OfEjR572tr0P3SbsmVi9CjeBqdWFikWxcQpY+APkGt1kw3iyfixK7K5Di0/e+5C/OPrkd+xz1B6stjWNSJJ3sgyqpVzQDDSCEiVBQraEFOMUf9bhoDeteOTsa39bn1taT7KwpxqFIfNli2HbPzD4y+PVSw6jhhYeAq2L+kMDICFekSq8TCzNLWgplSdiYlKrCaPUo7mAJlUjkE0QZSgry/JQ0PsEh/tcdl13/BcjT//HU3d95N6r3nPLhW+59tzXXP2j02849y9uu/AD9/3uU0/c8pVV931v/WM/Glv2wMLSHX3sO4/fefHYU2OcN5XL6+lg1AeBpxylluBeywGYttDNSccKyr1M9yZqSawPj+b81S4Hn3Pi22456yMnz196UGloAQYYw6Pt1ataYxt01pHUguSEI5bAaWPjTDe7eqKtxppbyej4BUs/sd+rf3js284+8PQPLdrtYO1vkUObqZwYT4gSwTXpvIxEWlZpKJsYL8MogXGbMksFsPtV41+WX//RNTePbz3gMdkfs3IMMgMRm56MocgzELxc0ksOoxurOPQoU10IABJMJqyUzyYhBBYxR8ICEhaQpgqYT5FuJ6Hnr5kY/fnvLr7gnmsaAqDXV0QrvMX3GX4ZzVWeoUvjFEKpdQewwAgURDFJgm2YBPqRfU74zBGv/9qJb//Wa971lWPe8pGdjz6rb8fX0HlHxKVjVM9p3sKz+nd4/zYHfGyv4/7tkNO+fNQZXzzlXf945OtO2/mAXQfn93jcOVAACbGhpdwCoOeUBHxihWvpeKTbsBTfQwkAb+3xtmlCwLUrHv3B736LjXEFMOwCRcJFbgiol715i7m8IiYBeJAANA/Sc/OZQt4fn4eOCSZi7h6LJy578v5fP3bb06DiEjc+iXObxSoEWfY8dGJtopoV6RhFAs6QKGecsoDwiPA5sd1GiwO9npN6lrxtiz0/uPuRHz/kpE8eeeq/H//mzx/7xk8efuo/HXDCB3Y/9L1L93rbFju9acHSPSDcEbyFBiqpomlunbYIVEFZwZ3kziBeYwIJpdwPw3JJlYPRsbqJMxnIx1n6qet/9YO7r+PzB6UBJOaKSAmvoHA7morjCyO/zP+es+nLdR7oMFB0dDdoHiQs4CNWOkqeT4CQmqwhkwk93+Tvf2cl4uFnHVKJ6ML+J1z3p3ff8OO7rrnPtTKAHMAozS0AItQ45cBSYQAMIQaP2BhvUCoRo8BCwsED4NaBsSZ1OhY6i8D1cD4oZb8UPZyVKF6HOdAGco2EX3RZmhGlcRegjDJ0zIDiI3sASgnHMyTFGXGAAKBkeceY3v4eF3rXjK785E2/+em6B8YqYt7QPBQPCVcpaqDoT0DTgrDvbNOfm18x/z/3mLM6HvoM5IeGQfMgYQEfsdJYq41B+r2CMVhhMUdCUGKOhAWsshZiY+o2r0u7muZXrnzkq5ed/0BjtC3BqyJCwHZzvLfC+0tqjAPclpEAoQtTUAdCHenmcVel+B0BvbLPfY97jHJ8k5sst7lxmoBjhHDOmORIecCNL8Dn4DEQlOArY5nW+AXBUSBQYN53IFNHYoAUGGN1gCuXP/Yft1127ur7xnoliYLumlHiAAnn/hwhUpGee3z5FujLV/TnS84cPEdT9c8gzyL2ClAiCv9wjeNCA9Fag6MiCl0tXAvZHROrvn7Vr85/4NZHdLflgatKTZxQpJdJYq2z1jijwGIfNzUqQCTDiPsBEZ5FzwwST3FpDklWAVG2LDSkqMkVyXJIM6QMeAo0AZIDIPDBEkaFpB7BEQBw1VEUSwERpHCkAdzfGf/2tRd/9drfPKRbZOEgUNKqt4imjgDSs1IUv9QV+35Repn/vewx+pxhiPtvR1JUUoL2e2EBHRUSAGCOBPBMAb9DYmOPypoXhlzm4LKQw9y+K8eXn/PwjWfffc3VzdXLQTdAW2uJxghA437tEP8OMWoRqehZAROGAomxXWU6uYmVNQQDSeYFQChQhkQYp0xQLqcoBPABJBB8R9ER4yQsgAWGAFXgOppkVjFYz8xt6fivxpf9+02/vXjkiVUcMQ5RSkISlcJyEkpDAMlOIhXRSaAAKBZQopc70Zf7BKbkR2MQACQswGSiG5laaUoY5UDSVidvp4wxK3ndZnKHRevL7JKn7v32Vb+55MHbG0Qxj4IG/JxPEKB2MoEz4Ca9qTM+M5FwZQ8qvit5yucphy6FLrExdQmFFIlBwiDlJOGETWjWciwGhs7SASb0pnjFBinYWFELRFLN4JHmhu/fceXfX/DdmzprV/uG9FdqIqi1bNTMCWFp1cMFNkXIAQn1MEVYfrnTywaj6CGmJWonPQ5lGStI0eKxqDQWjCXWTdGUwTB/zmDu2TSJMhsxQrUmRvtceIzzzInYllI61qzrUKRza3eb+hduvexvL/zh2U/d/4gPqhzYwGfSk/gHXCrGUiCxJbiP54oqzbThxnrWYTQZOYiAho4EDtBres5Ja4TBNgrKHAICAopkii2fJoom2TC1zapYX+PXqPFP33PlJ6791WXDT9XnVoWPX9lY15oWqFQ651HuNO12p1UOVhZsX+Z/LxuMvlh6loznRnetSkqiPRDcZ+vfuOfKd53/tXNW3fO79U+snBgTXcMTwA86VFATMC0FkhFcc2YYdRRjECj8Iyly9JHauNwWlwPKAXrJotaC1TbTumt0h9ukLPKq1+12L3/sgQ9e/dOzrjj7iytvvpc2gbP++MVSw58y7mz12YzR/0GTPTmNYiMz43teNNDr5tbWR+4BM/Hh68775C0Xfv2ha3+x+v6H4pFhpuocmhRSjFSRLAariDzAQBUyh2Q7GmLDUss18SwNgIWMI3XzPGOQBjQOeMvjj7P4mvHl56+4/7O//cnXb7/sopFH1wRdPTeIB6LMZ+nL6r9D+h80+0e/3ozR/0FVlcT1aNajGCKV1ru2FUsDZT+0iwYeDvNvDN/7znsveMONP/zbO3/13advv7z+9HDaGc3iusliYnMODjdxnxCP0JCTgIFHDQP0oJlxSWa6mRktySdocnNj3blP3/Pvd1z86cvP/dSVv/jMtRdcHjRW1Gi5r68m+0qJ9LsmplDvC+D/XtqM0f/B5iOQtqhRsti1FaZuorqJTdH7WcMk1Krd3vKTXF2y/sn/uPWKf7zoR/90yY8/euW5n7v5t1+//9qfrLjvovrKa3X9NhLfQ9WdNL0ZWtfmI5d1Vv1m/KkLRh47f/3Dn7z855/4zc8+fel5X7nu4p89fMcNzXXLy7SxqE8v6DWBZK2svLbTvz7t70CJSBb4/4O4r8TXmzH6P1h1okI3BGa9UBO+09WADVRZfwV6IkRMn+LzWmRRHea2SRmErgStOeXrZPsyO3pu46lvPH3Hx++45H1X/PjNv/j6qT/54mnnIn359PP+882/+tbbf3P2Oy/9wXt+9+O/vOqn102suDsfW+Hrdn+YD5NoptgAAAJvSURBVJSTkpyw+WjcylYOq/EWWCdLYVAplYRfVqTaVP+DuK/E15sx+j9YtRSVI+kz41yqsixL8qyr85bOSKwxsiyJsKdUq1V6oqAkqCAGupIU5NF2yFoRb5dEoyxaVbnBt2MBTJR5tzfM59Zgi0Gx5Vxv6/n1kE1IaFDbckY78JnX65UHw94eWeqp9Hg9tSSSwzZbH7fbSeoM/B9MmzH6Pxh9sK7nx2wrKC1ipQEn0ZkFCgJHy9zTnKxkyb1Qv9/V19qYOzLkvAHFB7Xo0xwPWzVFyzkgRTn0s6CX+T0gIk38zIpOTtqpa8a8GvEooFJwQrkFT7lIQSmHTkDx81EnT5M0xXtYDDbaPhn33f8g7svx9f8k82aMPqMhvEqcllqcTIAZ0dm4zrvOKcoc5cQxvJ7UzkaO9YOHFAJLwUxAnoBDSgnkjCq8fpLCehIJazI87xNiKIa2DBhnTHCOXjdjmRYWBGWYDIXY6ZbJwFhnLTjHKBWcB0xEhIeWPiPu/6Wf/4tz/r9k31fCXDdj9JVgxVf2HDZj9JVt31fC7DZj9JVgxVf2HDZj9JVt31fC7J7F6CthLpvn8MrUwGaMvjLt+kqa1WaMvpKs+cqcy2aMvjLt+kqa1WaMvpKs+cqcy2aMvjLt+kqa1cZi9JU0981zeXloYDNGXx52+r8s5WaM/l+2/stj7psx+vKw0/9lKTdj9P+y9V8ec9+M0ZeHnf4vS7mpMPp/Waeb5z67GtiM0dnV52Zus6+BzRidfZ1u5ji7GtiM0dnV52Zus6+BzRidfZ1u5ji7GtiM0dnV52Zus6+BFxujsz+jzRxfaRr4fwAAAP//MNE7LgAAAAZJREFUAwDMB0wo5s+EpgAAAABJRU5ErkJggg==;fontSize=10;" vertex="1" parent="c-cJ_QU96Qvupv7S0T-8-186">
          <mxGeometry x="355.8592446633827" y="64.71" width="51.97802197802198" height="51.97802197802198" as="geometry" />
        </mxCell>
        <mxCell id="c-cJ_QU96Qvupv7S0T-8-195" value="&lt;div&gt;&lt;font style=&quot;font-size: 11px;&quot;&gt;&lt;br&gt;&lt;/font&gt;&lt;/div&gt;&lt;div&gt;&lt;font style=&quot;font-size: 11px;&quot;&gt;You are a precise, factual news-change analyst. Output MUST be valid JSON only.&lt;/font&gt;&lt;/div&gt;&lt;div&gt;&lt;font style=&quot;font-size: 11px;&quot;&gt;&lt;span style=&quot;background-color: transparent;&quot;&gt;You will receive two mementos (M1, M2). Let&#39;s Think Step by Step&lt;/span&gt;.&lt;/font&gt;&lt;/div&gt;&lt;div&gt;&lt;font style=&quot;font-size: 11px;&quot;&gt;&lt;span style=&quot;white-space: pre;&quot;&gt;&#x9;&lt;/span&gt;1) Split both mementos into sentences.&lt;/font&gt;&lt;/div&gt;&lt;div&gt;&lt;font style=&quot;font-size: 11px;&quot;&gt;&amp;nbsp; &amp;nbsp; &amp;nbsp; &amp;nbsp; 2) Align sentences into operations: match / insert / delete.&lt;/font&gt;&lt;/div&gt;&lt;div&gt;&lt;span style=&quot;background-color: transparent;&quot;&gt;&lt;font style=&quot;font-size: 11px;&quot;&gt;&amp;nbsp; &amp;nbsp; &amp;nbsp; &amp;nbsp; 3) For each aligned unit, output ONE JSON object with:&lt;/font&gt;&lt;/span&gt;&lt;/div&gt;&lt;div&gt;&lt;span style=&quot;background-color: transparent;&quot;&gt;&lt;font style=&quot;font-size: 11px;&quot;&gt;&lt;span style=&quot;white-space: pre;&quot;&gt;&#x9;&lt;/span&gt;...&lt;br&gt;&lt;/font&gt;&lt;/span&gt;&lt;/div&gt;&lt;div&gt;&lt;span style=&quot;background-color: transparent;&quot;&gt;&lt;font style=&quot;font-size: 11px;&quot;&gt;&lt;span style=&quot;white-space: pre;&quot;&gt;&#x9;&lt;/span&gt;...&lt;/font&gt;&lt;/span&gt;&lt;/div&gt;&lt;div&gt;&lt;font style=&quot;font-size: 11px;&quot;&gt;&lt;span style=&quot;background-color: rgb(255, 255, 255);&quot;&gt;Memento 1 (M1):\n&quot; + &lt;/span&gt;&lt;span style=&quot;background-color: rgb(255, 230, 204);&quot;&gt;m1_text&lt;/span&gt;&lt;span style=&quot;background-color: rgb(255, 255, 255);&quot;&gt; + &quot;\n\nMemento 2 (M2):\n&quot; + &lt;/span&gt;&lt;span style=&quot;background-color: rgb(255, 230, 204);&quot;&gt;m2_text&lt;/span&gt;&lt;span style=&quot;background-color: rgb(255, 255, 255);&quot;&gt; }&lt;/span&gt;&lt;span style=&quot;background-color: transparent;&quot;&gt;...&lt;/span&gt;&lt;/font&gt;&lt;/div&gt;&lt;div&gt;&lt;font style=&quot;font-size: 11px;&quot;&gt;...&lt;/font&gt;&lt;/div&gt;&lt;div&gt;&lt;font style=&quot;font-size: 11px;&quot;&gt;Mark &#39;Important&#39; if the change affects meaning, reader understanding or credibility...&lt;/font&gt;&lt;/div&gt;&lt;div&gt;&lt;br&gt;&lt;/div&gt;" style="rounded=0;whiteSpace=wrap;html=1;align=left;" vertex="1" parent="c-cJ_QU96Qvupv7S0T-8-186">
          <mxGeometry x="141.75824175824175" y="210" width="510.32967032967036" height="169.1" as="geometry" />
        </mxCell>
        <mxCell id="c-cJ_QU96Qvupv7S0T-8-196" style="edgeStyle=orthogonalEdgeStyle;rounded=0;orthogonalLoop=1;jettySize=auto;html=1;entryX=0;entryY=0.5;entryDx=0;entryDy=0;" edge="1" parent="c-cJ_QU96Qvupv7S0T-8-186" source="c-cJ_QU96Qvupv7S0T-8-194" target="c-cJ_QU96Qvupv7S0T-8-208">
          <mxGeometry relative="1" as="geometry">
            <mxPoint x="207.9120879120879" y="110" as="sourcePoint" />
            <mxPoint x="246.6593406593407" y="110" as="targetPoint" />
          </mxGeometry>
        </mxCell>
        <mxCell id="c-cJ_QU96Qvupv7S0T-8-197" value="&lt;span style=&quot;font-size: 10px;&quot;&gt;Manual Validation of Results&lt;/span&gt;" style="shape=process;whiteSpace=wrap;html=1;backgroundOutline=1;fillColor=#f8cecc;strokeColor=#b85450;" vertex="1" parent="c-cJ_QU96Qvupv7S0T-8-186">
          <mxGeometry x="539.998021978022" y="66.5" width="85.05494505494505" height="48" as="geometry" />
        </mxCell>
        <mxCell id="c-cJ_QU96Qvupv7S0T-8-198" value="&lt;span style=&quot;font-size: 10px;&quot;&gt;Creation of Taxonomy&lt;/span&gt;" style="shape=process;whiteSpace=wrap;html=1;backgroundOutline=1;fillColor=#f8cecc;strokeColor=#b85450;" vertex="1" parent="c-cJ_QU96Qvupv7S0T-8-186">
          <mxGeometry x="652.0860439560441" y="66.5" width="85.05494505494505" height="48" as="geometry" />
        </mxCell>
        <mxCell id="c-cJ_QU96Qvupv7S0T-8-199" value="&lt;font style=&quot;font-size: 10px;&quot;&gt;Taxonomy of Important Changes&lt;/font&gt;" style="shape=document;whiteSpace=wrap;html=1;boundedLbl=1;fillColor=default;strokeWidth=2;" vertex="1" parent="c-cJ_QU96Qvupv7S0T-8-186">
          <mxGeometry x="649.64" y="148.25" width="87.5" height="51.75" as="geometry" />
        </mxCell>
        <mxCell id="c-cJ_QU96Qvupv7S0T-8-200" style="edgeStyle=orthogonalEdgeStyle;rounded=0;orthogonalLoop=1;jettySize=auto;html=1;exitX=0.5;exitY=1;exitDx=0;exitDy=0;entryX=0.5;entryY=0;entryDx=0;entryDy=0;" edge="1" parent="c-cJ_QU96Qvupv7S0T-8-186" source="c-cJ_QU96Qvupv7S0T-8-198" target="c-cJ_QU96Qvupv7S0T-8-199">
          <mxGeometry relative="1" as="geometry" />
        </mxCell>
        <mxCell id="c-cJ_QU96Qvupv7S0T-8-201" value="&lt;span style=&quot;font-size: 10px;&quot;&gt;Visualization of Results&lt;/span&gt;" style="shape=process;whiteSpace=wrap;html=1;backgroundOutline=1;fillColor=#f8cecc;strokeColor=#b85450;" vertex="1" parent="c-cJ_QU96Qvupv7S0T-8-186">
          <mxGeometry x="760.0028571428572" y="66" width="85.05494505494505" height="48" as="geometry" />
        </mxCell>
        <mxCell id="c-cJ_QU96Qvupv7S0T-8-202" style="edgeStyle=orthogonalEdgeStyle;rounded=0;orthogonalLoop=1;jettySize=auto;html=1;exitX=1;exitY=0.5;exitDx=0;exitDy=0;entryX=0;entryY=0.5;entryDx=0;entryDy=0;" edge="1" parent="c-cJ_QU96Qvupv7S0T-8-186" source="c-cJ_QU96Qvupv7S0T-8-198" target="c-cJ_QU96Qvupv7S0T-8-201">
          <mxGeometry relative="1" as="geometry" />
        </mxCell>
        <mxCell id="c-cJ_QU96Qvupv7S0T-8-203" style="edgeStyle=orthogonalEdgeStyle;rounded=0;orthogonalLoop=1;jettySize=auto;html=1;entryX=0;entryY=0.5;entryDx=0;entryDy=0;exitX=1;exitY=0.5;exitDx=0;exitDy=0;" edge="1" parent="c-cJ_QU96Qvupv7S0T-8-186" source="c-cJ_QU96Qvupv7S0T-8-197" target="c-cJ_QU96Qvupv7S0T-8-198">
          <mxGeometry relative="1" as="geometry">
            <mxPoint x="507.967032967033" y="55.75" as="sourcePoint" />
            <mxPoint x="507.967032967033" y="207.75" as="targetPoint" />
          </mxGeometry>
        </mxCell>
        <mxCell id="c-cJ_QU96Qvupv7S0T-8-204" style="edgeStyle=orthogonalEdgeStyle;rounded=0;orthogonalLoop=1;jettySize=auto;html=1;exitX=1;exitY=0.5;exitDx=0;exitDy=0;entryX=0;entryY=0.5;entryDx=0;entryDy=0;" edge="1" parent="c-cJ_QU96Qvupv7S0T-8-186" source="c-cJ_QU96Qvupv7S0T-8-191" target="c-cJ_QU96Qvupv7S0T-8-194">
          <mxGeometry relative="1" as="geometry">
            <mxPoint x="226.81318681318683" y="90" as="sourcePoint" />
            <mxPoint x="265.56043956043965" y="90" as="targetPoint" />
          </mxGeometry>
        </mxCell>
        <mxCell id="c-cJ_QU96Qvupv7S0T-8-205" value="&lt;font style=&quot;font-size: 12px;&quot;&gt;Prompt snippet&lt;/font&gt;" style="text;strokeColor=none;fillColor=none;html=1;fontSize=10;fontStyle=1;verticalAlign=middle;align=center;fontColor=default;" vertex="1" parent="c-cJ_QU96Qvupv7S0T-8-186">
          <mxGeometry x="519.7802197802198" y="279.55" width="94.50549450549453" height="30" as="geometry" />
        </mxCell>
        <mxCell id="c-cJ_QU96Qvupv7S0T-8-207" value="&lt;span style=&quot;font-size: 10px;&quot;&gt;LLM Responses&lt;/span&gt;" style="dashed=0;outlineConnect=0;html=1;align=center;labelPosition=center;verticalLabelPosition=bottom;verticalAlign=top;shape=mxgraph.weblogos.json_2;labelBackgroundColor=none;" vertex="1" parent="c-cJ_QU96Qvupv7S0T-8-186">
          <mxGeometry x="452.90999999999997" y="122.00000000000004" width="58.5934065934066" height="17" as="geometry" />
        </mxCell>
        <mxCell id="c-cJ_QU96Qvupv7S0T-8-208" value="&lt;span style=&quot;font-size: 10px;&quot;&gt;Aligned Dataset&lt;/span&gt;" style="shape=datastore;whiteSpace=wrap;html=1;fillColor=#e1d5e7;strokeColor=#9673a6;" vertex="1" parent="c-cJ_QU96Qvupv7S0T-8-186">
          <mxGeometry x="459.997912087912" y="65.50000000000004" width="44.417582417582416" height="50" as="geometry" />
        </mxCell>
        <mxCell id="c-cJ_QU96Qvupv7S0T-8-209" style="edgeStyle=orthogonalEdgeStyle;rounded=0;orthogonalLoop=1;jettySize=auto;html=1;entryX=0;entryY=0.5;entryDx=0;entryDy=0;exitX=1;exitY=0.5;exitDx=0;exitDy=0;" edge="1" parent="c-cJ_QU96Qvupv7S0T-8-186" source="c-cJ_QU96Qvupv7S0T-8-208" target="c-cJ_QU96Qvupv7S0T-8-197">
          <mxGeometry relative="1" as="geometry">
            <mxPoint x="430" y="86" as="sourcePoint" />
            <mxPoint x="476" y="86" as="targetPoint" />
          </mxGeometry>
        </mxCell>
        <mxCell id="c-cJ_QU96Qvupv7S0T-8-206" style="edgeStyle=orthogonalEdgeStyle;rounded=0;orthogonalLoop=1;jettySize=auto;html=1;exitX=0.5;exitY=0;exitDx=0;exitDy=0;" edge="1" parent="c-cJ_QU96Qvupv7S0T-8-156" source="c-cJ_QU96Qvupv7S0T-8-195">
          <mxGeometry relative="1" as="geometry">
            <mxPoint x="330.7692307692308" y="468" as="sourcePoint" />
            <mxPoint x="396.923076923077" y="458" as="targetPoint" />
          </mxGeometry>
        </mxCell>
      </root>
    </mxGraphModel>
  </diagram>
</mxfile>
